<mxfile host="app.diagrams.net" modified="2021-06-18T14:13:20.875Z" agent="5.0 (Windows NT 10.0; Win64; x64) AppleWebKit/537.36 (KHTML, like Gecko) Chrome/91.0.4472.101 Safari/537.36" etag="JfXt2sxHfmQg6byxtFza" version="14.8.0" type="github">
  <diagram id="oThwvBxUg1dMHxMkPZIc" name="Page-1">
    <mxGraphModel dx="1824" dy="982" grid="1" gridSize="10" guides="1" tooltips="1" connect="1" arrows="1" fold="1" page="1" pageScale="1" pageWidth="1800" pageHeight="8000" math="0" shadow="0">
      <root>
        <mxCell id="0" />
        <mxCell id="1" parent="0" />
        <mxCell id="N71K2Kx4Mg54BnZ_dNbA-45" value="" style="ellipse;shape=cloud;whiteSpace=wrap;html=1;fillColor=#f5f5f5;strokeColor=#666666;fontColor=#333333;" parent="1" vertex="1">
          <mxGeometry x="450" y="90" width="780" height="360" as="geometry" />
        </mxCell>
        <mxCell id="N71K2Kx4Mg54BnZ_dNbA-1" value="BloomBerg" style="ellipse;shape=cloud;whiteSpace=wrap;html=1;" parent="1" vertex="1">
          <mxGeometry x="100" y="150" width="120" height="80" as="geometry" />
        </mxCell>
        <mxCell id="N71K2Kx4Mg54BnZ_dNbA-2" value="NewsAPI" style="ellipse;shape=cloud;whiteSpace=wrap;html=1;" parent="1" vertex="1">
          <mxGeometry x="100" y="250" width="120" height="80" as="geometry" />
        </mxCell>
        <mxCell id="N71K2Kx4Mg54BnZ_dNbA-8" value="" style="edgeStyle=orthogonalEdgeStyle;rounded=0;orthogonalLoop=1;jettySize=auto;html=1;startArrow=classic;startFill=1;" parent="1" source="N71K2Kx4Mg54BnZ_dNbA-3" edge="1">
          <mxGeometry relative="1" as="geometry">
            <mxPoint x="500" y="250" as="targetPoint" />
          </mxGeometry>
        </mxCell>
        <mxCell id="N71K2Kx4Mg54BnZ_dNbA-3" value="Financieel Dagblad" style="ellipse;shape=cloud;whiteSpace=wrap;html=1;" parent="1" vertex="1">
          <mxGeometry x="220" y="210" width="170" height="80" as="geometry" />
        </mxCell>
        <mxCell id="N71K2Kx4Mg54BnZ_dNbA-4" value="Reuters" style="ellipse;shape=cloud;whiteSpace=wrap;html=1;" parent="1" vertex="1">
          <mxGeometry x="210" y="320" width="120" height="80" as="geometry" />
        </mxCell>
        <mxCell id="N71K2Kx4Mg54BnZ_dNbA-5" value="Dow Jones" style="ellipse;shape=cloud;whiteSpace=wrap;html=1;" parent="1" vertex="1">
          <mxGeometry x="245" y="100" width="120" height="80" as="geometry" />
        </mxCell>
        <mxCell id="N71K2Kx4Mg54BnZ_dNbA-29" style="edgeStyle=orthogonalEdgeStyle;rounded=0;orthogonalLoop=1;jettySize=auto;html=1;exitX=1;exitY=0.5;exitDx=0;exitDy=0;startArrow=classic;startFill=1;" parent="1" source="N71K2Kx4Mg54BnZ_dNbA-9" edge="1">
          <mxGeometry relative="1" as="geometry">
            <mxPoint x="974" y="249" as="targetPoint" />
          </mxGeometry>
        </mxCell>
        <mxCell id="N71K2Kx4Mg54BnZ_dNbA-9" value="RABO EWS NEWS PIPELINE" style="rounded=0;whiteSpace=wrap;html=1;fillColor=#fff2cc;strokeColor=#d6b656;" parent="1" vertex="1">
          <mxGeometry x="624" y="220" width="290" height="60" as="geometry" />
        </mxCell>
        <mxCell id="N71K2Kx4Mg54BnZ_dNbA-11" value="Client Portfolio" style="shape=table;startSize=30;container=1;collapsible=1;childLayout=tableLayout;fixedRows=1;rowLines=0;fontStyle=1;align=center;resizeLast=1;" parent="1" vertex="1">
          <mxGeometry x="1130" y="420" width="180" height="150.00000000000023" as="geometry" />
        </mxCell>
        <mxCell id="N71K2Kx4Mg54BnZ_dNbA-12" value="" style="shape=partialRectangle;collapsible=0;dropTarget=0;pointerEvents=0;fillColor=none;top=0;left=0;bottom=1;right=0;points=[[0,0.5],[1,0.5]];portConstraint=eastwest;" parent="N71K2Kx4Mg54BnZ_dNbA-11" vertex="1">
          <mxGeometry y="30" width="180" height="30" as="geometry" />
        </mxCell>
        <mxCell id="N71K2Kx4Mg54BnZ_dNbA-13" value="PK" style="shape=partialRectangle;connectable=0;fillColor=none;top=0;left=0;bottom=0;right=0;fontStyle=1;overflow=hidden;" parent="N71K2Kx4Mg54BnZ_dNbA-12" vertex="1">
          <mxGeometry width="40" height="30" as="geometry" />
        </mxCell>
        <mxCell id="N71K2Kx4Mg54BnZ_dNbA-14" value="Company Name" style="shape=partialRectangle;connectable=0;fillColor=none;top=0;left=0;bottom=0;right=0;align=left;spacingLeft=6;fontStyle=5;overflow=hidden;" parent="N71K2Kx4Mg54BnZ_dNbA-12" vertex="1">
          <mxGeometry x="40" width="140" height="30" as="geometry" />
        </mxCell>
        <mxCell id="N71K2Kx4Mg54BnZ_dNbA-15" value="" style="shape=partialRectangle;collapsible=0;dropTarget=0;pointerEvents=0;fillColor=none;top=0;left=0;bottom=0;right=0;points=[[0,0.5],[1,0.5]];portConstraint=eastwest;" parent="N71K2Kx4Mg54BnZ_dNbA-11" vertex="1">
          <mxGeometry y="60" width="180" height="20" as="geometry" />
        </mxCell>
        <mxCell id="N71K2Kx4Mg54BnZ_dNbA-16" value="" style="shape=partialRectangle;connectable=0;fillColor=none;top=0;left=0;bottom=0;right=0;editable=1;overflow=hidden;" parent="N71K2Kx4Mg54BnZ_dNbA-15" vertex="1">
          <mxGeometry width="40" height="20" as="geometry" />
        </mxCell>
        <mxCell id="N71K2Kx4Mg54BnZ_dNbA-17" value="Row 1" style="shape=partialRectangle;connectable=0;fillColor=none;top=0;left=0;bottom=0;right=0;align=left;spacingLeft=6;overflow=hidden;" parent="N71K2Kx4Mg54BnZ_dNbA-15" vertex="1">
          <mxGeometry x="40" width="140" height="20" as="geometry" />
        </mxCell>
        <mxCell id="N71K2Kx4Mg54BnZ_dNbA-18" value="" style="shape=partialRectangle;collapsible=0;dropTarget=0;pointerEvents=0;fillColor=none;top=0;left=0;bottom=0;right=0;points=[[0,0.5],[1,0.5]];portConstraint=eastwest;" parent="N71K2Kx4Mg54BnZ_dNbA-11" vertex="1">
          <mxGeometry y="80" width="180" height="30" as="geometry" />
        </mxCell>
        <mxCell id="N71K2Kx4Mg54BnZ_dNbA-19" value="" style="shape=partialRectangle;connectable=0;fillColor=none;top=0;left=0;bottom=0;right=0;editable=1;overflow=hidden;" parent="N71K2Kx4Mg54BnZ_dNbA-18" vertex="1">
          <mxGeometry width="40" height="30" as="geometry" />
        </mxCell>
        <mxCell id="N71K2Kx4Mg54BnZ_dNbA-20" value="Row 2" style="shape=partialRectangle;connectable=0;fillColor=none;top=0;left=0;bottom=0;right=0;align=left;spacingLeft=6;overflow=hidden;" parent="N71K2Kx4Mg54BnZ_dNbA-18" vertex="1">
          <mxGeometry x="40" width="140" height="30" as="geometry" />
        </mxCell>
        <mxCell id="N71K2Kx4Mg54BnZ_dNbA-21" value="" style="shape=partialRectangle;collapsible=0;dropTarget=0;pointerEvents=0;fillColor=none;top=0;left=0;bottom=0;right=0;points=[[0,0.5],[1,0.5]];portConstraint=eastwest;" parent="N71K2Kx4Mg54BnZ_dNbA-11" vertex="1">
          <mxGeometry y="110" width="180" height="30" as="geometry" />
        </mxCell>
        <mxCell id="N71K2Kx4Mg54BnZ_dNbA-22" value="" style="shape=partialRectangle;connectable=0;fillColor=none;top=0;left=0;bottom=0;right=0;editable=1;overflow=hidden;" parent="N71K2Kx4Mg54BnZ_dNbA-21" vertex="1">
          <mxGeometry width="40" height="30" as="geometry" />
        </mxCell>
        <mxCell id="N71K2Kx4Mg54BnZ_dNbA-23" value="Row 3" style="shape=partialRectangle;connectable=0;fillColor=none;top=0;left=0;bottom=0;right=0;align=left;spacingLeft=6;overflow=hidden;" parent="N71K2Kx4Mg54BnZ_dNbA-21" vertex="1">
          <mxGeometry x="40" width="140" height="30" as="geometry" />
        </mxCell>
        <mxCell id="N71K2Kx4Mg54BnZ_dNbA-26" value="Actor" style="shape=umlActor;verticalLabelPosition=bottom;verticalAlign=top;html=1;outlineConnect=0;" parent="1" vertex="1">
          <mxGeometry x="1340" y="420" width="30" height="60" as="geometry" />
        </mxCell>
        <mxCell id="N71K2Kx4Mg54BnZ_dNbA-31" style="edgeStyle=orthogonalEdgeStyle;rounded=0;orthogonalLoop=1;jettySize=auto;html=1;exitX=0.55;exitY=0.95;exitDx=0;exitDy=0;exitPerimeter=0;startArrow=classic;startFill=1;entryX=0.5;entryY=0;entryDx=0;entryDy=0;entryPerimeter=0;" parent="1" source="N71K2Kx4Mg54BnZ_dNbA-28" target="N71K2Kx4Mg54BnZ_dNbA-26" edge="1">
          <mxGeometry relative="1" as="geometry">
            <mxPoint x="1356" y="390" as="targetPoint" />
          </mxGeometry>
        </mxCell>
        <mxCell id="N71K2Kx4Mg54BnZ_dNbA-39" style="edgeStyle=orthogonalEdgeStyle;rounded=0;orthogonalLoop=1;jettySize=auto;html=1;exitX=0.875;exitY=0.5;exitDx=0;exitDy=0;exitPerimeter=0;entryX=0;entryY=0.5;entryDx=0;entryDy=0;entryPerimeter=0;startArrow=none;startFill=0;" parent="1" source="N71K2Kx4Mg54BnZ_dNbA-28" target="N71K2Kx4Mg54BnZ_dNbA-33" edge="1">
          <mxGeometry relative="1" as="geometry" />
        </mxCell>
        <mxCell id="N71K2Kx4Mg54BnZ_dNbA-28" value="EWS NEWS API" style="ellipse;shape=cloud;whiteSpace=wrap;html=1;" parent="1" vertex="1">
          <mxGeometry x="1250" y="210" width="190" height="80" as="geometry" />
        </mxCell>
        <mxCell id="N71K2Kx4Mg54BnZ_dNbA-40" style="edgeStyle=orthogonalEdgeStyle;rounded=0;orthogonalLoop=1;jettySize=auto;html=1;exitX=0.5;exitY=1;exitDx=0;exitDy=0;exitPerimeter=0;entryX=1;entryY=0.3333333333333333;entryDx=0;entryDy=0;entryPerimeter=0;startArrow=none;startFill=0;" parent="1" source="N71K2Kx4Mg54BnZ_dNbA-33" target="N71K2Kx4Mg54BnZ_dNbA-26" edge="1">
          <mxGeometry relative="1" as="geometry" />
        </mxCell>
        <mxCell id="N71K2Kx4Mg54BnZ_dNbA-33" value="News" style="html=1;strokeColor=none;fillColor=#0079D6;labelPosition=center;verticalLabelPosition=middle;verticalAlign=top;align=center;fontSize=12;outlineConnect=0;spacingTop=-6;fontColor=#FFFFFF;shape=mxgraph.sitemap.news;" parent="1" vertex="1">
          <mxGeometry x="1520" y="215" width="120" height="70" as="geometry" />
        </mxCell>
        <mxCell id="N71K2Kx4Mg54BnZ_dNbA-37" value="&lt;font style=&quot;font-size: 16px&quot;&gt;Aggregate, Filter and prioritize&lt;br&gt;&lt;/font&gt;" style="text;html=1;strokeColor=none;fillColor=none;align=left;verticalAlign=top;whiteSpace=wrap;rounded=0;" parent="1" vertex="1">
          <mxGeometry x="634" y="285" width="270" height="55" as="geometry" />
        </mxCell>
        <mxCell id="N71K2Kx4Mg54BnZ_dNbA-46" value="&lt;ul style=&quot;color: rgb(0 , 0 , 0) ; font-family: &amp;#34;helvetica&amp;#34; ; font-size: 13px ; font-style: normal ; letter-spacing: normal ; text-align: left ; text-indent: 0px ; text-transform: none ; word-spacing: 0px&quot;&gt;&lt;li&gt;&lt;br&gt;&lt;/li&gt;&lt;li&gt;&lt;br&gt;&lt;/li&gt;&lt;li&gt;&lt;span style=&quot;background-color: rgb(255 , 255 , 255)&quot;&gt;What&#39;s the &lt;b&gt;sentiment &lt;/b&gt;of this article?&lt;/span&gt;&lt;/li&gt;&lt;li&gt;&lt;span style=&quot;background-color: rgb(255 , 255 , 255)&quot;&gt;Are there &lt;b&gt;pictures &lt;/b&gt;and/or &lt;b&gt;tables&amp;nbsp;&lt;/b&gt;in this article? What do they state? Any &lt;b&gt;trends&lt;/b&gt;?&amp;nbsp;&lt;/span&gt;&lt;/li&gt;&lt;li&gt;&lt;span style=&quot;background-color: rgb(255 , 255 , 255)&quot;&gt;Any &lt;b&gt;key words&lt;/b&gt; mentioned in this article? How important are they?&lt;/span&gt;&lt;/li&gt;&lt;li style=&quot;font-weight: 400&quot;&gt;&lt;span style=&quot;background-color: rgb(255 , 255 , 255)&quot;&gt;Any syno&lt;/span&gt;&lt;/li&gt;&lt;/ul&gt;" style="text;whiteSpace=wrap;html=1;" parent="1" vertex="1">
          <mxGeometry x="1210" y="940" width="400" height="330" as="geometry" />
        </mxCell>
        <mxCell id="N71K2Kx4Mg54BnZ_dNbA-47" value="Trigger client" style="text;html=1;strokeColor=none;fillColor=none;align=center;verticalAlign=middle;whiteSpace=wrap;rounded=0;" parent="1" vertex="1">
          <mxGeometry x="1520" y="190" width="120" height="20" as="geometry" />
        </mxCell>
        <mxCell id="N71K2Kx4Mg54BnZ_dNbA-48" value="Azure&amp;nbsp;&lt;br&gt;" style="text;html=1;strokeColor=none;fillColor=none;align=center;verticalAlign=middle;whiteSpace=wrap;rounded=0;" parent="1" vertex="1">
          <mxGeometry x="584" y="190" width="120" height="40" as="geometry" />
        </mxCell>
        <mxCell id="y_BxE63rZUQRerE50zBT-5" style="edgeStyle=orthogonalEdgeStyle;rounded=0;orthogonalLoop=1;jettySize=auto;html=1;exitX=1;exitY=0.5;exitDx=0;exitDy=0;entryX=0.054;entryY=0.507;entryDx=0;entryDy=0;entryPerimeter=0;startArrow=classic;startFill=1;" parent="1" source="y_BxE63rZUQRerE50zBT-2" target="N71K2Kx4Mg54BnZ_dNbA-28" edge="1">
          <mxGeometry relative="1" as="geometry" />
        </mxCell>
        <mxCell id="y_BxE63rZUQRerE50zBT-2" value="TRIGGER" style="rounded=0;whiteSpace=wrap;html=1;fillColor=#d5e8d4;strokeColor=#82b366;" parent="1" vertex="1">
          <mxGeometry x="974" y="220" width="100" height="60" as="geometry" />
        </mxCell>
        <mxCell id="y_BxE63rZUQRerE50zBT-3" value="&lt;span style=&quot;color: rgb(0 , 0 , 0) ; font-family: &amp;#34;helvetica&amp;#34; ; font-size: 16px ; font-style: normal ; font-weight: 400 ; letter-spacing: normal ; text-align: left ; text-indent: 0px ; text-transform: none ; word-spacing: 0px ; background-color: rgb(248 , 249 , 250) ; display: inline ; float: none&quot;&gt;Relevant?&lt;/span&gt;" style="text;whiteSpace=wrap;html=1;" parent="1" vertex="1">
          <mxGeometry x="974" y="285" width="100" height="30" as="geometry" />
        </mxCell>
        <mxCell id="y_BxE63rZUQRerE50zBT-9" value="NLP model" style="text;html=1;strokeColor=none;fillColor=none;align=center;verticalAlign=middle;whiteSpace=wrap;rounded=0;" parent="1" vertex="1">
          <mxGeometry x="950" y="190" width="120" height="40" as="geometry" />
        </mxCell>
        <mxCell id="GY8CTZVmxZDpq2XvXLuZ-2" value="" style="shape=image;verticalLabelPosition=bottom;labelBackgroundColor=#ffffff;verticalAlign=top;aspect=fixed;imageAspect=0;image=data:image/png,iVBORw0KGgoAAAANSUhEUgAABFcAAAFUCAYAAADh8tP0AAAgAElEQVR4Aey932sdyZbveeH8Gf2qF6FBDxZ6sP1SVRSIwoOwYSQM1YID1hSNjKF244tVBVMlQx3JtNV6kEduythDCdftDXrYUEK6lDnGHgRSWw3W1VC4RLul09RIPW4srg/WjG/vBzVriIyIzPixIjNy/5C2pG+BS5m5M359YsWKFSvjx38i/AcCIAACIAACIAACIAACIAACIAACIAACINAwgf/UcEgEBAEQAAEQAAEQAAEQAAEQAAEQAAEQAAEQIDhXIAQgAAIgAAIgAAIgAAIgAAIgAAIgAAIg0AQBOFeagIegIAACIAACIAACIAACIAACIAACIAACIADnCmQABEAABEAABEAABEAABEAABEAABEAABJogAOdKE/AQFARAAARAAARAAARAAARAAARAAARAAATgXIEMgAAIgAAIgAAIgAAIgAAIgAAIgAAIgEATBOBcaQIegoIACIAACIAACIAACIAACIAACIAACIAAnCuQARAAARAAARAAARAAARAAARAAARAAARBoggCcK03AQ1AQAAEQAAEQAAEQAAEQAAEQAAEQAAEQgHMFMgACIAACIAACIAACIAACIAACIAACIAACTRCAc6UJeAgKAiAAAiAAAiAAAiAAAiAAAiAAAiAAAnCuQAZAAARAAARAAARAAARAAARAAARAAARAoAkCcK40AQ9BQQAEQAAEQAAEQAAEQAAEQAAEQAAEQADOFcgACIAACIAACIAACIAACIAACIAACIAACDRBAM6VJuAhKAiAAAiAAAiAAAiAAAiAAAiAAAiAAAjAuQIZAAEQAAEQAAEQAAEQAAEQAAEQAAEQAIEmCMC50gQ8BAUBEAABEAABEAABEAABEAABEAABEAABOFcgAyAAAiAAAiAAAiAAAiAAAiAAAiAAAiDQBAE4V5qAh6AgAAIgAAIgAAIgAAIgAAIgAAIgAAIgAOcKZAAEQAAEQAAEQAAEQAAEQAAEQAAEQAAEmiAA50oT8BAUBEAABEAABEAABEAABEAABEAABEAABE6Pc6V+QO8/oEJBoIMIQCaPvzKOpQ42aaq7l7qMf6O1/eNngRykBOrvDqh+mN7iAgROHYGNu7YO6vqiRm9PYCnRVv1KayeT0yI3PjU8AQEQAIGjIXDynSuHe/Tkm2HqUQOZc19WaRtOlqORHqTCE4BM8lyO8umx1gGcK0dZ1WXSqv8yTyMX1KCzb5imVuD0KsMP754cAid9kIy26svaUTA56XLjU8MTEAABEDhaAsfiXPGUt/GF1/zay127X4DfL1WsL8QizMCjnaOlqFKLL9dFGhgapcqdKj3fOYjOa3z8zher7l6aeskl4w8COebyWWye92nhCz/9cLwx707TBpf9Fj5rhm0ny2QLEZ2oqI5XL/jtypWRlsA8rNPuL8v0+M44jQwN0/k+uy31fDxMg0MVmpit0uIve5ipcbhFc5/ajLr6vqUn8Sq4JdWGSI6IQH2dJpw2IfqhwR+Pxz44olKnyXh92kmauYK2mtZjenFETDpHbvx+NGhHXrhMg9fGaaq6QtvvUmIFFyXi98YoAZv0TY1GvXedPkf/3veJ7J8f1Whjr56T12byGUj7JOmCHDL4CQQ6lcCJd654HYFQXGPLxzL9lc2LVqQ5f3uufEsLr/OUqxSfRuMXHVLzzhVbSYfzDOcKW0/HJJOdqnjana/jrQPfGGqpc+XwgF7VJmlIz8DI0S2mMdrSPLS7AtsRP2v49tPMZjsSQ5zHTaC+Mul9eEnaw6cP6NUZWBLm6cCTNKBCW/WbzxEx6Ry58ftRsz8LX/fT4De1iBnsjcYvbOEWOFecfvvctQe0xk6kbCaftt2eMjtJusBvCXgCAh1P4MQ7V97/PJ4uCdKKY6i6dyzgvU7JUZ46f/zfyzRRMEW9mfhb7VyRZbhMUy9dpxCcK50kk8fSEDog0eOtA98Yaplj42CdZq7084PGAn3Tsjx0QP2mWajv0/ZqjWZujdD52QIvifjye8kxNvsmac1VYWnkuGgJgTJ11JIERSQHtPilU9dp++gPfGxoWeIdEZFnL5ykARXaqi9DjTIp2f46R278fpS3nQPt/NIkPWedFRptM/G33rmSlK3vOi14w5dm8hlgc5J0ga4u/AWBE0TgxDtXiOr06tF1OSW+7xMavb9Ob4/pq5TXKXWLpTRiar79z52+n3UYnGLNpMmPP6A4UyMy+z3auSKmVzr5HRy6TOeYOPnOAM6VTpLJTHrO2tVx6gXfGGqJY+PDJk25zgGnXZ67JHXNADOrpSV56Bgx2qSHVz6xHet3C5wrIu97T2ni6sXEOXXu6mTUjMGOKfKJy0iDddSKcr5bpjGnbWT9bC/1fLdOp92n5tkLJ21Ahbbqt4RSTBprf50jN34/2sXZp24/YLb7L2q0GxwPMPGbYXOv450rcnmuPQYYzMvzpWnasPaNbCaf2RjA1H8ndXNrv0HgCQh0JoEOca4EFFVnMgvmyuuUQlMHxV4Jq/doiFkP3pMzQIiOP5hD9wdGaYfSz8tzKUOVc74cf/23nq3LGvdnh4Dfrlrh2Hj1/WVmxspFGrm/Qtv7zFBR7cny8Kbc8LsVeeicOvQZd4V0V+dk+ozl5PjqaLc6YrWVka+/pUFrsDRJz5kmc5oqyOvTTppz5TRVxrGUpbH21zlyUyL/9T1amx2xne1Je8+bpVYi/tj6Y5ZuBfvdZHnvtzRg6SXpDCk3+54pB9p6bI3hPRBoCwE4V1qI1euUQs4VlWb9xTR95CpWsR48kKey8QeiMR4zSrlggFJ/Oc10BuMlNoWEc8WoAFyeSgJ+uwoaWLHlZzfn5Jbl8RG+36rS3FLuHGk+YMc+9RnDudJplXVcdbRDj4fML7af0dwvmzTlfMwYWzrdOxl79gIGXJ3WQNqcn8baX+fITdn812ntzmeWU1XM1vjo+60A57LxB6IxH5dxrqhwu7XrvlMoZxxgJievmXKgrfuY8AQEjpAAnCsthO11SgXOFSLm9IqcMOXjLyoco5QLnCv8WvYym0LCuVJUK/j9pBPw21XTzpWtB74j9s76SQfVRP59xnCuNIGzLUGPqY5+cdqK2sB2466zV9GXy/S+LeXujEg9ewEDrs6omCPLRWPtr3PkpoH8c/1k0KZtIP6iumvAuULcKVDd12kx+lsIUw609aKawu8g0FYCcK60EK/XKeU4SmSyjKOh717w2OHy8RcVjlHKwY4oi2t3YdT7OsDv6ZKFya6YMhdyykK366r1bNuVU8Tb+QT8dtW0c+XltNfmRvyd7zofTcty6DOGc6VlcFsU0fHU0av79tfrj+6rL9cvp50vxCP0+LcWFbUDo/H6NAy4OrCW2pmlxtpf58hNA/lnnBs9wY3OG4i/qLqY9GP6/rU75kw7cX2dFt4UJaZ/Z8qBtq7h4C8IHAuBk+9cYZRZaKCf22kcHtD2s3mqXBuWm+OK5TriHPobk/R4Nc6F7MVf6DRgZq7cfBr8mlY+/iKZYpRyhHPlbe26N9ALMfdz0KxzpU7b6TG0F2nodsyRe34u3CctZdtBMpmW890ObSxVaerWKLmbqYlNUEdu3aOFl3tUD27+JmPy697YL0fs8fGyRlM3hinbUPUiDVwbp5mlLXpfEHeaV/MiaZcq35fkRqRyY7Z+On9lmMZuz9PC6o4fd4k6SJNL9ihZoYVHkzQ2ZJZB6YKhCk1UV2j7XRoicOG3qxgDKxCZfLxTdfaM6KWudn15P9ih59VpWxd2C96jVJmt0dpO8XKKtsgJ42CyNulzl1gyR9B77TxkhBbIz/udFXp4azST86SvmKaFl4G+QjB9NE4jxkaGYqPDkVvz9DyCpycbp7iOvLKWeeAtnxNLglQEzBfi+L0NCtr0O75+x25XaS16kCTz+X5nkxZV+xv82JxtIzbIl21wY694w5h8Wd+jx1fdAV2FFgt1m8yjNwvoapV2uXoSXFRZsj5B69NRqtyp0uIW32by888lRlTf20z1t3VwQLIRaoUmHtVo7bdidlzsvk4bZU52MUPW6flth3FI36hg2z8O27bV7RVr4+VCJu3WkSE7+do4PXzG9MMmjtLXfpsrdKAzM1cqP4f6qwbiLyoD02/E9P1evcK5UkQav4NARxOAc0VUz2/L9FXRKRxfVmnb2sHbr1dfQRoDT/91otfzzoCpn8IdAVHp+Lk0rWeNdS4bs6bBJ4yHIiPDTLQ55wp3xG5PjkPKTDnvuqVsmQ425Hzy0tXGV4tksv7bCs2NOaeqMINQPUjtuTKde3yhb2AqGT/YpLnPXbmwDcuiuK36OdyntUfjNOjsk6Dz6f71+JaoAzrcp43qJA0xJ+y46cj7izRW3bGMXivv5LerGAPLjsO58waNgu1nVFnyzm10Apa4Fczvj4ZPBkvlpp8Gv8l3arZFTto9cDBRheTncI+efCM3COZlo5cGvn5qnVDxdmW6QI77aej7rRx5MjJ2BurIKG3py/rKpD04VUuCdETurJYu53f9nv833KZ3l/hNKTP5KNIXIrU67T57QKOWM8XWn1l84nk/Dd5ZyT0ZMdi3qMK9X6rYrLp7KWofmkN//xpPv33YoYWCdpKWR/d5DvSi/Fuv76/T3DXT+Z7DLuIDkhW3vmF0Qp69Rgynru68jZR928iNv5BJO3WksEmuFPTxnz+gVwV2ssZZ/Ndvc0XOle0fHOdU3zg9CToMy8dfmGdGRry24UWyT4tjrrxO01r0xyimHIE25SWNByAAAm0hcOadK7t7NRqNHMD1OF8R3BrxOr68mSsfdujhF7ZC7RnLOzauQ5wrzNe/xEB1YQTvfQOiK4+TE4/PWDAscGI5cXC3frxNxMl0sN7gX2XCS1ccHdhWmbRlLjVw04FzL3V5RwFmxNhBc8QRwWk6V6u0XWQ0fNgqdNSk8al8e3xL1AEx77rx+/f9NFoLOTZ8Y6fYwMoYh67404L6aWi2BcfPf9ihx2P5hrPLoOfKPefIyCznbZGTdg4csqzLK0Ympl7s0UIko4G7m4mzZPenSoSzSrTJfMd6kqkzUkduVcTfH9Dil7Z+8zazdPdj6TZmtuQmxLXpPWI3ozR1aXrdTxMreTMm/Pjd9sbdaznjss71LW/NFzmHbcxsOG95lTPjpUx/IPgEBoKF+ddlKdFfJgwbda6Qu1FyL3Xl7XvFzKIQ7dzrq3Q56is0kcqLkGOHKzE2oMuuTTqylE0ytkyWnOnylf7LtImcuqu/nqdRi19eHy0yUy7+qOwz/UZh388dG1/qgyFTDlcuojKPl0AABFpF4Gw7V34/SRN6amzfJzR0a5pmZu/RzO1KNt3bUtb5hphnDHCD/g/7tP3sAY24X8lzBrS6sqPi1y9H/WWUck7nJaLcrfpLguKnVosYmnOunPqZK22UyZ6PR6hyZ54Wnq3T2qr4t0ILs/zskIHADvv+oPlbmritB+UXaeDGpGxDd8ZpKPAVNvfraJ5hrpbpJW10VixbuZwOXD2DlTFyvHd0G7HeVWWoLitG67S2VKUJ7qto8KuY364KDSydl7y/uWyGqfJohbZDM6Dz4j3knQbnro7TwyUlK89qNKOOdDYHeR/dWWdnXLRFTn57KmVL6OjZcRqydHMvdV0dN34X79yjJ86eGp4ODRmhlkzIAfvoF1r39dP5MSnnU7dGsmWkVn5G6PHqcua4N/qXiRuZ3Josc2dRnKE6yhPV3N+8QcpnNOceFMJ8HOj5jpdhOy2/TY/cnkxlUOpWKXMN1a810Oun85+P09SjGj1P9PQ6rQXaX1f3Zb+MKuMxsu7N5OkuOvmvTmvfaX0v24XN74Ce3LR/FzLe8/F1mjB16uoyPZ6dpDGx1DPQBmPyn2wGysw6FrprpraS6fBnNXqo+6QCG8eud/vu1ff2fj55H5a8JT5KPwz+uGNHqu8279l7AjFcCpm0Q0eaNkl31seHdV++nayLW/zXb3PczJX6mx16zsy4zHM8yrTj4i/Op/EG12/U+GVvSajDA+aEo36aWM1zxBrpJZdMORjZcUPhHgRAoH0EOsS5Yn9tsgxO02DlOkVGmYUGUV7HpOI+92WVXrmDkoAx28PlQdVPKP5geZL0xb4hy9Y08lB1NxZ/L3EdkkyDUcqh8tX3aG12xO78Rf5jZiJYBWrOuSKmTx/NniunRyZ7rnxLj0N7QYi6OVinKddADWys7A+alYEtlhO5ewsIw+HuZW/qeciYFnX7PHXUGPz7RmhmNbAfTLKk51t6uGkJGXGzUUJ6Qb57kUbu5zsndhf8IxNHf+IMJ79dtcS5Ioq4v0ITbl2ZOrJb7kP0KjgV2uFERNs/jjh11E+jgc1y379wj2IfocfMWKG9ciLK4DMO67mszJ4ODRmhTL+S6PG+67TgOGyoaEncpWlac/uX37gZk4wzQGX9LNVRVlvlrnarjhwHjjP1Bsh9k7RWOJZh5E3132NVZj8ptn5zZi0k8iyW21Vpw9WjBga//fVSaMPOKFlnZle4S1GM5Im82S5OmZh203NrOXf5Eh0csA7aqPx7s2h6aeh+/hK79weFlW0V2brxZj6FlkSbds5n9NGnRn8W0DmuM4ZzwkQxSTPMyGzIvkvDMLNjVP/S8/kD2nD1WED35dnJRlIFl0z+rb7OYGo+vzBCE1HLZRuMn9nLKy0II//Bvv/dFi187dtHRTPk07TSC6YcARlLg+ACBECgrQTgXBHLMELLFD6s0IS7ZChgsIla8jo+U+Gz15ep8uNTehW5wVr5+FXnE+xQGaWcbPw2TINDxj9jE0bTUSSWBXiDhkJxNY0O3Tk2sQSnML24F1rKlulgQwN7Nt0WyuT2av66fE3HX3/PG43soPnTaVoLrbM+3GE2Tgx8Hd16QANuOxGD2dDqG5157m+JOqD9TXr+OsLgZr5689PC/XYVNLC4vBc9i9rPQDiLIpYLeYOlXsr/4ud/uU5PYzHy3VY5SdLxGbffufIZTb0IyMlONZ3FYOrIrhz59dtcL7FycsbqyBCjEpf+kg1vSZCOraxDISRv3b1BJ6QIIvZ/6XH0WTBPtENrK5yjVmda//WXPnX9vsZuJuv1LeyAi9nYNmdJQn3VKZO7Zw2zLGXqhc57ub8x+ff1DN9vlUs5521mHxXWGXXwlCpp3Y/TV1+bs3m4fVfcfTd4R2sMkyz3LdKRohx5fTyn+4aqtJ1lpMErJv8pU207On8vjdPjP27RbsgesXLSQPwq/ZA9x33UERuXW/a0sK2tzfmzMpz7Mmc8YuXdvGHKwbZ1MwyuQQAE2kngjDtXiqYvMru952xI5nV8RR2B8buYXbCw5X4WsKu+4fjLOFeMPFmDBOt55MDNzr66g3PFxOLXaWtl0kwr95o5jYYzIHxjtngTRPeLXFf3MDPbwR+0iw1bg4PZ3MJQuZkrRXGlvzP6gDVifGOHHTSn8TZ28X6rVrjBYNelb2khx3EkltnZ7dxf5+/l7oVzLDRjSLdPTnRufMZtd66wda3zw+m1XuIcTzoE7S87ewTwswzPWh2lfMpceDMKOB2jI/QdMcUnbzHy5joWdPT6r7eHRi91FezbpoPm/fX1Kf9xwutbAvLrO/kCzm/ydbS3JJhxXIWWDuaVUfwWk3+/beQ7vIrSLP6d6QOYOrU2Vv6iRtvWRsvObB+RqCsrgY94MUyyMjAyG7QFs1BeGoUbHXO6j5fJLJWYKyb/lh2aOSXsPkw8l5uuezPSrWQbj5+zjZKomY86ft6YfPcN01c1Zgacld/QDVOOQFsPxYDnIAACrSVwtp0rgaUPJmJ/kBA+f97vlMTRiYzXOrAXRVf3RRr7KfyZ3o+fUdJc5xPsUBmlzIU3no1+v0m7gY+3Jrfwdbs64nCKMb+0lC3TwYY6Yy/dFsukV/YPB/T+zQ5tiP1WHsn9hQaH+D0guDxz7WGx6IMr9zXzpZuzTZpxZ4mFjvd0g3L3JerAC35Yp/fvDmj3F7nfykyyv8sw2ceiqrbHGjF+u2qHcyXJtzg+enWeKlfzTsq4TFMvuUbLDBRiNiP02PpfYtsnJ7q2fMbtdq6MFEyh8tqy2CzV3fNDZz/5y8i8p6vPXh1ZiCJvvKOBGYefGZXvoAj36zKcL2+h5ThZOkxfx+qLLIR5VX93QG93NpP9Vh7O3qOJG6Ev3vxA1pPHUNrMzCh2NobrAOgeocfuEjkmLjnQrVLM8dFm+aPy/xs3Y0wt8SyxNNJMt+jacpwI24hxhJjymCzvsWay9JK35MfZbyW0rCaKSVoAX2Yb0pE5HxR1Ut5SO26/Qf1y9F8m/9zM6qHhwL5XvdR1oUKLQZOaid+wdfOcIpxtlBTL6xuLbPTLNLHU7BHWTDlCbT2aPV4EARBohkCHOFd44yCqYIwyCym+ch2TTJ0bJCwE1kR78ed1MO/4TbhKbVCXF38UPEYpF3UufcM0FTV9OZQBxuBsuhyhtOKfl6q7omg7SCaTrL7ZpIW7oU2aw50/14789hDRdmOcKwwzzwAt4m7+zsTHlScNcnhA28/mqfJ5/LHVifHFGjF+u2qbcyUtANH7X5Zpitt4N2nT3N4oe7Tw+3D95xmX9m/+wLRtcpKW12fc0MCBrb/AzKeC5Q1+mX2nU5r95ILRhZ5z5ezVkc0o4o4Z0BfqDmZQ7s3CsJL25a24TTP1G5I3ldbblzWaCm14HOybeR3s9Wk5aZvOgKRtF83GEHkJnCz09id/byqtL85dqtBULe4DTVz+67Qx6+9bIdOTGwM/fNbs4NUSBCLHUeLPxNyiuXSPFe1gdWZLOXVhO/vCG5rGMdH59WW2IR1Z4KgUqfm6z+8TdK7i/5bL//udFf447ksP6BW79L9c/FH5ZuwOLfvBvxcq9Dhndmlxukw5HPkqjgNvgAAItJIAnCsFNMt0Gl7HF+E0eP/MWcMsjJbAmudG4s8vHqOUTeNefBV/WaWvvA0082fY5KfJGJwRnPLjbP7XlrJlOtjQwN5LN6JTjJfJOr16NJqeqBPs3ANGO5dnP23esLdqJMa54ny5E3ltdK1+knaJOqC9p8XLawKM+M15/XZVPBCziDV18/7lvH8amci/t/m0n8+yMiLf9w3ptslJSobJu6m70vfsi+j2VkZ+VBLly8zoQq8MTDlDspj7/OTUkV1jxXfeTIJcDjnORGYGQpa6Xw/FbZqp35B+/7BFD4OO0Zw8J2XldXC0rItCesuqXMegO4Mq7ABINp2vFh1BXryBeHT+D/fp+Z1hb38bS5eJZRfVzfyNdbPKLrjy69Wa6WMuse2bpg01sLdnd5h8xQlLZh2bv9lZiWaSBPNltiHnSkhmjaz5us/XN8brkZcN5P/wgN0U36qfNPUG4k/DBi6YfsPSE3VxWug9GnJn6fYN0ww7uzSQjvWYKUdEnVlR4AYEQKClBOBcKcBZptPwOr4op4HzRSMxlvjOtbH48wrIKGXPuCeiDzv0eMzckE0YAqGlBnnpid98w6QrilNRvM393lK2TAfLOSpEjr10IzrFWJncrTFfENPjjKu0uLpOGzv79P5dPXqPEj9t3rC3aiPGuRLzjhVpwU1sHQSONz53aZQqd+7Rw+Q4zy3afXdA7+ux9eW3K8vAKsh6S37mToDqdtf6+/m0BiTRg1TfkG6bnKRwmLxzuit9X15Et7dY+THiL19mRhd6ZWDKGV0v5oDt5NSRgTTiktngtSE+glXefld+PRS3aaZ+Of0eOpnw42Eau32PZpIjjDdp+80Bvf/AzRLgdXC0rCeU/Y1tJ1aMpYTukqCYE5berNND5vh2S8dcGKWHvxjpGDVeLv9E77fyZu7JtiD2tnsSXCZiJF5w6Z1MZcz0MfWAtbzHOtnI0MUu28DHNZGlckx8mT31zhUByXRuaV1g1E9WtY3xycIzV0y/weoJ7tS/nM3PmZSMR0w5OD1jhMAlCIBAewnAuVLA1+woQ19pdRRexxfpNPDD+YawSMN/jzeqdH6K/zJK2TPuVSzvnlLF87ZP0vOoXdnNnDAGZyQnM5ZWX7eULdPBHrlz5d0yjWnDIvnbT0OzOafHRObZbw8RMhjjOGFmrrBGSWzFR5bn1f3P7A1dxQawORtLe3LCGjF+u2qqLLFldt7zN6rsJXvfEHP6uhqI335Kb4UjqeS/ujPtum1ykpbRZ9zSgUOk/KTZYafGF7UNRhd6+vfs1ZHJtPCaqSdr8G7pQNPZxF9bg2ErcV/eits0U7+MvvDaaXL0fHgjq9i2FaerskJ6+TAGpO7GsbkbNWdRyqt3O7RWm6axwAkp4kStRWapddn862Tre1u0+GichkJ72126Rxu8P0dHUfzXHcCns57sWSh5Dqp06ZqzCXCeXJVj4stsS3WkQcmXSd6GNYJEXDaWf0qONXfaN9Pu2Pc8/RuRTfMVRh8F65M7HdGbXWpGHrpmOLHlDYXHcxAAgVYTgHOlgGiZTsPr+CKdBmt3nI6gm++YGo0/XERGKed0LsLAco+W7DEMsHA65i+MwRnJyYyl1dctZct0sEftXBHr3q1BxtA8bTsDYIuhY+CJsFye/fZQNIAkohjnCndySmnZMkoUVQf+hqJfPcuzum3DOeHLGjF+uwoaWEaWW37JcLeNa/f4z14KHetaNm9tk5M0Iz5ju2zpi9aF187Z+gvsueJtwmxFzew7UNQ2GF3o6d+zV0c21fw7bwZBdz+dv8JsIs9tLM9thBmckeHLW3GbZurXkze/fgd/2MkttL28RNgOvJxFy7pOzZ1BkW5k6uo9ZiNbHUfB3/reOrsvBufUKp1/Ju33v/AnqhXXHROZ9ch1eqrTqSyG7qlLDkclC7sLo0Zfzdt+OulyTHyZbamO1JliHcv55TCC5lw2ln86XKcp16nqtTuRbIPx5+SYO4o5T9Zefe/vFzT0Y37795NnysGW1w+JJyAAAu0hAOdKAVd/kBDuNLyOL2D0WEkeup20MJbcTlmGaCh+KzH3hlHKnnFvhhGGoLs8qJ+srzPm6+w1Y06O6B0AACAASURBVHDGcGLjat3DlrKNGtjLvHvpRnSKMTLpxXtnPReWP0g5YucKccvjwm0ttzDix5g68N4ZpdwDYZiNMztxzxXNhtuLIv1aql6yN1IUuqfxgZNOV/z1ZZQfAJphopxwaYCyuksG9NpFqL15ssG3hzQ7DZWZ0YWM/j1rdWQyzb9mdEY6gyA/pP7VZ9sb6M98ecsbNMn4mfr15M2PN3+vKX/5TsucK95Ry2pfFXcD12ZOcRNgxDKoL5wPSr+v0a6uFPU3uq064bzbD+s0lW4wq9It6A+9OJgH7ibAoz/tk6Vzvbomsh0pYvm343Ap2Dy2HBNfts6Ec8XbPyi0j2FjfBhRyB4x/Uaunqhv0oy3pyG3+XyWhH/FlIORPT8cnoAACLSLAJwrBWT9QUJ4wOd1fBFOA3ZfjIBibCT+/OIxSpkx7q049mo06n4V6CuzPIgxOCM4WXlow01L2TIdLDcLRBTDSzdQ92aRY2SyVLyc8XnUM1eIiHPw9IzVaDdvxo0JxryOqQPvHWMdvBmXut5dcGYDiXbA1pffrnINLCYt79HmPH1V26L3sSy4AUw3M3BkZiw1zNzItC+jR+BciRgwRbcLTzaOz7lCZ6yODDHKv2QGUR99n3v2tR8fc2oQfwpOI22a6es8fVEu3vqLafrI7X8D/We0rJtUHKY9363T25/HjZkVvTS2dGCGsK8/1Clv7p9+2dP1ffdoQ/+o/sbkv/4hJjWite8cZ07MkfNOfrxbaw+VXuq6vUJrs9nHJ1bnW225n2Ze2rMsiuQ3hkmWT1+2ulqpI7OEGGd62E42ghVcMvkvsk8D+xexddEBM1cEALZNl1oexHDy9EwBavwMAiDQUgJwrhTg9AcJ4U7D6/gCRk+SZH2P1u5zJ7mEZ4KUir+gXPJnRikXdV5EtP3jiGVsieURH91ZjzKqmt/Qtk7btUkauiCMpYs0dLtG26X3ffHhtJRtiYGZl25Epxgjk/4X2cs09YIxig82ae7zzCA0lxJxDiE/7RYOmgNOHrEJYXAflPoebVS/pYebTp3G1IE1hVsa3yHHwu7StzTgDWqO0Lmil/hcGKHKbI3WxEbE3LhCn/B1halTdskDMwDs7qWBr2v0ihGXlLI+uvoHF7x8o61ykiTBzPiL2BAwur3FyE8Ko9EyM+xZ/cu8d4rryMEavHVnDiQb0pb0rRBxM0EqtPjOTdbvK/kBmxmOqTdPvzOzby5N0xrT9t5vPvBPGUl0Eq+Do2XdzLLL49NpmrptOib4zfbTKF5O07lrD2htj1NO6q3DHXp41YyTn1kQk3+hZwa/qdErr77SHBEdrNCEs19ckRPDCB2+dPuP30/TVDojRy0TckMfbtKUkZfR25M0mPYr+thmN1B2H8Mke7vNOjJLqCOcK6ElZ13Bj39+m46Z2WMU279k+o1iPSFO4vL769HcabRm0kw5PD1jvo9rEACBdhOAc6WAsD9IKONcuUgD3FrvK594e5foQe3A3c2gk8LrWNNO2TFU2OecAcYoZda4dyCJpUzeVMbPaOpFjkGVRsEYnHlOqDScvGD3fcnZXd8JHrz12XK8gsHtH5gOlnNUiEBeuhGdYpRMOl8gpXxdpKFb92jh2TqtPavRw9vX6bwy9AbGrhtGnpQnLs9+2hGctGPAkEsubsGj/nKad2J091KPPj1j9h7NzE7S2NDl9JhpL76oOuBPGun5+DpNJCd0rNNidZoqVy9KZ2LfdRpNjWfV5tj68ttVsYFli5B3xzBM6lSc/qR0zEDicAzpgn7ij6MkIjEbzTD4tS4SzsuBG5M086hGz1fXaW11mR7P3qOJG8Op3ISM0XbLiTju9bk16FPl7vuERsUJK7P3aOrWCM05vp/o9hYlP3YtlS8zowtD+vcM1ZFNNXDHLdEruSRIx+zXWy8NVd0jZRpp00z9MvrC21Rb6EnlRBXt7nltnibGtM1wmUbHhp2PG7wOjpZ1DUL99Ta2NfS2mMmS28sbeurc1XGaUnp0LdEfK7TwaJI5Jp7/oBST/6zu+un82KQ63U3oKqWv7ozToKfbyi67cAClt86SHoNTV1AWbb3V02cMqo1jm9MknIsYJlkQO61Ur7dKR2YJHZ1z5cLltL/T/V7yN7R5ce6pln6bThmZdRm65nQ1029E9f3cgRFi70VXDRnMs0umHIyeyd7HFQiAQLsJwLlSQDjrvPWgpYxzRYeJ+zvw9dPcJRBexxpS+uxzzgBjlDLXYTCM2KmMl6Zpo3AWCWNwlnCu8Ay4sjGZznnkx9tEnEwH6w3+VV68dCM6xTiZFIafYbixMqHkUtTba3+5F5dnP+0ITobBrY0XLm5dPW9XJoMOFh3e/evFF1sH3I79LKt+Gq3t0dpdpy2z9eW3qygDSwPg/jIMXQbh+4s0Vsu30vKcWuF4e+n4nCtE9dXJoJNa59mVi+j2Fis/Rl2VbxuMLszRv2eljgykwUtrbwvVXhuejcDUdZe390UjbZqpX05fsAMrR8+oMoqPL9s1d3kir4OjZd2l7J00p/OSd1S1iqQBPRX6oBSTf7/N6byG/ko97ha50fuQI4rboFen4Z68pHWVWFaU67hq4GNMW3WkLhC731TYTjaCFVz6bS5lxfbRbp1fpq9+zuv3moyf09WMLont+7llx6GZtDY4phycnrED4Q4EQKCNBOBcKYDrd97hTsMzBqI6APGVapTmVsNHL+osNhx/kg/OAGOUMtdh6AxYf/mpjAOz4Zk3MjhjcJZwrmDmCrdZaEAmP+zQ4y/VrIuALPZ8/oA2xBR0xihwB6ai/vz2wMmVJShxpwU5Qei3ZZrQM0YCec8MrYveDIXY8iRlWplmvm6ahtpl+mpJGmleG2SNGL9dxRpYLob0/rcajQa/zpl5ta/PXZ0ML6lKI5cX9df8yRoZZztu8XV94o+83joaOanTxuxwroPFleG4+otvDybC8mVmdGGB/j0LdWQy5a+5GWfFSyr4uMTTQHy/mCEaadNM/bL6gqj+ukpjBTPPhr7fTPZcipWzaFk3i5lc12ntO8Yx7zmcvICsrg/qj75h+qq2E3QoxOTfZ+HoKLPvEHbWC15fMSWJe8T0m13d+Xt3cX2TYBRzMEAMEzvjbdSRRkJ+PQRsEiNM8aXf5oKyZNZzd69cmsYc722n2Xj8ST44Xc3IQ3Tff7hDj93lct39JDZKzv+PKUdAz+THg19BAARaRQDOlQKSZToNr+NzFH7WMYjlQqNUuVOlxV/2qB65SWV8/JyBwQ2CGaXMdRghRuwXt8s0s5n3/YUxOEs4V8RyAOy54n65zDFkxB4cq1V7KYdYSnJtnB4+28k2SGWMAndgKsTAbw+cXDkCw3zN5OJ2QiW373dW6PGdcRoxlgCJdnTu0jCN3Jqmx0tbtMuJW2R50jTfbdHi7DiNXMqcUSKNsbs12jCMNK8NskaM366iDaw0Q/xFfX+HNpaqNJMwGSZ7KZA6hvaGnB7/Km/fAz56IiEvvyzT49sVGnSWL4plWYNDFZoQy4QK9NZRysn7rWWauTVqsRB5Hbl1j54bdSeKHFd/netcSartlNdRSDTT50zbDi/DSEPlXnAzED66b27g0kibZvo6Vl+orIl92KqTNGa0OynH8/R8J9uEJbZtRcs6R4ZZVuovleICEtX3tuRyymvDNGg5hKV+Eu1yYdXoe/hootvq+531ZLnR2JCrD+Wy7LHb5eysQHYCj5k9c9IjrANB2JPx+BMi3RgardO26Egjc75M5tgkRrj8S7/NZTa0Y+OK5ULX5DK0+H6vRPycLc/ZyoxuKtX3czNp+67TotOP2dyYcuTpGTsw7kAABNpA4FicK20oB6IEARAAARAAARAAARBoloDnXOE2+W02EYQHARAAARAAgdNHAM6V01enKBEIgAAIgAAIgAAINECAWSYVsR9IAwkhCAiAAAiAAAicOgJwrpy6KkWBQAAEQAAEQAAEQKABAr9VachaBtFPE6vc2ssG4kYQEAABEAABEDjlBOBcOeUVjOKBAAiAAAiAAAiAQDEBZqP6Sw/oVeS+cMXx4w0QAAEQAAEQON0E4Fw53fWL0oEACIAACIAACIBAPoHDfVqbHXFO3+qPOsUmP2L8CgIgAAIgAAJnhwCcK2enrlFSEAABEAABEAABECB6s0yVK8M0dvtecpqcffKYPI3lozvrwaOSgRAEQAAEQAAEQMAnAOeKzwRPQAAEQAAEQAAEQOD0EmCOjTWPuu0Zq9L2h9NbfJQMBEAABEAABNpBAM6VdlBFnCAAAiAAAiAAAiDQqQSCzpV+GvxmmXaxz0qn1hzyBQIgAAIg0MEE4Fzp4MpB1kAABEAABEAABECg5QT2n9JXly6Snq3S87FYIlSl5zsHLU8KEYIACIAACIDAWSEA58pZqWmUEwRAAARAAARAAARAAARAAARAAARAoC0E4FxpC1ZECgIgAAIgAAIgAAIgAAIgAAIgAAIgcFYIwLlyVmoa5QQBEAABEAABEAABEAABEAABEAABEGgLAThX2oIVkYIACIAACIAACIAACIAACIAACIAACJwVAnCunJWaRjlBAARAAARAAARAAARAAARAAARAAATaQgDOlbZgRaQgAAIgAAIgAAIgAAIgAAIgAAIgAAJnhQCcK2elplFOEAABEAABEAABEAABEAABEAABEACBthCAc6UtWBEpCIAACIAACIAACIAACIAACIAACIDAWSEA58pZqWmUEwRAAARAAARAAARAAARAAARAAARAoC0E4FxpC1ZECgIgAAIgAAIgAAIgAAIgAAIgAAIgcFYIwLlyVmoa5QQBEAABEAABEAABEAABEAABEAABEGgLAThX2oIVkYIACIAACIAACIAACIAACIAACIAACJwVAkfmXNn/738m/AMDyABkADIAGYAMQAYgA5AByABkADIAGYAMQAYalYFOddYcmXOlUwEgXyAAAiAAAiAAAiAAAiAAAiAAAiAAAiDQDAE4V5qhh7AgAAIgAAIgAAIgAAIgAAIgAAIgAAJnngCcK2deBAAABEAABEAABEAABEAABEAABEAABECgGQJwrjRDD2FBAARAAARAAARAAARAAARAAARAAATOPAE4V868CAAACIAACIAACIAACIAACIAACIAACIBAMwTgXGmGHsKCAAiAAAiAAAiAAAiAAAiAAAiAAAiceQJwrpx5EQAAEAABEAABEAABEAABEAABEAABEACBZgjAudIMPYQFARAAARAAARAAARAAARAAARAAARA48wTgXDnzIgAAIAACIAACIAACIAACIAACIAACIAACzRCAc6UZeggLAiAAAiAAAiAAAiAAAiAAAiAAAiBw5gnAuXLmRQAAQAAEQAAEQAAEQAAEQAAEQAAEQAAEmiEA50oz9BAWBEAABEAABEAABEAABEAABEAABEDgzBOAc+XMiwAAgAAIgAAIgAAIgAAIgAAIgAAIgAAINEMAzpVm6CEsCIAACIAACIAACIAACIAACIAACIDAmScA58qZFwEAAAEQAAEQAAEQAAEQAAEQAAEQAAEQaIYAnCvN0ENYEAABEAABEAABEAABEAABEAABEACBM08AzpUzLwIAAAIgAAIgAAIgAAIgAAIgAAIgAAIg0AwBOFeaoYewIAACIAACIAACIAACIAACIAACIAACZ54AnCtnXgQAAARAAARAAARAAARAAARAAARAAARAoBkCcK40Qw9hQQAEQAAEQAAEQAAEQAAEQAAEQAAEzjwBOFfOvAgAAAiAAAiAAAiAAAiAAAiAAAiAAAiAQDME4Fxphh7CggAIgAAIgAAIgAAIgAAIgAAIgAAInHkCcK6ceREAABAAARAAARAAARAAARAAARAAARAAgWYIwLnSDD2EBQEQAAEQAAEQAAEQAAEQAAEQAAEQOPME4Fw58yIAACAAAiAAAiAAAiAAAiAAAiAAAiAAAs0QgHOlGXoICwIgAAIgAAIgAAIgAAIgAAIgAAIgcOYJwLly5kUAAEAABEAABEAABEAABEAABEAABEAABJohAOdKM/QQFgRAAARAAARAAARAAARAAARAAARA4MwT6DznyuEWPbzST+e+XKa3Z7V63j2lry700+D9TaqfVQZnpNxva9epq/s6LbxppMCbNNXdS6O1/UYCn6IwJ5XDPi180UtddzdPUV2UK8qrR8PUc6FCiw3Jf7m0Ts7bddquTdLQhV7q6u6nmSLx+LBDC7dH6Fx3L3X13aMNIjqxXJvq/9GegjLeFFc31jbqW9b2aUV6rYjD5VBwv79Oc2OfUI9ol2NHZc+enTbQrI5rNnxB7Tf/88vpJmzD5pM/aTFIW3o66f9OWt6R39NH4GidK4myEAYj8++LmnSm1DdprlnnCpfOhcs0crtGrw7cSlSdEZen7l6aeqnf59/r+XiYxu4u0/YH9d6bGo0G4jLLncWr4zf+vlmmsZPoXEnLfplmNsNuIdahoMIWOQo27vqy0/PxCFUerdCurgMDZadfsiyiM30MBmN03o7yxZPK4ewYwrw01GnjPpwrLpv3P49TT3c/Dc0u09qzKj157b5h3h/Qk5v91NU3QjNL6/S8+pS26QRzbar/P6XtKbJvNKXCu26KqxtbG/Uta/u0Ir1WxOFyyLk/3KK5S73UdelbevxsnRZ/Wj+ij4WntA14qJvVcc2G9zLU+gdH6lx5T3//za/0uy/sf//Tzdf0t//w3i/bxp+8d9Ow3/zflH4rCbx38Zt/prl/zAZjb5b+KRxfmqc/0T/4OUmfwLmSosBFBxA4FufK2A/rtLbq/Nvca90sDeVcSdNZqtLM7et0vk90dvdowxr3q85oaJoW3TytrtP2O11L/nvPa/M0dUt9MdTx1vdow4xnaZoGu3spzYv6LYtXx38K/qbOFcH5Ab065MvEOhQiDUjpXKnQQ8XRroNp2jhhDhaWBY+NeVrCYPztKU3cGD+lMwRKcGAotv/RHj25XaHKkjvD6KwYwge08cM4DX1fNAWj/TXRfAqhumw+ZhnDPi2O9VKX/thQFO3+cuLML3JKF0VzOn4v056OTibfv5ynyucPGv+iGugbm4634Uo/an3LpVe2/rg4GgZQHHDzXuIgzf2IVhxLzhshPVSmDeRE35KfQnlsSeSnJpJgOz4O58qtHar94xt69o//D/39f9mhG7eks+Uv/6vjYFFOk/+1Kt51/v3yZ/p3XTvee3v06P/Yob+8Ycf77//61oqn9ndb9LsvXtOcFfd/pz/reJm/cK4wUPDo2Agci3OlfR2O4qicK2469RfT9FF3L1V+zjymRKozKjRmw+/peEd/cgdPRKQMIzcvx1bj7UxYlXXk5jgNdPfS0I87bGqsQyFgQLoRSOeKP/Wv/nJaplndc4N09D3LIjrHJQzGI+2oowvQohdLcGhRiuWiCeWvkwzhciUq9/ZpKmeoLssRCb+9RXOfllgqtvUg6dPORP8ShqZ+KSNnZd4tTDj3haaN/kDf2HS8ubnO+7HdbcBNm0uvbP1xcbjptO5ezD5rfLlvTD5C5SnLJSatRt8J5bHR+E5nuGA7PlKbTc1cMWedCNz/8Wc5o+XLf6H/ZuJXTpM/iDWoef+F3tPx/tWf7HhVXHImS/5MFTfZIEf3RdyDwBEQOFPOFe3osL/yqc6oCecKkexE2L0TzqBzZbS2Qxuzl6mre4QeM/4VqQSdfUYCBqTbBkLOFaI9Wvh9L3XdfEqOj92NoqPuWRbROSxhvBxpRx1dgBa9WIJDi1IsF00of51kCJcrUbm3T1M5Q3VZjkj4bRk/25dwgQIfErhXT/+zMnJW5t3myDVt9Af6xqbjbbhY7W4Dbsa49MrWHxeHm07r7pvr12PyESpPWS4xaTX6TiiPjcZ3OsMF2/GR2mwB5woR/cP3YpaJ4+gIOU3cKsp5TzpQ/on+Pl1DlAWGcyVjgauTSaADnStc52Ao6TfrNHfjstq87xMaur1Mu+7yk5DB+Yv4yvcZzW2ZlaXSa8a5criebCw6yM3UaMi5YpTXyGr99TJN3RiWy5u6e+ncpQrNvTRn4RgvG5fvt5hwL9xZNkaaMYyN+NNL0wj8sElTYs3xFzWvfljDwwybRuhfhJ0rqh6LNo5LOyy1aeTH/cmmkefH5mkjQWk+76VzVydp4bW1jizNlMvV238nfZOIDvdp7dE4DSXp9VLPx9dp6tke7YY2tP2wQ4t3KzSQbGop63pqacdZOmfUmZmWdS3fMff7Sa5deX+zTg9vjabpdYk9im7N05orJlbcxo0q38ili3JPpT7RNmvZXkTq1dSQODygV2LTTsVDyPLDTV+WXcaJzOfJLtVp7TtRp+P0xI+O6LcqDYlleksHREpPeGySPZP66as/GhFE1YfBQ11KeXX3CdKORUPXHWwlm5ImSxe7L9LAjQc8+wbzkWSHq6Nby7TrZPvtC7GMQW3EKOqRkYPYepTvueXP9rJK4zHykD4T+b2v28DFTNdbz/vp/FiAlSqvljG5N9M6vbX6C6MNFei9/Lo0CuBeCllfmqaxK4ppdz+dv1Ihtz3z8fuz9GT0gXatNkdOGaZ5yZM1rfvSl5OLt6vzVLmm+lqR588ZXZjqU6K3qw9oTLV/wXpiKTCLkNE1Y99vKqe4kU8zO5zsevolENaMh4iKZDJ5vaid6T01rlZp25InsayrXy6L/dfA/mtlN7B2+0Z17+mt3Hh5No3ZFEab2Rf9xoiySYTemqZFp7/0ZVFXCJcnI279mvp4pT+KRdVfGlZfGPHm5rlE/6GjNv8G6kbm3ciDGUZcG+1I/5RyMzesvrtJvJ5od5+i875Hb188oNGk39Zp6hxnf2PzWH9do4mr0mZIZ99FtXXdjk39aMiT15/6Oi7lm2Vb6YZp2oi0T0rbdUZa+mNvsB0bMuHp1pprC8qIY/puMwvZdci58v9S7Q+/0u/+Zs9ekpPjNMniJKKc9/70k9hn5Z/pGWNet9K50q5+LInXsJNG767Q7m9S52tdJVhwciYZGfJqQjvYSmz/QWUbC1t87L5rt8gA0j7WffRFGrpVpY0DOR7lPtA0Lh9mBnEdQ+BEOVdG7kzT6MejNLck92tZnB1JdmLv+W7dHnSqQVOqrIno/c4yTVzqpYG77gk8SsDdwaZHL/yeGCD3iFkav3mBGlwWpDsyY2S79YAGuvtp8JsqPU/2G1lOjJqxopNiks6+nwZvzqs9ZZZp5nMx+HQ3nZVpRjNmiqo7C61Y0uVSC7aRLZWN0zG7BiQXv9DVyYa2ZoeqXny3TGPdvfTR95bnzI8lkY1RmrpboSHF8nn1WxoU+/F8UaO12nU69/k9yepZlb4SDqK+cXqS7r0jo9z9qZI4+M5dm6aFZ0oeH43LeC45e78c7tGCMLj7hqnyaFnuN7Q0T5UrF2ng0mf+9GHtmBIOBy3r90eT9Aas8jFy4pX4gLaFvPxQoa7uYZpS8a0ZexzVX95L8t1zZTxN73ltmkaEY6fvOjnV56UgHiT1cmGUpmorSfkEU7E0rMdxdsm6/5am7g5nsqw5u22opOxquaPEieou/5PZfvX9Z9TVN0lrokN/t+Pv/fTzvcT5YumJ6Prw0bx/LWRjPpHNwTuq7lc3aTcxKJRO+Xqapq4M01dVm12XO3BrIh9EauPTC5n+FHU8+rE8XUbnXOqyfhq6U5N6RtTNFSG7dhuIrcf63iatrS7T1FAvdX05n/LWe05xhkcW9wiN3JfMFpX8f3R3hZ7fvUwDXys9uHSPhpK9tJw9ntI2N2LJpGjnPdbstni9l1+XmqDz93CPFr8Ug4eLNHJXMV1dpoc3h5O+y5QzM/6M1U5gJp7Zro09vV5Lh6DPtVjWLCdboieNPOs22nfd3rcp1afX6fy1B04f008Tq7blrJdvmrpmTejC2/o0FZVPx1EQp1/4sE6NUJFMUmQ7q2/eS/pkc5lxfWWSerovyw84av+1xTvD1NWd7RO2purIzVfw3u0bG4qXYdOoTaGdHT/UEr1l9mljSX9p9xm+LOqSMnnScVt2jd3PFdafjt76q+KIyXNs/2HFr26susn624090Q7scljBk3Zk20SSW4UqX1fo8Vbm6Df1xNH1KUpP3hynke9WHAe1VZLkJiqPX47TV19WvUMm4to6N2hV8pTTn5o6jpNL+SzSPkn7mEi7zsVkyQqjH4p064qtW2P7bjcb8p5xrtT/TP/wX17TX/zVa/r7f7U8yLlOEyv+kHPlw7/RH/76V/qL//1Ntj+LEbBlzpU29WOatTmuEn36uUuXk2W6qS1a2rkiZdjsH/U4d2DWHrvqvjQbg6zQwt3RJA/C9nadKzrPRbadUQ24bILAsThXPE8tdyqPZVxJxe4P9Or0/DbzlTppUO7X0k9oaJbrFJRC5k74sRwu6j1j41uxmeqEOGqvb5imVgxHiFkhyjAyHT3mz/y13wlvzIpyTtOao+PIvXcjfPOUHrt5+7BCX4ny3lk33i7J2AiZXrpGoJhFcEcMZm2DXHZgtiHhOmbSOJ0Lz7lyWKe3O8s0xQwAnaDyVslGz+0VyyEn8yQ24nUcI5yhpcppDozStPZqNNrXSx/dz5w8Mu7LNPXS7gxJf/20jmKu08bdz6jr02laczbn3V0QxzabMzJ8OUnz4V4k5XaYi3fqmzT1qXCC+DOM0kHGl8uBAV6WyMZPVW+WyvYPYlAxajlnNGeP3Y6cUWI5x0rKbtah7dHjq2Iw7+Rb8P7UrpusBAkMqU8sGShTH3Zs2V2onrTu8WVj+8cR6rJm2TWZD7Xx6YjrKTP1h26/7jsf1hMZMeumVD3qfa0snS7pyHhsZ6mO296zSZU/cdjZsvp+STgO7RmJMg57kJfUcLLvlvluWb0Xqsusts0rmQ+/fsU70tj5jOZ+MUOo/DCszLfSa6XP3P7F51pG1sQ4cJkeOzMQ6PV8sjm7JUNan7r648MKTQinl+nIeveUKsK55b6bFkZcqHw65Y/TL3xYG7kOMAAAIABJREFUK/r0JvRumXYm3r2c6Opkk3ylS20HODcITDMRd6HbpeVwKBuvX96GbQrlJEj2FLG/mxCpeu/5Olue68uiLrafJ94BwbU5LqyOl/ur2pXoawvz3Gj/kaWb6h9ryQNXDhWG6Z9lHGqWZRa1ugrFpbh0+zqnuT5F8fvUcWJ7+TIfFOWxQovORysROq6tc/JfpuxceP2M+QjL2CeyfnzOqd1k2XUmF/s62D7K6FatI1zhZvpuO3V9p5wr6ck8csPZ3938Z/r7X9PtafXLqXMlPSHICGftw6KcK9nGt3v06O/+mf7n679S1x9+o18dG1cn0DLnSjv6saD9r/qD7l7KbFEtU7aNI8vJ6bB9elJ1x6l1ev61GM8a478cu13aFY5zpWn50DWDv7EEjsW54p6cI04O0l8yeeNKKXbLGSCLKDcOswdwerp/ls4yPZ6dlFMZL1RoYccc5CoBN5wm6UlGxtf9NF+OE+b85/P5J9QooXaN3/wK8jul3aoYbF2mqRfZF4z8OPJ+VWW2nEclGXPR6wZsGoFKuZszGFjDgwvLpCGdK67jrJd6rnxLi9zMITcOPRh54fywU00GDt7SLrXkyxxYbv8ov0RyhoGIdeOu+NKvZwSovWDcgb5Kfndh1J65Ul+hie5e8vIh3t+r0YjliPTlxClVdssYb+JH8aU1GZhaA7wsmK6rxYDvMHuTudKs0+PMdUfjtNckqNrIk2njdsxh2fU7NMd4ezkdnmGWDnadfYJK1Yed0+wuVE+qLL+veUtzSMljqjeazUd9PRns5g1spVxP0nNTPapCrN2xT7CRchFbj6qczoBZRM0ZlqG4paz20oTzxU63i2wGwQ49FjNlHAdqUhTVnjNZKav3QnWZ1XZ2pfIRaPt0uElTwtkwa56ipPLDsMriNa6YNiZ+9bnmyJreFNfViUYy8pLJm07fCytmSvVSlyHbMk9Om/TSCMuK96pOO9UvJcIGnDhUtp2p/k04Al99f5k9Jc+vC68k+Q8CfWO5eH02jdsUSg649kVEyexAYyAQzqefp7Y7V0rl2ZHVgv7DrERZZvdjRo7uSGTZfl/GwelYkVIoLsXUaHdpvprqU1SdF/bPaWqN5dEMbl57bb15HcfJZZi5a58ozgHd7tl1Zlmcay4fySu6zJ5uFR+V7f64TN/tJK9ulXMlPS3oDf3XpX+h/+1v/om6vviVPv27N+yyoMxpkp0Y9KvpMFPOFdsJs0X/+VneuT9ELXOusIVVsmz2sUHWJfsxZaNn9gUnpzpTnP7Tv9l/pYwY+iHRRe6HGRVG2TjmzJXm5cPOD+6KCRyLcyUdMLD54wQu1JHotarZGv4kSt1QUqNLJSSm8X0hZifM03aatkrPcjSkPxoX/nvvXz5IpqSfM77SGAHkZYucK/Rhix5ek2tTz10dp4fPdui9+dXZS9h4IJY/1OZp5s44jQwNU7qWzypzScZG9OllwAiUU6X701OaPEUhIgiETeNWF9K5YkyhXF2njZ0SDqdENgwlpRMIpu8r4iQPQ1VDhnQk8q8un3RIyPCssyQdBBn5UfngZnfpZ5nizqkzO0vsmm7xiswrP6BOokh49dOMOf5z4xb3h3Xa/UU4Me/RxI1hGhzS60DttinTy/HiWzKplu40IrtqmVjGSq2ld+PXZUlmHPXTaM35rFmqPnRk7t9QPSmdwhmsrjy2IB+7P6vlb32f0OjdGsmp6lleQ45LLXfiy4k+HKBcPXI6XabLxcM9S94O6XWXVfpl3XfCpmVJDatQ3QT6luCgJuOYXeW3/dRhby2dk2FMwyiLj7kKMPEZhusgpHvre1u0WL1HM7crNDg0nO3HlLLTjAz9ZWRRylMmM0V6UwYN5DNKvwTCGnnKLgPvNtDOkv6trz9bDpQlklz5deG8UHTrybcMUC5eprwN2xRSRq0ZTEYZZL4ymQjnk8kT2764NsqFNTLhXZbLM5XtP5z0XAbyZ64cKiBjl2hu3mzlJEgoLsWl5X1KPj+n+Oq2gTyKkFFtXdsumX5J9ampn3TGmDak+eo+TbzKPZNRKK6p/SDLFm3X6Xwwf4NpJjLBO9dY3ep8+E37uuS5yYnJBDHLgtRr//6PO9T3xa904//8/7KAoeU+2Rvyyn2v/o5qf7tFv/urLZr7NTyAaaVz5Uj7sUg5k3ACOuxQLPmt0cPZaapcG6bBdK82V6eG7HYpm6YNUca2c6sQ940ROFvOlVR5ZkKaKuRUaYZAuspVvidmzvR0Z44DL7RqbPkOJTdUqFMiev/LMs3cGpEb+l6o0KIzFnRjSvcGuVShidl79DjZc+MpzYiTdawyh9PUM4EKy8AoFpkftXxL7dsgOxOzDso6V4o6CpeCcc8YMcmvwbwHFFVJ50qsIaoHOmOP5P4b6SyqZJ8dubdLNijOqTOjyMlloNyyLkJKWg+eCpwrHzZpJlmWJTY/naaZR3JviY3qt8nmtqbcBA0J/SXZkMnmZFc5U65W5awQ9UU62cjWZaOWZ5mzq9JXlFzE1UcayrkI1VOgcxWhXXlsST7EVKU9WquqWXxiDydjHW/SAQ9Oqn0zpKzZ8pft/1GmHlMdyxi9XDzcswRoIsO2sy557rJSA7SB7/QeN0xZ0n0vQnWjZd9NL+d9p9b11+WQAZ5y6TjnSp02ZsWeMGIT23Gamp2X+0q9rMrlpGY9BvSKQMEOALgv6hY3pk1E6xcmrBW3eRN4t4F2JvdeEY48ZslJanM00Wd58i3LEWwnZjHT60B5xX50JW0KLdeZ4zpNJLmQ+cqWr4bzyeWJa1/cMy6snQ/7josje8PNM+mN0WP6jyya9ErG59g4rONIBWHaUZibCBMqTw4XV45KyXoovbTIzEUoTE4eo9s65wjJidcte6BdhpmruFP7RJYt2q5j6OhHwTQZmdBhWN0a2XfrOOy/YecK0b/RH8Syn+//LQviOk2yX+wr7r3/2Ke//etf6Xd//S/03/7Dfl3ftca5cgz9WKScyXIy8rq3TGNir0Oxie3tezRTlTbMk1l7hruWmTzHq+dcaUo+dM3gbywBOFeYQR0Pz1Wu+i11OgCzR0byhmps5gBThwz/DXVKRog3T2niU9dBYvwuLtW084/uOBv+6mOL045CvJyTZmhQ4yTnDQjN3/V6+9srtM2dkMMoJTO4vnY7Ff08+m+owwqmL7mYiipqWZBYm5xkSk0nDUxHlnEZRtjBU6qElgV5hcypM/fdQLnjlgVlhrIbrbiXip4ZWLyYbty50grZTfbLkRtNJ/ty6I1srUJk+ya4e9wkr5WqDyti4yZUT0znqkO58tiSfOjIhW44oFc/iD18+knrJjmdP8fRZgTXnbv51U/+zOnJcDm5eLhnSdwhPeSyovw2ZxSjAb0Xqks7VnkXtyzIXHKo9bCpb7iY02cBJj7DcB14elvzdNfvM9ONuVNOdN5cXS3lK1+XpA4nw4EjyxKjX3LKqDOV/g28W7adqc1vB75focWb/Tmn43WucyVFEmNTJC/LNtBj1FEaB6klC2n/l/UP3tJSpeNtWefaF/csUH9ZRpyrcnlOAkf1H04y6jaVWWbPFXsZoAzAve+3YTMtjon4PYeLbtd62XYpWQ+lZ+bJvQ6FCecx5eB+NIyyJcLxejoutVvsdhlmruJObeZNmhF7SsXadS4a4z6YZsBmE0F53RrXdxtJG5dH6Fwhon//v/5EF7/4lf6Xn/jlQS1xrmh5b3E/JveqCrBWS+9Mx7OW6Rj9l2wpwIwl3WVmb38SttswPd4xqlBfqg+Jpl4tY9vpaPC3OQJny7lyuEMPxUaXLVoWlKJXm125uzknv6sGrgcwaZjcC6ZTYmbQJfsgGEaMF2VoE0uV36ObuSJzJmf5fEZTd8SMBsOhIH7WilB3/F5h5AO3Uwm8Fn4c6rCC6cu6MBWVPs7X25RVpKo2tDU3NUwUJvdV80Bt+mixOKDFL3vZDW39QjFy4r8knyTlZmag5O3FoQYO9ukqfgL8xohqtpK1R4w2tG2DRsboGC+tkF21ge3gjyvJckBzk2FdCnmiFbMpnX6BytRHGsi5kPXkG9VljMEm8yH0h6tD1PrgdK8StXnzqGuMOKURt0GDUBv3qREq3lbltGZoyEi5eLhnydsBRwKnO17dV6dwuUa6TNb4f04bYtML1aURpXGZ7mvhbmad7vGjTpZJw8j4LX2T/sZcsHnk6qeErG3eS04ymnLW+svlnc5GeUn6ji5X2fR0te4nvRP7zHL5+YzXL35YM2b7OiSTZdqZcsxeukfJhrZC94vNDJ32EzSu7QyF7wJ9U7l4GTauPiCiQpsiyaWS0b5Jeu6uyNV1bJxqJx34/d5eSaw8sR95uDYaqr8QxnJ5TmKJ6D9Cqem6WbCcK8rZ6p4Cd7gjN2C37ACuDZupyfIcXZ/C1YGZH+66fB7j2zrHh5FxnS2mDXH9DPdMRqHiTvs1fWQ34/Rl7TqdEf+vlhVv8F1Gt5bou/0ciCch58oh/Xnln+kvWrUsKE38f9Cz2V/pd3/1mmpWG5EvtMS50qZ+rL4qToTz9bz4YCUPWLE3tI3Xf+JDvb1PWUKD0w+/qQMgvA/nRNs/iP05nX66aflIKw4XkQROtXPF3dBWHi07TDOWoauUJrehrViKkU4fd5WrSVhMP7ucbDg7lx0SI19QSr1Z58rGXXGGuT5OeZ308cH2iRpmnsS12vW+zzmO9Mo4VY50WZDOl5rlk6wBdQxyxSk7WtCcyq+PrvU99jrm6L+hDovpfGWcyihzvtLpHbmzY9DWaVEdxextGvpmOTlBqMusB3HU8cfXaeqOPd0vSVM5aLqMo43XVldo4dEkjd7UR5aKN0sYPKp8PWMPkiN2F6pP6a2Cpo90M49/S49itk7OUQGcP7qzGbih5XOZ5q59QpWb4hQXe1lFvPHSGtlNBreXLtOAe8yzKIOulxvz6nhzU+aMTbaj68MBk94q3dF3nebEsd21Kj1JDAr13JGtJBgnj83kQ8Qn5E0dlS2OR54TeziJAVK6Y7/e7d48un2d1paqNHVrhOaMPazi61FCkA7GyzRRW6e1Zw9oUe3hw8XDPUtiCTgSOOdKemJDn3FM5uo6LVanqXL1Qbp3TG4bYtML1WVa2faFPq6TPYqZ2eNHteljda4oh2uXcxT8+ZvjyZHiVt5C+pT5uirAcHrzee1e7lHM8folpz3ZtZLchWRSO8iL9K90zH5GUy+yHaDliSzOgCvZfLCXBr6rkdDjcz8J4Vc2g1jaywwurOxyukC8wMZrhTRufDaN2RQiStnvDI5dpwHzaPeq2tPJ7TPqmzSTHNGcHTe/+KhCA1cnaULYIZb+4/o07pnaOL7b1ylGoY3LknlWIXP7DyN291LqMMfGEU7pn64nA7Nz+tjyZzWa+vwiTdz2PzgF9WCSWEgP+fWc5o2To+g+ha+DNG72onwe49v6cTtXDPsh1q5jGeW041K6Nb7v5rOhnCvuhrZ3thLHStcfdulP5hIetdyH29D22T++pTdaJXLLgnQG3uzSX/7Vr/QXf7Nnb5Yr0C79E/3uiz/RP+h3I/567aVt/Zgex/RTdqxxjaauib3sppNDJ8yZK+JEzlj9Jz/GmPFW6asrw1S56Y4T9Jizl0y7WxwHPXh32l++K/obcbKdWAp+U9vpvG0XgRqvRBA41c4Va0OnPrEfxDyteYaM6gBCm0GlHb96L/VcO3T10ZPuVwnVoTXrXHm7Mk1j6cZG/XT+SoXmnu1Zxwk7OZK3++s0d0NvLiocNFXaOFAb+1plyek82UEGkxrXebuv6QGt85VGD5CsOkvrJDNSvK+hbvxF96EOK5h3ycU2AGUibzerNHFNs+2lc5cqNFXbpLfMF0HaX6eHt0bovJhK2n2RBm5M0+LrerakxpXLN+b7cg3m4I1pWtg0j+3JqTOGw+7PkzQk1nOKvRRur1jHK9d/W6G5G8Mqf73U8/EIVR6t0G468GYiTB/Vabs2SUMfi+PCRdjrNPVsT22i26hzRUx4aIHsqo0Ju/Ta+TTPB/Tka5lfXubsfFNUfaSR+xd7T2niqtyQuudj/cW3pCEsYm00H/UtenxrNNuU9MJlGrldpQ1TnET8YrnQ0jSNXZJ5TWTlyqgnC54hk5Y4oCfF5pni2HrRpi+M0OPXMgAXD/cseTukh0Jt92CLFu9WsjL3fUKD18Rm4KbezGlDofTYukwB+BeH+7RRnaSRlKls/3Zb1sHC+ka/Yf0N5NFnWE7W6q9rNPG5qq9kA+QV2hXLOET9pX2i3pcm089m3kK6+u3qPFVSvSn7sqmfd1RfxuUzVr9wYc0cOdcBmUzeKmpn+shhd1mANqS/MI8Lr9OrR9dT3S8/iLTAuUJcvE4Z01ufTcM2RerU36P3m1WqKL2W7BNwd5m2uT7D1eW3a7T9wc+TdtxYg5M0PUdZ5dVfWm59odt5iTyLoMH+Q8fL/5Xtj2sXvizPvdhnN5z327CTFquHOKYqXEhPFsl6Elzzc+rAyZJ3WzaP5POJtyXKlZ3jyz2TZVJxWzaztFFK2XUeIPEg0I5DtmrAcR3bd7NZ0DNXjCOVxQk/XX/9mv7wx336s+lYEREop4l9CpA6vvmLf6K/1/ZsnnOFDulPC8KJ8iv959X/YWWrJc4VQbZd/djhPq09Gk9t3sT2X9qheqiNxeo/Ee/9zGYRh5c83jxIPkp4s/1FWzFsNWmzr9Nbrp8WdCNtO6sicNMwgaN1rjScTQQEARAAgQYIKOOY3ci2gegQBARAAARA4IwQQP9xRiq6tcXUe2R4S31amwxi6zQC+ijmn0o6IVtZDrU3mr9ksJWJIK4iAnCuFBHC7yAAAieWQDLNkt3I9sQWCRkHARAAARA4AgLoP44A8qlLQu/bpA81OHUFRIECBJKDE7o/I297iMD7bXms9ldJ99JrSyKItIgAnCtFhPA7CIDAySSgNiTkNrI9mQVCrkEABEAABI6EAPqPI8F82hLRe9iZhxqctjKiPAwBdQBE16UH9IrbGoAJ0vJHeo+3vnF68q7lsSPCEgTgXCkBC6+CAAh0PoG3f6zSgt6wlTnWrvNLgByCAAiAAAgcBwH0H8dB/QSmufmAhm5N00Njk/jHt0fpnNh37vN5eqU3dT2BRUOW8whs0tzn4zT1qJYehLAo9lQT+xn2jdDDraOo+H1avFWhidkqLYqDV1bXKdkY/orYR/AyffXHY1yWlIfuDP0G58oZqmwUFQTOAgFxIoPYpPbc1Ul6UngU71kggjKCAAiAAAjEEED/EUMJ79CbFZq5NUqDaiN/ufl7zqEGQHZKCOzT89lxGkkPGBGHOAzT2N0abeiNfNte0jq9+mmSxoayAzXEhuIjt+bp+c5B21NHAsUE4FwpZoQ3QAAEQAAEQAAEQAAEQAAEQAAEQAAEQCBIAM6VIBr8AAIgAAIgAAIgAAIgAAIgAAIgAAIgAALFBOBcKWaEN0AABEAABEAABEAABEAABEAABEAABEAgSADOlSAa/AACIAACIAACIAACIAACIAACIAACIAACxQTgXClmhDdAAARAAARAAARAAARAAARAAARAAARAIEgAzpUgGvwAAiAAAiAAAiAAAiAAAiAAAiAAAiAAAsUE4FwpZoQ3QAAEQAAEQAAEQAAEQAAEQAAEQAAEQCBIAM6VIBr8AAIgAAIgAAIgAAIgAAIgAAIgAAIgAALFBOBcKWaEN0AABEAABEAABEAABEAABEAABEAABEAgSADOlSAa/AACIAACIAACIAACIAACIAACIAACIAACxQTOtHNl424vdXVP00YxJ/+Nl9PU1X2dFt74P53sJ/u08EUvdd3dPNnFULl/++IBjX7cT13dvTT60z7Ru6f01YV+Gry/SfWTVsKm8r5JU4JBbf+klfpM5Pdt7Xo5fbK/TnNjn1BPdy91jS3T28Mteniln859uUxvzwQxp5AdUv73f/yWzvUN09xm89rF011Okdt2+2GHFm6P0DkhW333kv7x1aNh6rlQocUT2N81k3fZLhu0EdpWQXERt1IW41LsxLeO2Z7J00udpMPz8tmJ1dpJeeqUscCbGo0ep43H2qcdZHd2Sj11kuwiL20jAOcKnCuOcB2zMeLkpqnbrQc00N1LA19X6fnqMi2u7hO9Waaxk+pcaSrvHdTJNVWppzNwKefK4RbNXeqlrkvf0uNn67T40zq9rW/S3Fl2rnRI+d8uVVrjXOF015GI/gE9udlPXX0jNLO0Ts+rT2mb6rRx/6Q6V5rL+0l2rrRMFo9E7tqVyDHbMyG91Gk6PJTPdlVLdLyq/oSjl/k39TI6ova92CmD9uN2rrD2aQfZnZ1ST+2TRMTcQQTgXIFzxRHHYzZGnNw0c7sxKwYJ07Rx2EwspyVsB3VypwVpC8tRyrmyeY96uvupIwzLAIP3L+ep8vmDxmYFBuI8uY/36MntClWW4meNHZvu2l8+3q+fHVbJJ8G5cnra2gFt/DBOQ9+3ctZsh9ozx6bDy+ui422Sqv6GpmlxdZ3WnH/b744ud8F21imD9madK789pYkb4y2endhBdmen1NPRiSxSOkYCcK7AueKIX4caI04ui2/FF9he6vqidjaXSXiAOqiT8/KGB2WcK+9/Hi+3hOgY8J6EQenRYSnb9o5Rd209oI+6ezvacXd09UZ0EuT4JOQxrs7aYXu0I8640uS9dXw6vKwuyivFUfym6q8D7LhgO+uUQXuzzpW2lKOD5K0t5TuKNoA0TiIBOFfgXHHktjONESeTEbed0ylHZPYIXumgTu4ISnvSkpCGW9weTmXePS4OQUP0uDJ0rOmWbXvHqLsSAxTOFS0uJ0GOT0IeNc/8v+2wPdoRZ34pYn49Ph1eVhfFlKad7xyjLnSKFWxnnTJoh3PFqTHntlPqyckWbk8ngSN1rqTK6XCf1u5XaOCCWEd5kYZuL9OuWLphPe+n82MPaI2bSX14QK+WpmnsitrQsbufzl+p0NTSDr9J6cEWLd7V6fXSuavj9HjzgNYCG9rWXy/T1I3LckO/7os0cGOaFl87GxSWbKjvt0Scw3S+T64d7fl4mMbuLtP2B0ewjHjfrj6gsUsXk7WmPR+P0MTSnvNy+Pbt6jxVruky9NP5zydpwS0DGzxgjCiGg2pz2K4Ll2ns/jq9tZbcZGHrr2s0cVXm3Vy+IDnofF2koVtV2jhYTzZb5TbRfftCLC9Q9dz3CQ3dmudlwiiLlDN3ja4euHLGhfHszTrN6boX6WnZNOJP5PTROI2ouulK3qt5dZnJ+wG9qk3SkGJ37lKFHm4emDGm13a99ZJ4d+6lftfIZxqCyJWtJMwLt+HwYY1o7Eu3vhP2y7RrviXaq8lBtJVr4/TQSztPLrLf6MOO0U6FzDJxKQPClCmdpZS3fiD+7q/Tw1ujStf0kmhHlZh25JatVXWs4tWy0PPxdZp6tke7MRvaqrK7a8/lJsUGx7T8xrODrWSTUql/hE6bpw0tVun7RHYdSPkL6lUznL4O5FG3bbaOkrBGXnVcZMhsYbvkwhvPYstfsq9Is6ovDP0tHslN00O6SAfK/ubrLvXeG1umhS4e4fSizsue6G+vy74n+AVYsnZlK6/e0roU/XGEfiutpwrrXPEo0FVpPjPM0tYwdVdR+zbDstd12rZsEtHGHnhtrKxtkWsDFLQ10vVvbkKcPqvTdlpnwtbS+sB8LmylsN1Q3DfHtz9e7iOdfEx7GPt+k94n9WTkwaw3V2ZYeyam/yiqdyf9QJ2FdbjKdG4Zle1cIM/5usjJp8mKSTtX37whypVbM+7Ca5WvoN4yIigxLkh1grl5d+gQh0Cdad1otjOv3DV+TFLcdoxyMZeJnWjYxaN3V2j3t8CGtp7NMUKVR6btHtD9JvOo9mL012meuWdFbSYNXHBhxJ3YeSNqfFVyzFbIR2Uj0iaMsjlj02QJxPGL6mtE/E3lhc0gHhLRMThXvqWpuyM0cn85WT+5eH80cWJ8dHeFnt+9rDYfXae1pXs0JBwRlx7QK3MAf7hHi1+KQftFGrlbo+fJGsxlenhzODk5Y+CucwrMh02aEps/XhilqdpKkubz2jSNXLhMA+K5M3Ol/nJaboJ6Y16t8VymuWsivcs0t2XITGqkGM8Cl7s/VZIynrs2TQvP5LrRxUfjNJiUb5o2TAdLEu8oTd29TuevPUjzMPO5OPGmnyZWHScPl2YSh8HnWZW+EmXtux6xnpLrZOWznivj9HBJ5X92RPKeNXmrsF+O01dfVumVM3jTbDMOK7Rwd5TOXbqcME87K1UmMeAUe0sM3VH1LMpxReyjMk5Pctba1vc2aW11maaGeqkrXau7SbsJOkMhp+zks5E70zT68SjNOWXs+W7dctolRoopT9Vvk/z3iFNb0jj1lHIh78M0+I3YVHed1nRddI/Q49+Ml8WmkXcvJ3U8eFPL3joJOZlI92pg8p50/P2UhVkmKSuXacY6sYQJayZvXu/VaFTIplHGtWc1mhoz9tD4sEkzSV0MU+WRbMvJO0lb6afRmukIzJML9dudGi2MfZK1aZFeIvOXaeqlIfPK0Ilyrrx7SpW+XjqXtiMhb9fp/Gzxmv621PHhHi2MCfk1mC3NU+XKRRq49FnxUp/6Hm2srtPinWHq6h6mKSWnG3uCj+JoGYjq2dfTNHVlmL6qKv2n5LXratV2lmldKZx/ug0o/Tzwvan8TGFxrq08VuihXiP/WiqD1Kh1gvH5L9MuW1h+Q+7z+gqvCOKB0y+8fy305TyNdffS4B3VTla1LvJjyNddRPWX95J+w9TFMo9Svy+YzU71JZWbozTxzHW2umkf0Laoqx8qiTN/7Ae1v0FOvcm6jNRvJfVUrC6mCF3FyVy59l18WtCr7y8n7Vq3sTXRrq9WrNMEdf8nHJty/4g82yLCBihoa64sJjWe2hcVGlJ90vPqt9IW+aJGa7XrdO7zezJ/uq9i+tu4vjle/1hy/+V8ureiocfeAAAgAElEQVRG0Z4amqnZHhL2t3VfHNYLZphFzp6J6D+K691J36qzGB0u2ry0Sc382mVUTlxTbzE2Sb4ucvKp1EMj+qYp29VVS7pfMwf63jtigFhuXCB1QoUqX1fo8ZZjqLrxW3Xm92myneW01xXDfiFKPqQ0YtfqbOm2Z9p8Yvwj7GixpNM6ETK1OUay8Y9q7z03nyoHpKn7M5lc29xTdq+UDVP+2PZifgzRmWWeFbeZNHDBhbJpf6gl9k1qhy7N05ga7/j9of7IqqKO4iPfjeozInSGkFVpB+bVSbjoMfy0zijsa5rMSziX+OUYnCu9NPTjjkFeDCrFwKKXesZqcgaL+vX9kjD0PrOcGlIpOgMu9b5UOp/R3C86ehV333WyGpn4eX85GXhZzpX6Jk192ksf3bEH00ljEMcTp8rIN6J1it5fNRj0nD7iRWUYfnTfGLgkxo/Pgj6s0IQY8Jp58BJTDzaX6bE7S+X1PA1299KIB8KNhOtk9+lJdcWZpVKn519L59Ra6vxSYbsrtOg6PxRbt45F6rLenOOfFbdRN78f1mUdFQ72VF68TplzMshnwvlkJ1en57eFU2ucnhj978ZPVW+WyvYPYsA7aoWXstpLXt3vVGmou5c+Msog1mCLDtd2Srh1w+T9zVN6vOIMnD6s0FdiZ/0760YETFjj1/QyPcXAcfqlL4iLnHaVOolMGciRC208dX9GUy9sI4QOd+jx1V7q+vQBvdLpl3CuvP1JHG9s10kSTSqvOlL/bzvqOKi7NPPIo91lPI6RoDlyzpVuX19u/zji6FZVp59O05rp7BXtc0FwtNuAT8x+IvPoD0pDz/OcK3HtktdbybHyZcrv6YBMT1t9hV3c7M5xrsgfItteGktAd+XoUNKOsS+XlcGs+6hesvqXNI3Ahep/XOclV2/yWZx+o5J6KqrOdbu5lKertJPblsVy7dsO65PbpBnRN1v6Vgz41D8RoLRtEW8DcHWT5JGTRW1f3F6xPhjouuxyWf4i9+Cp/Gx0gNF9s9b7MfpH5Jhrwz7t9IkayHA2RfoOG2ecPVPcf0TUO5u+lskIHR5VRqJYeSZmsCtZMewb1DdefZSxXbOKU1dahtzZf/Z+elJ+fTkTkfjjAs2/l8aWDLn20rYf5LezyPYa3XbstNM7Fd6zKYno1X3xcc52rsg8u3YtUf3FNH3kjK1YZ2yScFx74WXL7fti2kxa2oILGXeXsJvMjwoiFCdzjD4swyemjRXrDC17fp7ZOvEIRPAr0deUKb+XFTzIJXAMzhV/sFNfmUyUwoTj4RXOh5HuXso69h16LGYjmAakWbzDTZrq66Ue/WX6UC43CRmXa3fsmSsyH8P02PT9qPh3F0btWS5MQzWzoq+3fxSDbnOgqX+Rfzfuii/Z97JTNZTxM/XCfo9IbXL4+5r9tdl9LXivFJE1+OJeZjpZ7jUylEQ67ViF5fL4cpp6hDJPHV9GpKqezJkrktskPXfG2yJUUm+e08SIL7lUefHec5W9eFmxcY1jIpIbz/ky66YmOyZ7GrNUXFzYLZr71DTGVV5Dcp0mxuU9/dG44MoeGTavnnQK9RWaEM4h0ymofxN/tQHxk3b65MiFNj6HqrRtxqGuPf4qbnfwJ16XvLOBUH11UjqsvJ6XSSjmkW6bxvGP8XW8Rwu/D+suqV9cY5vPVNohpu1OvKcYW+07h7veuFTrGVWng5bjW6Wv9DDHnM+hXxf6PbeO9HM+/2XaZZPlV31HSKbdviLLt3PF9guRbS+NSpXF0V2yfwro0FT+r9OibnZaXnUdp/HnXOgwhoyLt7l6i5f9UHpcOUvUeYyuCuSdzRFTdq7cftg96QS+NE1rgbFaeduil2JtgGAeOVnUZXRlYqeafHzx2r+2oYwPAfF9cwn9k0Dl2rBPWz+R5Q7bVvK9+DhlfJkOLu4/iuud12u6PWVphfIaV0ZNxPmr69pqyyFd5HNqnb5pxnZV+UpnIKsZdWKWXTqzouS4INUJnG3mMDRu89sZ117FxznbCRTfdoyEjUtpJwRkXvXT2cwVxcVxpCbRqXadvaud8a5MGok7l2570Xa0FafnzItpM05CwVvVV3DlE86m78VH+2lKP/56+rAkHy4fThsr1hnNplnML76vaTYvHBA80wSOwbmSDX50JriBafKbHqTVtLUoG5NnAKQRKUWsl2eo8J7TRr2fTPMylgVJZcF4yMUsgOSfoXi8hppmwrpI0ggMHMWLWkHZBrGRjhGbm1/jJ++yvrdFi9V7NHO7QoNDw+meE6YDwwuUPPA72eTxoZg6WKOHs9NUuTZMg+l+N2ZeVVjGSSHLyTtLtFI28ybLqrlzfxk5sgqk8uIMUHRa+R2AEZGjPCWLOu3+skyPZ+/RxI1hGhzSe8hwzhUun27eiuRa5ydgGL3bobXaPM3cGaeRoWFK98Wxyh4Iq6NWf/PrSb1U0K4049TJqQf+jFykxif7m+7wDa4lnCtixtmTb+RywWRvk1p4OYaDgejwaOtY64EFy2Hi5Sp5wL/LtVvumV2HaTtQXL09N1LdZ3wRY9819YDWa77sy7z7z1M5sJxDOTLrtUuurNyz/PLH9hV8zWh5tVno9pCyDgbWP6h8W+1XMw3pUJ12P83oVW8Jo3IDiFBfzNUb90yWgM8/NaunnDqX6efwUDjZfDbdvnVdyb/1X+ZpRO8hd2uenu/YXhaZB64f088MmUnKadwbSXE2AFs+EYaLh3sm3lVt2pdR2QYb65tLtL+kjDnvGwz0ZZFtJd8LxBljz0T0H0X1zus13ZbdOvbzGldGMUMqrr8K6yI/7cL2lciSq2/cMsla4ORW12P+X5UvRxfaYaSMRo8LUrvbGHjbEbJ3+e2M17NuueW9bvPcX65vzLKTKw9eG1Zt1+jDvf7d7G9DukEkH9NePEeKCOj34cVtJitv/pWMOzQbX9aXIY9e+UryiWljhTqjZJoMgCJ+stycbOlnmknzeWGyh0eKwJlwrvhfgGTpXcUnhbJCD1cM77jeMyD5awzOvIbKy1SuMkyVvPu1UQu/HaebX/tXfVenjVkxoJQbgk7Nzst9Xl5W5VIRU5nqINZfv5OlvWUaE4aj2PTt9j2aqcq9A57Mitk8Zl6ZsCpu3TGlXmQrTdXIjbwlZR2cVGvTufrYyaa/W3Hpm1CnLNOyjUjumYonqWdjcJ/uNSI2152mmUdyP5iN6reJA878uq/LvKGzlP518ybTD3USaTCmo0r387lUoYnZe/Q42SvjKc2IWRKWQZJTxiyB9As1X0/qRdWJhwaiukP1nCtG/WZJhmUmeSfhbywNVGmbnHVcId71vXV6fFtt6Nk3TDPmHi46sPn3GOpY5t1sS2aG7Gv+XY4j90zF5Rpi6n7skdyXZc3Se7L9yb1dpCH//t0Buf/qxnKrUF2EnvODkByZddulduBZMla+/LF9hV0jxh3bL+SUwwiaXap8W+1XD8hynAlJ2nGDnSwt58rjKn/n6o17Jt/2898SPeXkTaefq6vSPtYYtLSkfTvcxG2yoeY9qqiN3M99qTbqT/PQvG3B2QCag9fPcLLIPRN5d/VBWjwpu55zJapvLtH+kvRy3k/zk10kLLhZstkr/Iy+aHtGRlTYf+TUO6/XdFt29b1f/qgylpBn3Tfb9o8op5+2lKvW6BtObq1qCt6ofDm60H5dymgjzhWvzdgRW3el2pkK6ZY7uY9qO1bS6U2uPHhtWHIZ+E7v9cXY0WpPrSSBkG6Ibi9cP8c9y9eVaWELLwJxq3CyvozlzF75SvAp1caIwjqjRJp55c/RObLcMX1Ni/KSl88z/NsJc66oaUyh5RN6areewnrwlCpiI0FuqjupKXvGzBW5BIFfFuTJiNdQvTeSB1HLgsw9JXLidRU1m6JWsO5SCGbpDRue6WSTpUvsXgwlnCvJ/hcBtmpJgmnAySl9OR07n3njaahT5hQy90xFldRH5lyRistfL0kvpptwrqhlQoX76Tj51PLu7hFEagmKZZA4YQ1S5qVsA4Yzw/xRX0cuC8qW8/mGm44qNeqsvGa/yvZjdJBavtMlR9m7iZwa7Tn7RV0dbNFDsXdS3zRtGI4A97221nFgCqssp2tsuzmT92n+rFkuHGPumYpTc9SzAnN1JZ+PvKcyj8aAVr2s857O1NORKFk2dUB4IKC/ymftMpWjRp0r+8s0WqKv0Nn2/rL6O67tZXHxuitumr7RVti8ZKmwV46+0+9w9ck9k+87+W+VnnLyFqWrUsdGJotaBt0uspwO12T4v2//OGltLtkq24KzAYL1wNU/90wUwdUHabGk7JrtMr5vLqF/kvRy3k/zk13IfBjynv1kXPlxxtszRjTiMqL/cOud10vxzpWYMpaR57BO9Tm1Ut9wcuvQDdyqfAXsAxmo5LiA0QmBxK3HpdqZCumWO77tWEmnN7nh1dK+zHGm7MqAzZFGqi8CuiG+vXD9HPdMJyj/+m3G/j18J+Pusfp8/bYa3+WOreL5lGtjOg+czohP04gl99LlF9/XtD4vuRk9Yz+eMOcK0W5VbMSYt3GVeaqPUsyMY4BezyebilqbFL5bTk518Da05YQioIi8V3+Tm5dyG1DpDW2tkzhy4nUVtZeWeLB5LznFx/0CKzrKHjE9kFVEZkxuJ7tPi2O91OV+IdKbjUbOXCHFgWO7/YOoUydvaiM9b0NbM6u516FOmVP23DMVeVIf2SBuY1ZscOtOJxWKXDzP3hOhg52xdmAZBoPcYJSX66yYTj7VgNCb8aI2zG1k5oreCMzblC7LRLKh7dp3Yq8gxsmkN7S1TphwZcqMTP3WPUIPX5vPs03Jsl3tRdJyv5ce12DQG5iZzhXGgSLXLOcb5O2qY+n8YZgdqM2qrbbksDBu046+lc4VOqDFL8Xmwf6GtkbS0Zc6j64TRRrs/eTOeuL1kyPvZupOu+QHMTly5w0m1VpmrvxcX2Hmxbxm9bcsRzaTywzAXQd0V3092dScbZtqQ1urrbB54dIznnlc5W+cLuOeybed/LdKT7l5U22e5WEUyc1na9q3kYC4dHWNu1dJi2wLzgYItbV2LQui6L65TPsTENX7elm3g9i7Vf0ca1ulL7t5KGHPuHWabO4tPigZ/Yf7jlvvukyO3aXrzF4G6uaViCLKWEaetXPF10VM2i3UN5zcplWUe6HyZdhK3OvlxgV5thkXu3ym68zt09h2pqLxyh3ddgL5SPaZ6iXPLj48SG3QzLkiNrlVpxC6G75y0Sf61Zj5mLxTor0wM6u1vJl5KtSVXN7YZ7Jf7eqbpOf2Ksys3egP7SI80x/G8oluY64+YHRGbJpskcVDNw1X55Toa5rOSzCT+OHEOVfSY6zYo5j901bqm/fkMb/m8aLiGOQr0zSlTrsxpwbqk2uy44LF8bk1enj7OlXMr+VMQw2JExenPorZMwxz4vUUNZeg6hC7zPLeH6XzN8cTx1F554p2aLlHIg+TOOIzdllQcsLMrNzN3DweTBwhN3h3mlmyJE4v8Y8mXluq0tStEZqzNmnjQIQ6ZW7Axj1TcSb1kTlN5IZVvWSWYe7aJ1S5KY8wNZeruEZ9lksmb/pINEuuV2hhNu8oZjUg7HOOdLsyTpUGlwWJPOpj3Myj9wT3Ceco5uSI8z7jWGFxfLI6ttw6PjlgYEoemsV1Gr2QHRe8tvRA7mHgOXDEsjclF/p46+TovRGauC3k0f5CfX4sO/5cx+k5ZrKKSa7aVsdvluUR12Z9iWPhP75OU3fctuRkyrjVRl6hYZ7H3XMuGKfiGEd6rq2u0MKjSRq9qY82NTKSd6mMwIHvaiTimPtJbQRS36SZ5JjErK4XH1Vo4OokTQiZtQYh8e0yHZhZ4ZVsWc9Uppnyl+0r2OKz+lvlo+86zT1bp7ValZ5YjjE3Jt0matbR7uItrm2mRzG7J72weXHTcu4dfad/5XQZ90y+7+a/RXqKyRvHw9VVbj5b0741GfF3k6YujGRH0q+u0ONkr6cRa3N8zg4oa1uwNkCorXH1zz0TRWDagyyhGsBYbSi2by7X/kR60gF9mSZqwu56QIt6/yCZGe//HNPntXtUyTmKWQ7Ei+0ZITf5/UdMvfMMpEy6MxX5d4vKWEaeUz3p6SI+ba59NaJvPLlN+sJ+Gry/aZ1a5VWw7sMKnCtlxwWuTvDTZZ6UaWcquFdu/fGpu5+yo5TXqYxduzgmPuSZ8ivsrk9o9O50cgCI5cjQp8iZdtrqOi1Wp6ly9UF2kIbIr9IBPWMP6PnqOi1Unyb9T2x7YR0pnsMlos2oWbTuBxi/RqRuGhy7TgMXRmkuWRK/TunR8jH9YSSf2DZWrDPER8NN8mznUJ14hY7gl56Q1UuF49im8uJlDg8MAifPuSIyf7hPG9VJGrl0Uc546L5IAzemaWFTb3xrlFAYpK+XaerG/8/e+75WeWV94y/8M/o2b4JDXhh8ofJAWwQpDqLQSKETGDD1LgkBT7EYy92OMtVIjT6gdxwUUxSnDYThPDQkfiv1qzdhjKZ8m6YUk8do4qiZZsbco5jRemgj68vav661f13nOjknycnJCui5znX2tfban7322muta++1VdLRRsyVcRGG53AixwQ/iTOmn3p84yLk3n1TrvSob4AN23dD6/E8jFLyMSNFE3E+H4/1wqE9SeLTDdtz0Jkfc443DkdXNakYv/p3/VmYzMMhzX8jKt0heIRLs93VIfoB6zMwyS7MwfCZnEmKu+GdDrg0Ni+OuMseXMFKCnBvoAtaVb+tfwMN0hF4HONN7CtMyuOEsmlXC+R6huCRc1ys1QTxRbXDm5RDDlvonqLoGfQFuJc/Ck1vyJUqIlHqtRkVFU+CMPh0fAKP8IY493Qkct34Juxo74IrU/rIpACfcyPQrWW7fgs0HeiF0fkZEEfQWm0PPOuDZu48m8Axsxs24RGjYgwg7mN2npsXM3D9TC5JoKvG1vUHml9NLiBT+idtPKHx/mAIOlvVuCPj1BTVF548HoW+yYKHd2GiF3LWmGuBQ72BMafpms8l7OO5ETh/oFnhKvVWv+HdNbYNQ9ZFdsM8BfeYMzVL+ZN5llAGY7rVYsz6UoDbPSrPDcol3ZrpyuzhPNx7EeI1RWa9cRl6PnRPMRlpf6lzhdVk/BKbF2auwiGVi2P9G4E3bRYhxbc1fpMChQdD0E3GptSjAZ0Y4yUh5V95uMoiIV0WuidLB/h3+3wxeirCWzFd5fNZifFNoZuD68dtPbij/Rz4ehCgXNsibANExlqo/0P3sCmR8aAdJjvoqXMmFJubSx9/8GICzus5YHMzXHJXM1LY1bXA1Oh5tBFy0Pn1lHLaAzx480fYnik+f2Tp90D9xjZw9X24LDYzvY3Z5VlAFtRF8boroW88ua10cAUbVoJf4OsEJUypHyWMM0XHa7fgcx5uEzu4NLtWthPtRG2DCl9iYAoKsTE8PwH9xxP7vQ7tyj0dcP7ajBfYevT1UWgSibk3wqbDQ9LeyzhetK6wgjtecCXDmBFBLLI6LNon2j6YgWdjvSbXlcgNeXwQ7rk+Qkz3ZcIn2xgrrjNUYzLVGWp4BvzUY5nmGiy7aF5C/PE9jcCyBld0pfzJCFgIqGVt/lJVqxR/qUkE4kZdTTaXG7UqERBHMTeett/0rcqWMNOMACPACDACjEB1IiDyzxXNP4i86+AKfetdnW1irtYeAhxcWXt9Xn0tVvtQkwSo1ccic7RUCHBwZamQZboVQmBBJX7LZPBVqE4mwwgwAowAI8AIrCkE5uHK/gawV7/EAODgSgwZvr/yCHBwZeX7YG1zoHONWAlQ1zYka6v1HFxZW/29+lorcx5sBA7+rr6+Y44ZAUaAEWAEVgkCYhW7u10uxjsHV2LI8P2VR4CDKyvfB2uEgznoP5CDQ6d6of/GCAzfGAGReG4X5i7ZCQe/4aV9a0QQnGZycMUBhL+uEAKPBzqg9fBpuKQS42Gy0ZP7d4vcW9s+ksn9Vog1rpYRYAQYAUaAEWAEDAIcXDFQ8EXVIcDBlarrklplqAC3vzoKrU1JUl9MPNV84CJcn3LPUatVDLhdPgIcXPEx4TsrgUBhYhAOte82ibvrMFG6SPw3Bc/c4w9XgkGukxFgBBgBRoARYAQ45wrLQFUjwMGVqu4eZo4RYAQYAUaAEWAEGAFGgBFgBBgBRoARYASqHQEOrlR7DzF/jAAjwAgwAowAI8AIMAKMACPACDACjAAjUNUIcHClqruHmWMEGAFGgBFgBBgBRoARYAQYAUaAEWAEGIFqR4CDK9XeQ8wfI8AIMAKMACPACDACjAAjwAgwAowAI8AIVDUCHFyp6u5h5hgBRoARYAQYAUaAEWAEGAFGgBFgBBgBRqDaEeDgSrX3EPPHCDACjAAjwAgwAowAI8AIMAKMACPACDACVY0AB1equnuYOUaAEWAEGAFGgBFgBBgBRoARYAQYAUaAEah2BDi4Uu09xPwxAowAI8AIMAKMACPACDACjAAjwAgwAoxAVSPAwZWq7h5mjhFgBBgBRoARYAQYAUaAEWAEGAFGgBFgBKodAQ6uVHsPMX+MACPACDACjAAjwAgwAowAI8AIMAKMACNQ1QhUX3Dl1Rx07x+HuiOPYLaqoatC5lYzdk9moL1tHLZe+Ae8LBnaf8CRvePw9sCzkp+sngcW4PsvJuC1tknIs+AvcbcsobyUJccVanbJemAJ8ahQk6qOTMkYL00LZgfuwLq9d+BL1hlLA3ANUS1PVlhH1JAocFMYAUaAEWAElhCB5Q2ujE7Dur3j4X+fPJTBlMI/4ES5wZVQPW0T8PaphzD+bMGB8xl8+UmEp73jcGRUFw+Xe619At47+wjGX6hysw/h7Vgbyf2Erqaf/nnzbJxHE1SoBHbpbCzdr7OP4L1lCa4swNP/+whOfHYHtrTZmL53bX7p2leUcgG+v7C2givTfRNCFxj5LYpRpQosoaNQlhxXqH0l64EK4BHRe1uOTMGXP6zkuKoQpi6ZkjF2CVTmeykOs5xDpuFmZapmKqkIJPZC44XHqSXlj/+G/BE5Hy2VPixFVnyGK6AjfKJ8hxFgBBgBRoARqDkEViS48l7vLFz71vn349NFrFiI9IcKrph6vnkAJ05Nwm/eH4d1H0zD9wX6nDKCDkxB3uXp21kYf6LL+uUuD9yHjz+7A3UYNNF0C0/he0rnyhRs3TsOhhf1W0JX00//lIbxJHRT2ur6+79bDUonVJO/ZjX8FmB6YBJe2zsOdQfuwsdfPITL385Az+fToh/fu7wcK1+ew83eu/DbS/+ogZ54ApdPTUL7lUXg9uoxnNg3Du8dmYR1Bx/A9LKikVVelpWppa/sbzPw4ZG7gZVRFcBDBVe2/umR0u04rqbgd+3SYfzdwNOlb59bQ7S9bsHV+70Uh5mDK8vZz8peeH8cXnt/Cq4Vm6LH78MW9fKFgyvL2U9cFyPACDACjAAjUFkEViS4UuqqjZKbrIIrbj0vv52Cxr3j0H7tOSGpjCC9cob8Yl/Gy2m6v7sceEOrnA6XF5t28W9sGKdhlNE5fDYD7XvHYcvZxWw9Squ/lN+UHJ2theBKRtwD8Ly8OQWvvT8NN/+OK70m4MSP7oqywEMVu7V4vivGwkoQEnoxtIWkAngoPec5hq+ewpd/HId1WRzMSmMSbW+lK1o5ehxcWTns02tWev7AhHy58s2/U4oX4Np/jcO6T+6IVa/eGEp5spSfSpEVn24FdIRPlO8wAowAI8AIMAI1h8CaCq5A0AGIB03s3k4rJw2PdSGHmYMrNoxL8i2j4RcJui0JS1GiHFwBkM7Ea2K8yOXw2ZbOR0Et8YeM8lIi1aovHg02VACPoG5ViHw7BeswgDa+zAhF27vMfCxhdaU4zBygX8KO8Ehre+EB9GDgZN99+P6VV0jeePII3ts7Dh/2PeDgSgQivs0IMAKMACPACKwWBKowuBJyPonx/89ZOHFkQm7FeX8cfnvqEUz/4sAdc6J/vA+NnpGvjSCV88UhlXxNKfdqFj7eOw5b+/6VFNdXqcGVZ5D/4zi8tt/dqqQfTj6zGcYVwO6XZ3Dti7vw9gcqH4nA+GGSU0axJI36abj56jmMD0zBb9Xy/7oPJqH7B7oySLfhV5i9eR/aP1F9h1tzPpiEE6Ys6WP9CMj8KEeOTMgtXfqZb90VQqFnDZHk4uED+O3ecfhtqJ+SUuRqAZ5+ex/aD46LrUTrEIvP7sPN/7FXWWTFQpaz87xgDiK9qsnQIRyYe6/m4eaFSZMnxsi9c/83h6Y9/gS5F/+C/NnkecT+yDf/crbiERyLjDMpj25bQqsiSGP0pXAmktUqT7+ZjK5sSNqfRc4WJy9iFY23os0wCz0Hx2HdkUcgNrYg3u74+OwR2dZEMNQkAODl3UfgybGRfVJQXX5/CfPR3PW2E0g8/EDF9FeY2FSXd/WA5MnLd2VW6xGevX73x77PLUA4cK1Kan38g35S1/cUnn47rbYOUdnJNu40Nf8za3sj9T+bE2Nlq9Jp69om4L0Ls/DUco5djJEL3a5nAB6OgXkKH8k0LgFA6WWtZ19rn4Qj//0EpktIaJttDvH19G8OTsGXd3+2YTaBKyw/De+p+eK19jvw4TdmLy15RtEluvR3Z3+C6YcyRxldrWHGPHlaXoYwT7ApNmcBmU/EVl6cCz57AN8/mxUJ0f2XI+XIoeL1k4cwLeyOcfj4Zmhv0ILItSWCL2IVXygxu6/XvFxvFKtSZSWTDBLZNnX9DOPfTMF7+9X8iKtCj9yHm4vYJWpI8gUjwAgwAowAI7DKEVhdwZU/oSF+B058I/O15D+/I5ze1/5r1nYStTFvktH+Ck+nZuDjD0JbQhIjKP3AhVg5ncfjDvQ8DEhDtQRXMmInDPC2O3Bk4CeRO+HyX+6KveCv/dE+vUkawHfhyNkJ2Pq/H8BlzP8y9ADahZHtYvEz3Dwrk5duPXbf5LbJf3EXPjT5OgLGmwVDawEAACAASURBVMIueWYGjvwnOvQTcOQHaqgGng10BQDh408zMO0lN6YP6X4dh9/+CXOzyPZ9uB+3ONyFy8R/yIrFy78/hmvfPoKPD4zDumMPTN4hnX8n5FQktO/A2xdmxDP5CzLPT+PZn+Da2QnYckLh/800/FbkFXLekr74BxzBfsHAlx47isaWS3Ok0QrHDLLydArH4APxxjXJs/EYZmm3EMr0UrSJvslVb27t7XryiaT9GeRssfKi8r+s+2xGBlAos+MYkNWO0b/h8mfjsK4t0UGXBzCvCE0SGpBFlU/BjJNvZ6D7szvwXtrpVsohOzJKA3nPZf1eIFfdP/WT0oOuE/pvGEf57Z0UY+fjKyrflclzVaTfDV0KjHOtsKdOsiyhnMe9dyFJaaTq++wuvP1fP8GsFRzPPu4cDsjXjO0N1i+xe20/GStqntnyOd1O6GKM1RfB0Z2nso5Ls7VqAt77QuqAa9/cF07tlg9Qr9LAFIHBucwUXFFz59tnE50ndPr7zilmKrjy8dlJ+M0n00qna/2sx4tmIOlTqsu7j01A3QcTYnxRuQnpQUkphDlA1jnr5ei0mMvqPpmCL4dwDPwEX569I3gQ+U6slacJz8X0v26l/al4FQFMda0DtLRgYRY+xqD9X55EApQLMH15UrxMSviehfwXk7BV5ZC7qZPpI91SZSWrDGrZNjprAUQA+P0J+PAv0lZAmWw/MMknV9H+5WtGgBFgBBiBNYfAigRXvDeo5O09QMiAkkbruvcn4cu/U2fjZ7h2Cp1targDgDIQ3Xp++7lryGN/q/rIST7mOfNml5QjiW8xoe2HhzBh3QR8fMNdTaFkKTW4kl3epGHsrhTA79SxKx+77y8/cFapLMB4rzLg/57wKw3gQLBqSq4OaSRO+9Nrd0UQLD2ppXJMjPGGb8NnoMfF9cVPIm/Kuj/RUFjg2YRV++rVc/j+C5WE+P1x+N2Fn8JBFu0sfuUk4nwxCx/vGwfavlKwMPJmGfKSxZBToWnbq20KJlj12h8fwjR5oy5WgVirs1TZfVNgGeGwAHq1g+v0Zh5nnsFtQx3+9kSsBLG3AangQMD50O338uQE5KwceZn+C678mIQ8CZrhm248wcks6f/nI/gdHvntysQvv5Km+rL4/ec4TqfgJuknpA2/UF1GSODlq3/AkfdtOQORM+gOtH82Aeuobir8BB9aK29CekDrxZAjXqJ+dVgVX/V4oeP3xVO42Ssdw1AQz+BK6Wk6LsaBcUcfC16rAIB/TLFqLw3wGQLP4PJffnJWqfwMl0+4fRjCuBQcs49LOQYm4Mios3rkl8dwQgWz/TaaBpmLTMGVHx5Bj7tK5e4DkTfEkns1x7r6B178BB+i008DlapPvTFMgt3lBFcyzVmFf8CRfePg8Yt6UCU5t1aulC2HSj7UOJWr4+5Az5Q95kXfvn8XrmGARNdJx1AUOwD4+0P4HeoIchpRabKSXQZN4NDwJvWTPQ+j3voVwNJzRvz4ghFgBBgBRoARWBMIrEhwxT05B08O0m/vw86nMloth1r2Dzru4s0dcfx1cCWph5xc0TYJX07R1+vKCCJBE3OSkXmzi3Wpck4Q5jf/eR++f2EbTJbkKONIb/2wfivhizSMQ6cF/Yu8bU8x+LNiF+JJGdK0DdKIuwNfUtzFs3PiFJjE6FI8BRxnuyrZx9TItn/X3xQ96lwuxskXS/91kMUPjsljgvU2C103fi7AzT9h8sFkG1l2LPD5UB9J+pIODZYBxGi/vIFyPw4f3qCyLA1uPArcrAJRjndwy5pahp70a4njbDG4i5UgyZYgjawex+7qr1j7AVw505Tcz4zyosbpezTxpApwiLfKSFa9ZRYOmrXagtbpy7EM3EzAkW9D2+Xos/RaJbk8kJykJPr8wAMYH52G12hAWXyngaGIjBULNgR0hJSzUECG8po4hiYwTfTk2188doIVcTkrZdw5HPhfF9Fen4i8Y+TQxHRDGMfbpeXb6MvM4/IpfImr9SL6UwZIM/QPqBUeVjA+1lr3vmoXDQirOeHjb925TwVK//Oh2SonsaPySegHtsLI8rYelE+EMCe06KU7Z4kx4usd8Yja1kuDK+XLoaN31Oo4a5WtumeCI4HgiuQjgh3ORWdxJeU0fC8aUqKsZJZBJO7qNRkkx1MSb6auAKWdwteMACPACDACjEDtI7AiwZXEmQsBHDKg3ImdPOcaUfhT6B7exyWzn+D2iPuQ5FZ0jCBC2r50y/0KT0fvi20YdScC2wn0wxUNroQMTl0RflYAu1cFmB3HYNQ0fHhkArYeSHKk0H4ragCb4IPsu6BzT1n3jDf145N/wbWB+3DiT3fhbTx5QedBMPSxXIp8WHUEvjyZg54jckVQ+7XkRIf4SiFZlq4Yyo4F1h/qI8lXiE7onigdk3HXQFffQ06vvpcEtFJwDNaXUj4AtbUSxP09YuhH269xtOQAABYtLzKxLg2a6bfNyaqABZi+dlcux8dVT2cfwk3vGPQAJi8eQzfqHXUEePfQv+BpNDiTAGMHNgpilZ4YRworHVgTy/MtHCIyJvow5Igrnt3VIshKsN8THs2VkrNkixhuu5iD2YLrfOMT8fqyjztJQ8uw/qQ6SvJeYnuRvV9wW9FD6P58SuSI2mpySlBaIYwDfa8BcnHMPC4lzZj+lOOD8qUr9D8ltsXmkAV4+fc5yP9lGk6cmhT6f0ub0nlecCVcr1uP+E6ChBZnrr7COJ3IIxPiM4Q5zuvF5yxJMxQsR26ULJH2ZZdDqzXki+KVjEvJQxIo0frFBJQDWKRiZ7CahPw/k3ZklpXMMpjQTuYKgJc/3oe3lWxgLrLLU8n8SYDgS0aAEWAEGAFGYE0hsLaCK8YYoUahbwSFJSBcTm95oY659bwyYCyj3yqQ7YtrsIafChmfJRj8uP9a5BTBRH9TcOILue/+5v+RqyRoG4oawMaoVPWHHDerES6fZK/5B5Pw4efT0CPyhczACXyTa+gjEfdZi3DxLzrohtsEVGmB9wdT8CXmqgj+S1YMZccCiYf6SFYaohO6J0q7zpri21taruTvvS9i7ZiF702AIAXHYH0p5TU/9FOt/NCOcPDT2aoRbb/G0chB+fJiOzsymBFcMVB4Ctf+grlWpNO51crFEcPkV3g6/ghOfKZWS7VNQt7a4kiBUtfq6HCxCkmsotGJbOXqAHnaknxbbTtUERkTfUh1n64zxnPpwRXqfGnq/me8vuzj7ld4+ew5PHX+vaRBq8W09++P4D10GDGJ7alpOPEXmePk8ue4bYxiF8I43i4vSJV5XCqaEf0pxwfly0db3yk+h/wMNz+fEFs4f3PwLnz8+X2Zm+SHh3IrJgk+xANX/goZUS9ZyaL5EZ8KByo3Rcc85SPjnCVpulvzNCcSY7pyJbscahrup5IPo5+SlW9yJZxc+fFaYPsUxULwEQtMGXvGDq5Y27cIW56sZJZBJBKR7V/+Dd9/Mw3tmEcMg8dHHlnbVEn1fMkIMAKMACPACKwJBDi44jlpsX4PGEuiqDzxZ52X00LRUQYMDUzEaki7X9wwxqfLM/iN8eU6feIo1eRUG6ypqAFsjEq1fYMakcGGOsabzjnxJydZMailz4Y+EnOeDdJPvzn9f9B5St6Wxk5rCVHJjgU+HeojSTVEJ3RPlA4GO7BjnNM3lINuO9+hVuC9FByD9aWUD1QhV2JMgEmo6gat+mRuHnqqRrT9GkctB5WQF7VMXzg/Ksku5cVrEp6U1Ytyg2NDr9DIgMk/Z+DDfW6A0KMOACRRLW5rIME/sc0Ev4v+nYCeKfp8RMYWE2wI9jutS127chcoktyKY1TKuEvoRa5Kbq/aZhHQ5f72mxDG8XZ5wZXM41Lpz0hSYbltpELBFd2HbiAnsG2mlOCKzDkUWTUypfK5mFweem7RAQPSt2qM0yCI1A+4PVWPP1XembNmL8tkzvY4UWXVSjBKt3w5VPKh9ZOoiuRw+kGdXPgj4VvjT7DItC3I6IUSZSWzDCLzKbIt2vYrzF676yUnVgjzByPACDACjAAjsGYQWFvBlV/+Bd14rGpFtgURGVHJNe3TJNTvymBaDcGVcOJNnTR4scGVBZjuQwc0kJCRQOgZb7HkoQrrRa1c+eEhnBgNLF3WK1cOJvktQJ3WEnsLSFnPHAAQDymj2zl9CX8K0QndE2RiTq9noKvtLgGHkbZBXqcY0MH6ZPnXPv+HT8q7o/hIeQtrcpqQU1Wi7XeDKxWRF+X8HHgA13BrgrOKJpisUeWMMDluQk6IlfAWgVF5e4xT5IFlboj2vz8N3ZcmrMSVMoh2B7p770o+zRN4EXL8ySoUcySyfqjUftfPkU9P7shv3mVKfSWMO4+se0PLbOb2zkP+j+Owzl1l8epf8jjuSq5cgazjUgV8sG43gPBMJY+1+HJBSL4XDdD/gLl8xsHNo4JBUbxPgw+lBFfkirBAIuhXz+GySEhvHz8sg7CYT8pO4BviI/Oc9VAlWveC9b+aAKnVvrLlMBRcwW2Lj8QJa+KUJzrfYDeFxpDi208GnCS0TZJFlyorWWUQmXPH7K8AdJUYFlFBOJrsPZE+vmIEGAFGgBFgBNYGAjUdXHET2or9we+7Tr4ygkIJbfHNutlHHDGWhJwU4PvP8UQdXLZP3kThb6nBFbnq5bX90/C9k5fUFb+ihrF4IORUuUYRoaydD3VktTaCtxzRxyXPwIlPxqH9M3zrt9jgisp1g04LnrSij/jEYzA/TzuKWSXMe/8OfEyOhd66/y60L3ZbkGpvndhm9ADyyMMXU+JIUz/4Q45tJsdHX/vmAXz82R04YY75DgdFJMohmdEG8AR8PIDHO9+HvHL+QoGE0D1B2+k706shA12dKoFHCOsjtsUxpF9Mwe+O0SO2s8uK1b73J6EbjzYdeACXTcJPw5G8UE5C+goajU2SlyDafh1AMG+GKyQvgs8J2PKBOh6VNmP2IfyufZJgKMcHHs0tTvsQZX0McexiToK8WqmDx5vjMar2CVC0InKt+tNeHYO//wt6DoxD474JkNuDyDMaG7p9An9WtF77431xtPiXf5kB2V0+z4ZaTM5MAXURkju3jPmeUh85QSY5tncWQuPOkItdLKK9Mvmwe/z6BLR/VuFtQchz1nE5+0icCrOO6sKBKXgbZfFPLl8xMPR2nVBSdDXP6W17zpHtv/nsrggIWMEHIRfhFTP+XKVWd+6luD6EI59g3qIpwATcdCsM4Mk+eAoSOeYXjx7ecvAufIi6n8h19jlLz9HjQOc3PA5669lpf9tT2XIY0v3YNypRtUg67gT6g2MoOc0odBSzd/pRqbKSVQa94Mo/4EjbHWjXR4N/+xP0/G/cUkZORJodhJbGjbDjzBgUMW/iQsu/MAKMACPACDACqwyBmg6uoENi/qEz89l9uPZPemwq9pYygmhZem0MuZixpHpcH0GJb6PoUYTKYAqvXKmu4ArAzzA+MAW/VbkkXkPj/b+fBJNaZnd6FT6/PINrX9yFt8XRoWg4j8PWI1Nw2ZzcFHC4/mcWThxJEur+9rMH8P0zlZTYONVIP/Csqtb6ePUcpoceiES9v8HjQveOw2vtmFvhQUAuMCj0HMa/mYL3NM97x+E3+9Gg/Amm8ehM9VcyFpjgFI/wRjlruwM9dyWhEJ3QPVE65vQGDXQA+OcsdH92B3S7MacE4v/lD/QI8RQcY/X9fQY+VPvtX2ufguRYZ42O/NQn5gSX5dOi+o2xWhofbb8et1QOKiIv6m0uOgkPKWPoF81Bz2d3wCT4bJuAt089gO//hwZUfQxnb8oAnuhvIUOTcGLoCbx0yIe/yiAKnghiH+UMILcu0C1JmoLSVUZ36fuYkHcKfquSUP7m1E/qpDGfZ/2Et53F/OBcxOTOKSa/ptSHBTKOuyBp6+Yi2vtqHm5emDR9XHfgLvT88BymRZJVGkwIYZzSrtj4yTQuAeB/7PG75cgU5O/+nJwmFgtqEjxk0IPMiYF57uXdh/DhQaWbRNLmn2D6F9kuGtQoZeWKYAFx/eKumVswwH3km3/By5jcuGP51EMYfxHCPPucJeY3os9fa0ddPgtPcbsRYuGOl7LkMMVeQB3nropDkGJYwAI8/eEBfPhJMhcK/AbcU7hUZ5cqK5lk0JXtZ3Dt7GSSYF7M59Nw+SFZbcTBFTL6+JIRYAQYAUZgrSCwvMGVtYIqt5MRYARWKQIquBI5+naVNorZZgSqEwG1re53l2mQd5lZVdtZsm1vXGbeuDpGgBFgBBgBRoARWFUIcHBlVXUXM8sIMAJLioDavpSayHZJGWDijMDaQeDpNzLR7InxFWyzWi2X5E1aQV64akaAEWAEGAFGgBFY1QhwcGVVdx8zzwgwApVDgJzmQbf2Va4CpsQIMAIaATxGGbdcfnAfvl+p8YbJzDEf2Pt34fITzRh/MgKMACPACDACjAAjsDgEOLiyONz4KUaAEagVBGZnoGdgFvIX7kDd3gn4+FuSN6BW2sjtYARWDIF/wImDd+HjLx6KRMrXvp2F/F+mQCaYvwPd48uR7vQZ5D+bhA8/x0Tms4A8XB6YNsnM2//72YqhwxUzAowAI8AIMAKMQO0gwMGV2ulLbgkjwAgsBgF1jDMmF/7w2tPFUOBnGAFGIIrAM7j2+V14e79KlKsTiZ99CDe9BPNRImX+UIDvL0/BeweSpLCY1Pvtz+7D5b89L5M2P84IMAKMACPACDACjIBEgIMrLAmMACPACDACjAAjwAgwAowAI8AIMAKMACPACJSBAAdXygCPH2UEGAFGgBFgBBgBRoARYAQYAUaAEWAEGAFGgIMrLAOMACPACDACjAAjwAgwAowAI8AIMAKMACPACJSBAAdXygCPH2UEGAFGgBFgBBgBRoARYAQYAUaAEWAEGAFGgIMrLAOMACPACDACjAAjwAgwAowAI8AIMAKMACPACJSBAAdXygCPH2UEGAFGgBFgBBgBRoARYAQYAUaAEWAEGAFGgIMrLAOMACPACDACjAAjwAgwAowAI8AIMAKMACPACJSBAAdXygCPH2UEGAFGgBFgBBgBRoARYAQYAUaAEWAEGAFGgIMrLAOMACPACDACjAAjwAgwAowAI8AIMAKMACPACJSBAAdXygCPH2UEGAFGgBFgBBgBRoARYAQYAUaAEWAEGAFGgIMrLAOMACPACDACjAAjwAgwAowAI8AIMAKMACPACJSBAAdXygCPH2UEGAFGgBFgBBgBRoARYAQYAUaAEWAEGAFGgIMrLAOMACPACDACjAAjwAgwAowAI8AIMAKMACPACJSBAAdXygCPH2UEGAFGgBFgBBgBRoARYAQYAUaAEWAEGAFGgIMrLAOMACPACDACjAAjwAgwAowAI8AIMAKMACPACJSBAAdXygCPH2UEGAFGgBFgBBgBRoARYAQYAUaAEWAEGAFGgIMrLAOMACPACDACjAAjwAgwAowAI8AIMAKMACPACJSBAAdXygCPH2UEGAFGgBFgBBgBRoARYAQYAUaAEWAEGAFGgIMrLAOMACPACDACjAAjwAgwAowAI8AIMAKMACPACJSBAAdXygCPH2UEGAFGgBFgBBgBRoARYAQYAUaAEWAEGAFGgIMrLAOMACPACDACjAAjwAgwAowAI8AIMAKMACPACJSBAAdXygCPH2UEGAFGgBFgBBgBRoARYAQYAUaAEWAEGAFGgIMrLAOMACPACDACjAAjwAgwAowAI8AIMAKMACPACJSBAAdXygCPH2UEGAFGgBFgBBgBRoARYAQYAUaAEWAEGAFGgIMrLAOMACPACDACjAAjwAgwAowAI8AIMAKMACPACJSBAAdXygCPH2UEGAFGgBFgBBgBRoARYAQYAUaAEWAEGAFGgIMrLAOMACPACDACjAAjwAisEgR++fVX+PnlS3j+4gX8+/lz/scYsAwsgQzg+MJxhuON/xgBRoARyIoAB1eyIsXlGAFGgBFgBBgBRoARWCEEXr16BT///DM70kvgSHOQioN0aTKA4w7HH/8xAowAI1AMAQ6uFEOIf2cEGAFGgBFgBBgBRmAFEUDHjleqcAAgLQDAvy2tfOD44wDLCipBrpoRWCUIcHBllXQUs8kIMAKMACPACDACaxMBXrGytI4zByYY3ywygOOQ/xgBRoARSEOAgytp6PBvtYnAwgSc37URNuwbhMe12cLirXpyFQ5u3gg7zoxBoXjppSvxXRfU1bdB3+zSVVGLlJ998wfY0LgbusdWtPcqAu3jfBvU1XfBKKF2u2c3rN+cg36WC4JKFV6yLl2WTsGcD1kcPy7DAQKWgaWXgfQcLHPQt7cB6o6PJbohaG+NQWd9A7Tk55JyfJUZgdHjDZ7dkPlhVTBke5RKwyvPc6IHyVq8sazBFSnIDVC3N792ndoVlzKp0OvqG6CusS3uvAint3zltezNNXwj784/LXeFMeguM7giFbtNf8P2FjiUn4BnC06rZ/PQ4vJivlOnUk3K5jdJf/0bu6H1+CDce6HoptJLeOr8zuGDfp0dhFYOrlBEVtX144FcDQdXCjB6Zm0EV4obiEonaN1VbVJaAV1akSal6kSqYytSW2lExJxUHg+YVJOd5qV3mhljxjiLDOB4jP8FgitBe4uDK3EMi/9SfO4sTmNJgivVMicWbz6XWEIEOLhSQXALM0Nw6XAOtp0hEesK0g+SejIBfac6oGl/1lUYJLhS3wDr91+FZyHCJkhRnlEIJfMXYqaEe4rv1gsjMHzD+Tc2U7FVGlKx5+C8qqO/9zQcan0T1tc3wLZTzmoQZfjvODbo83RjiuCvJuWmLuhXdK/nL0LngWbYgAGX7adhFBcqFGZglLZtoAt21DeA2+Z7T0rAbaWKiv6qzZUrz767CLl3z1krMkqFuRI0Sq1zucsviYGz3I1YZH3FDcQqD64sst0Vfyyzjq14zcUJViC4wrlW2OnP4vRzmeWRExyP8b9AcCVYmIMrQVgy3iw+d2pC8zB6oQOazvp+2Vq2PTQ6/Lk0CHBwpYK4mpU5dDlgBekHSekgSOY3m3Zwpa5+IxwaCmwt0HSd5fpBHtJuajqZ+UsjluE3VV/qqo0MZIoVCSv2Agwfewvq6jvgyjyhoAz/4ss/445U4VYXvI5LSL8KLCFV9Je6zaRFlbsU/VWbwZVKTNyVoFG5zloaSmuhjTHkwnqElo7rBFpqzV9n1rErgJTQceW9pFjzTvNfO6Gu/j/g0vTyOM81gbfArAHq9vTC35b7dKXpXvh9fQMc/msp/fUALu1pgLqjt1bFKq24JuHgShybyv1SfO7UdcX7Yy3bHhod/lwaBDi4UkFc5UB19lpWkH6QVMnBiyS4cvDwUbHSom5rFwy7gXhNl4MrQdhjil3KgBMsyGz4pzlSqt9CgTsOrgT7aKVvVmLirgSNlcahWP1roY0xDGJ6JCmfphOSUmv+KrOOXQGkVmNwZVHOcSmOdIllV3twZSXw5OBKtiDNIvsmrknizrz9DK9csfEo7VvxuVPTi/fHWrY9NDr8uTQIVEFwJXH2O78rwL38UWh6YyPgiopN7x6F/gey4Y9vnYPW7VtEHo31bzTDofyUvcVDGVcyOWYB7g10QYug0wCyfCAXBgA8mxiEzvbdsKlR5arYvBOaD1yEYTeRIqU/MwfXj8utGutPjQGY35J8FzLfB3GyZ8eg73gOdqg21NVvgW17jkLfpL1qRA52mZfm0fwE9B1uVrxtgaYDvXDbBEES3NzcIukrGJLnOr+bhyv7EesGeP3YiI1nWnBlYQ6Gezqg2bRlI2zalYPOAYpxUk8qfy9m4PqZHOxQfVW3eSe0nhmBxyRvSWHsHOxobBAJaB+R+8EhofhOxyCkbCW/YnXJ7Ah0t++UW3Ea34Smw4Pg1htT7LfPvAV1W8/BbcpcZsM/xZFaGBHJz3b8eYpSlteKfnqb3cdIe/VPAjuUWWcctl6EUbESh95vgA3v+PILQOjOjcD5A4n8bmvvgn5H3sHUqZlQny+moP94DrZtlmNqw3aUL2fMk7oKk3k49K7clrX+jTY4PyaXDtH7dZsDekNVV5hEPaD6HMdmEV4f33D00cBM0oCYPiCBMVfvYPu6b5FVScVoxHBbmIfbA13QuktiIfSoGJsudmQMOHpmW7vu76RJ4auEhsD5HamfqRw+voVboxQvOJZQt5JmIt2QgRO6h2Uz9RNI/Z9ggP15TslwuCXmbmb8CN/4jJm3GgD7UsufoRu5iOmRpHhYJ4jngqsByfhLiAAonS3nVpwT26Dz2gw8EsmEyTyln5mfsMffOx1waWwehr0kgokM6EctHZBBl4rnMteX1GJdZdSxRccdJTqL+qvF6CAxN50dI9s4s8ojJaquhW5MaKONkqM6xHlk2VdSLNLhXDI+ObiSLVCw3CtUYvUtSn5WaOXKonh97oxQ+rWITjRFia4uxVaamYPhM23SLyBzQCbdpu0Gi0Yf/D+foh/grLjWfD7ohSbcdj5Al2PrH8mn0uFptjwAwSar3VHG3GD8KSePobZRjJ0RmMMte0w305tHmyHXY/srVhv1c8ZWnQH0ZaVvGph3TXm+WO0IVFVwpaW1DdY3vgk7mrSTg0lXj0L/UBdsw2DLrt2JoYPbWW6QwIRxRlqg83gbrEcHqWl34rQHcmGgYYk5MtD5x6ShO5pIkKWxGc5PhOkfOtycJEtFh2nuKhykdW3eKWjtaPoDXBGOhFIogqcWyB0gwQTnpBSjDJraoGW74ss4Sg2wvlXnVhmD81inDnAI3GQbzvtbC4mcSoWObRYK5slVyInA0k44SU8eEUoYsXGWM78Yg87tOoikMNY8IMYfXVXJijPwR2ihQ3LoWIcKrGE78yagIR0QrDODMlJ8a+VJGk4uiYI3dyUuzccwKNcC3QMyX0v/qWYhI+s/tYNPnlO0MA/3Bo7CtvqdgEFC6y+j4W+UMpkwNR0pq81wSQUb9X3xqeinaLEF6QAAIABJREFUt9l6AiwHSP8ksMPxk4OmT3rh+o0RuN77BxHYwiTUw/k22PDuaZkP5lovHEQ5aOyAK1ZuF2UwXMhD567dkOtReWYGLkKrKN8GfSQOEQyuaLlAJ1X3w5kWEezadnZCc2vagH3W+s4f4NK1ERhGvnahodAGfbfy0LK5GU4KGkNw6aOdImib+9o2EgrfoX5pAAwqyFw3g9C9BwMFO6GbVmfwaYNNe86ZsifflcFgo49UTpz+Y7uhrj7JyzM8qeoV/bURduxP6pM0yBgsRkPw4oyHhRno34d8b4Hm43nRf8M3BuH8/t0yF9BxmgtIjYGPukQ/HewdEvmAsL8Ri7p3euERQTp8qWjs64CD+3rhtg2rcNzX12+EpmOKF903jswYA4dUErqXtZ9un90JdY27QbdpeOAi5N7JFT+RqiT8dHDlD9B5fDfsUONFyJ/Qj5GxStqIl54ecX6P6YSSgisLM9DXulFgQsdjbtcW2LYdtzE6cqTH3+YW6Mwruch3QfPmnbBNtI3OCeXrUiipPg8geSOLjs0y7hR5LWvrd3UYHSTk6LCefwF0maJ6w2VZzbkbjA4Zgr7jbbAJX9RE/pYsaFFR57jE1SixukP3ObjCwZWQXFTi3koHV0qylVogt78FDl1z3lBk1W3KhvFo/HhObDt3bSNUR7fPviX8sGHHrLVVlZwHqL7UtrOdg7BEu6PMuaEwMwZoA3U2NUDdvosm56HORyjtjJQ5nL7LNPNoczIvKvvYzl2ZMifu74DmT4esl8c2jvytVhCoquBK3fYuGNUrMx70khNWdkLnLWW5o4DjMWfoABweSlZbKONKBEowiSQx9B/16SBKDvq1IzhxTjoR9TttRbUwB9c/RSfMcTAIfTxlp2/K1zQmMELeUEtBmYMrPXnb+ViYgkvvyHbQ1QiGRv1GaCFe6LMbMudGXf1uuEQHvFCWpZzA5ARX8M3xVwofnTAVmdZ0reBKstJlfavtTD2b6IUWEaRxgl6ajhcwSGi1XCBv1Un/6kj5YlauiP5TgTN9nQQf4spP9C11/qEA1w/7Uf0k4KMDTQ1Q97+a4eSQM+khllR2HJ7sPCyKLyehrUiU27gbOkO0Cf2kfVLq0v9XQRB6DKDqq/V0XJmVBZhQl4xPJB6ckLV8OUEULP9iCA6hjNAkyqJO6twVYPQ4rv7xt6rhOLbfrqi6Go/Cda03sB6DtxPoWpiA7q1O/YUx6NwaWLml5dDj1Q78CYxD7TK4UUdUlAaYvQqX3L58MQQHUTaOjahC8iMUZBC/eLhpZ99ps6Img3NvQfePmryStUAw8N6fMXj8lh1Y0o9Zn5oG0av6d9UHVIeJn16MSLxJkCzURu9e5n4ag5MoYw6OgCveiqx6k3VmxU/j3QDbrKAVAEzJN32vkzZqWNzPoB5xdITQX47+LCW4Em2XNlyt4IoafzjHWXoQAGbySsdTmS5Xl5Zan4ug+m7GPNHHCkejY7OOOxX8oAF+r9bM8ug9KebbuvoWH98U+SwaXBHBh0648fwWHCby8/veB8opV6sCAvk3/tb7H1BXj88+B3ntYyjnUFkm4cWuK5QTRdATddplE76SgMyNo7ReJ79KpH2l5fSQdYl6MK+HoKnrdOp7LvESfKaWe+7QsXOGZMcze30eTbdPLX5tfkzfiYACtlnJhZaZUL6TLPQUXtrW0p+l9U+Cgd1GV+6wHx2+vXw8Ca1YP9t1aDnQn6E6E1lFHON/cZ1odJF4uLittP4jcuCEss9eP0Pf+Cgusuq2KI0Z6Y/sG7RW5oGymYJ1WgDMwZVeN2hQgOsfIZ5dMGx0m7YZ/HnWtztS5oa5QfVSmM5FFkPkS6g/5M9ybsw2h8uy/rwo8yFSeylUn+prXNVusCAs8mXNIVBVwRU7sSo630rROQMegwGewWmMK+pA6P6agksYuaxvAB2ZHT2ODnMDuCsSxBNPBqFVTDYkkGHoN8DBa35gBZ/TA9U6316zEPi892d8s23naDE0mnrhnvWMchr0ihP9m1KW2Y+31gpdrVwRdOagH99s4tt77RBoujS4YjAIv5UVW2KwPdQ513Qc58A4wI1dMOooG4MBpaPbW+xT1eeenIMnB+lotXkbbAXBFC6uU4Zbx77uANcYlk4RWZUw0AsnD8ulmhv25eEeFRGFW+i0oNEZWlBPPHqCl5+b3r2YBB1D7Vf0KxVc6bzlVDLVK04jokFAUUJtVbKdSIVjpO/EWxA62Yr+IsGVwhAcqm8Ary6scCYPzZb8x/pMjXdvDAEMH2uwtm0Vho6CF7BUzX/U12Kv3FKy5eEDSlf9Pm+t9pBynGXyxwpV3zvjJErDxQ1Umx1dqZoCsDAGnY0NILYxipuqPodn8dOEfIvlt9NQUxdxGlK3HYXrVLzVU6IPSDtDbXTvZe8nZSRu74JhEmB3Ofe/l4qf1vcBJxlUEC+gS9x6PT1CTwET1+qtG8ELaWQPrqg+isiFlHEy/pScxIxp0Xd0TtByu1hdWnJ9LoLqe2Yd6z7vjzspe4GAIXk0uzySh9Rl4QbmOrNfnvil7DvGKY69qScOsHFo1T37e0oQgdIu9jZf/U6DJNpZNfU5wRpzX/BF+dCOMnVoH8CloyQRq2lf8pysL/leFCPVviSIk9Qn7yXfbec9uS/KkWCG5CH53TznBimK4WkFCxJ6bn0YKKCY/1sH09z6RFsVrqHfFD9o89n9Qr6b/kv4CbdPBc5oPUXbawcqZN9pOaABoVAbZH0WDlGZQhsq4d/DE3FaFK8VDK6UZCs1QPF5WesOX7fpl6YhGkG9910XrK8P2/u6lrRPSZPML3q+yGJ3aPsyFEwCZctZc1GME4WDNUfJspK/0Byu7AHzjPoe6ivFZxI4C9UXs1VjPPP91Y5AVQVXXOdQGp4BR0s5OVZAwTj+NEqadI80ChtADgAl/CTYkpTEqxno+710bA1Phj5VFPZTcqDawRJTAreN3MjD+VNdkNtDtvPEgiuOMW2cL8u5JCtMvPKmZudCDXKXjnkr2SxXxmiMqfLS99ycIrqGW10yWER50c/Qe1he3xdBLDuYIAJOeN99RteT9qnomn4Llo0rv0RBkgcDNKVsBhxnxBGDVD1keZGSnSBtUo3pY9LuZ9+dgybMN0PfYFjPJCs10tvsPiTlwOJJtDMg31H+lSyZCQjrkPeavdfesn5vsnXrNOMsIhN4YpJZbRNog6hG9S/BUbfe7TczZqNySPBwedVEtbNLx4oJtgZkBJ97MgXD+Ytw8lgHNNMthQ7Pkr8ADY8XiUUwKEUxMdsKQ2NANSja36TBlGYgiKB1txnLHr5Jm0JtdO+V0k+FHy9Cs8jVg3mqLsL1qSxRllLx08GVpB0JOnH5S8rIK1ce3d9DOgHLiOccWZHPumMivV0SVyLjqu/tFx0JVz6/ITlyeUie13rf6KqS6yO06GVWmc0w7kQbA4FZWl0p8kifE9cLM3DlE7lVT+S+yY/Bo0AQkj5XNHDgBlKCznXACfacUuX0FnE4g06qDhAQJzsYAHFoB8uoQIhpd4hPh44p6z7rfBe8E4dbPOfRUk49CaRgOTuYIvE0wQldj+A1cejD9N3gQpb63Gfk93Bf4G+hwISi4bUX77tBi2ztszFJo69+0zh5nxF+HTxFfU6/6LYmAZcS8AxiUYzXygVXSrOVQoEApSky6DapfyM01EvlxL4qwDDmYgnOM1Q7qWvXxzHpDMj8ooMrls2onnd1eKXmhpQ6tZ2RrKzR7XLncDmnxe0Z6vfF58RYX+ta+bN2EFgVwZVksCvghWPhON9qIHo5QsQjuDJDOmuSlhL++obwMcSVDq7MXpX5KXRul/ajcPLUaTjUivvd6aDUBrvTNtUGvR3KGKZ4P4SFgin8kSgJiw4AyG0XcjvUPR0ooQ6jritmeOpnqDLWz9B7lO//1QKHTp0WeCAm1r9eO3lguD3OXVWf2za7VFz5ebJGeKU0fSdD1+Aq5ST4EaStHxOfgWfVyhl806lXXVmP4Bcl+5Q/r4x3I+AACezoRKgecic9Q0vJkjVRBuia8lq+SeI0t05VV2uPzPWAK47cf8lqn1hdYRyRDbff5OSag/NDfj2yXuL4uLySdrl08Sc9cY+Scnj56KucyB8j8gydOg2XRE6Yq3ASA7rOOInRkOOe9pXEYkWCK1b/y8YKPHYcVXlpQthOmeXHoTa69+T3jP2ELIjEtKchp5LsbtjnJ6W2u6VU/OL9GwuI2PURnKiO9QqFZVng68iKfNQdE/J7zKiTuBI50rrEXb2m+PLlXPFnyYDLA2mUq59Lro/QopdRHZUUyjruRBtDb1YTUmpslyCP5Fl9WZgZgUtqtSPmCDrp5urSBQGK59sIBR+ePwfX8XYdYfE7CYaYAEWqwykd18SRTRxR1/F16zP0iWPt8hgqI7d2OKtUUnlMeHLphetzAwsRR5/wrVc8hB2uUnnNUJ+oW5Vzg9VesAHbn0IziJ2DgSpTrH1BGQrSj/eJ7KMIv4JWgqeoz22//m5kOUKL9p++XhSvlQuuxOxCqZtTbCWiH7LqNt9uIERABVN0vjW1ilhvz6clveuZQWjFFxp4IMXh03CyV+bau3IKV/+S+SUl0KHtWINHpeaGlDpdOyNplzvvyjlt26cqh2DALjU59YL1pcyJSaV8VUMI1GBwJRCVLYzIXA/1G+GkyhmnV7IElz/r/Ac0v4ka6LaisCVBDlQ7WIIl5FYIP69D6rYgz3BWg91dcaKMVdcpszmj3+QgxwnTc8Z1nglcHfCRSmxJDX+1LQOTdJrcNYT0vQtqmxNdOhfjz9AKbx0gZEu7dI334NNlOgQBJz2pxlXKSfDDTBpJYecq8KwoobZtBfKQiJ/1JPSdQy71a0DZC+zoRKgIRB0XJUsBx2q9dU8zgvlr7G053mQ/fxVysW1Bmoz5DLRB/BbD0Q+uyC1fZPufoR24iOETkYfgxK23Qbinc+mArjPugzSQNY+XbNtaki1coTGg2hztbxeTOA2p87KN7VAb3Xsl9ZPD5uNvjopkfenjr1T8qiC40nga3MCdZ6CC2k5KdTLBR85BZMzPDYqVd+EgnRq/dE4o1ZB09XPJ9RHm6WUxmS1h3EnZJU4NrUddlyOPHrn5CTiPeeQCW2R1WTdA4H1PC64Yh9PdAoHOdOK0WjRTHU7puNZicCVZhZLBOU/FyAkkFC2boT4dLHFW3YSDRZULriSYOG1SwYklD644sh1vL+UvC56qfNG+oXSTaz02/c/QvBiyVeS9RdtKuuISdJtvN2gi6lPk0ZPbgJ4N5DIkspXPiTQLAfvU23YanC9U3a4OT7UFQ3OR0xbzNdQf8kfXzjCPaD6NPaa2+kbm0eQ5vArVF+p/+yn+VlsI1GBwpQFeP3w1yca8gMdHqgS1JJkQZvp/XUS7SbJc7Fua0NYMrMRBzhRceacX7pE8IvJtXwPsuEC2iszLxI4VW7niJvWMyqkc5MHgCj6jkjEmbyvosnelNHAFDjnNBx9LEtq+ZZ+Wo4xpPPXJSjoKKjcCbqFxs2fjW+fec9CvjsNeTEJbL3Bk4VGi8nMdgogzLaqYvCiOravUtiDDtuoXO/O6+lVNSultNpTURUDZew67Td93TpUsWYEUdQ/7292Nodug8/ogea/OeejfhwEYP6Gt2wK9BcnnS/UvHb/qYe/Nu1oK6x1F7lcW4DUp5NE1K1faoJ/mOFbOpLeSQI87h2c5+Ts0sFoPN4BHvZiI1k8Uh8VlQlt6+lFoDKj2uEZO0kznKoWGSnbsJbR1KODXkIHj3Suln4juFdXpvdtU7gJ8lIZfmG9JNi5/brUhubHLhGnJoIjawkkekEkB6dY59TYS3x66CWrnVYJp682i0suh8ad0m706NCQDAd2iefR0aan1aULOZzGZLWXcaT3lJiqmVZYij/Q5vHblU6waxTe88YCOFfjQb9zpp+OAyvLhIIhxhvEZGnih9Io4nGEH13dos6xcyVJmyVeuiPbSQJPfFr8PnJUeFD/3ugieqatMDK1wfeG+wCBAShuC/Lj03e9JYIFiEaxfyKOdv4U+E74O8+vKh/u9FFrBskEswm2lz7vDOvmeVSeWayupGkvRbQG7IeEbdZMMIuz485A4OCT48tl6AL+onQHuaj9zaAcJ3gcDD4qgp8MVjpnnIo8xdUPRMVuik3KenWF+Us8Qe0zmlAzMo+YZfZG1/3V5/qxFBGowuPIWbNu+USxPw6OVzZnrntNRgNFTct8zBhK8o5i3/wGuUGNUDfy04Ao6PNbRzrs6RIBADmDcliSPkxZHPm9ug85jaFDZK11MWTKopeCpAeuuODF8ySV5eIx1d+oKBqXQXTpEurWBLgMsNLiC6WjU8j8RmHKPYt4ITWcnkhOckGYaf2jEihOG8K0dHsFNj8NOFLIOTqVir/n3jHf9A/0sUfkFaEqe3IS28rjg9btO2wloFQahhLbBRLte3yPvKK8YJKQOsmqTol9NwZUdrW2wbXNypLU50tk9cSg02ev8P+Qo2OEbQ9DXcxRa9idHoVYkuGICDw2wYU8X9OFxzrjk81oezh9ug9xXJDIS4lV1QdBJVvpg26d5QP67v8Jlc8qZbHSO89vVAbnAtiCtU2wa4eAK4MozkZg6dBTzRmjJU4UWGgO2PPlBK/W7+UihgfIqgtr0yOkRGB7ohc4DzZaOChk4oXsyQFSsn8agc3NzcgT4jSG4JPJb+IEI0wx9URJ+KxtcgdlBeXKPGWND0HesGTYcPipOnbL6TpelModHK7+h56BE1yIUhbHT8iQ9ehR6Twfs2NUFner0h2TFTEgGSgmulFqf7iznU+lAq91WkdLGXUjWrudPQ44cxRwqE9QbFh9Sbja1El0zcE7kCHJPaaOPUacueB0Irgin11nlIJ5Vji/O7/FVCdKxjgZfFA26ekU6vTRA4eYoiTmsqi5ra0sooa1NW2/LibchXJ8fDAi1Nezou9jLNqfhqHkI1aF/w88s9fllZB83QJ2Fnabrlzf8BwMKkke/T4u0zw2kZJIvzSP9DPCr+KQ86dww4TZregFaJkily+jPYn2jy9mfdHza11l1otSTZdlKouISdFuKDaPbIF4ybN8J20pIZCtfTGyEpmN5uC7sp144uGu3ODbatttD2KiaAzq8tLlIt8D/lAeY7IRDebTtzkG/2sEQsjPk04pPaovr0/UadxP7YgT6e7sg9845soo01MaUOdFnl+/UAAI1GFxpg74HM3D9uDy5RQQ03j0KfRPua3TZe49vXITcnp0iB4IMsqBhPgT33OJq4NuKwpWAAtzuycE2kUwRAzbq7f3CPIz2dkCTur/hnaPQN1kIni5UcnAFncOvj0LTG/K0n7rNzXBp0uWLfi8eXBHR6+06oagTXEFS8xPQfzxHAldbYFt7F/R9RxxRUmUqf7MjcP5Ai8FMBFkcWtW7ckVjJD/Xv4GyM5KsmtIYGNmxy8vgFd2eFVDomgZ+6iN/nZVROoBVTcEVdOSfjfWanBdiL+7xQbhHj0zGNsUmeyEXzbBJB98274QdKBdjVMZiE1Ycx2AQBFdPoB54900THN2wfTe0Hs/DKK0uxmt0JRPqA62HtkDTn9XKtbkR6G7XOgeTrvbC6Lw6Yp5O5qLvIzRivCzMwWjvUWjevkUGbuvV2LRwQ8IhA0BUaAKicUdVlUujgUVE3pMuaDW8YHC5RejXR0QOQgZO6B6SLN5Pc3Cd6iYM2rafg+sPimQM1U3KjN8KB1cwCDKZh0NaZhvfhJYzqHsiY2IO9aweT1Im+s0cZAdXEIrC5CB0ahltfFMkBh6e87fVheUowgMSFnJLdZ4EPnt9uqOcz4Bh7pQAKGncKVkztgHKbg46v56yXh4Ul0ePCyhM9Fo2x4btLXCod8yfN8ijximOOYjEodXzStz5VI5n0CEnDqRybA09N1BT7HcvASyh7bVD8aRzZ7jblUT7KhhcMfXIOdl23pHP7M65DrAkONHTbkibU/HKWJ9L4+gtmWSX9GWQH9Fegp+iYwem/OAKyl2QnrPiySojeJG0bPoEC6//5W8mWET6J0xDBURIOfso8Ix4aj5cXF1Z1+XIJxmezmVobg3pRH2vTFsJa8+q22J2A22BWpVXp3Ov0N9i1wtzMHwm8X02vNMBl8bmxYpZ22cKYaOIRnR42XMDkn8xAedblX1HfKSYnWHmNdceU76P9vGEv7KnA85fmyHzQqiNuq+pQRkDk+/XAgLLGlxZUsCMA+sbiktaLxNnBBgBggBPIgQMvmQEqhoBvSfe2rqWwrHIVRbK9ZLyTDk/LXd95fC6lM8+f/EiPaltKPhAHEE7OCMdTz+gUNz5temszvL+ypXV2Y5a6IvV2gYcjzX7p4IrmRLZ1iwI3DBGoDwEOLhSHn78NCPACFgIcHDFgoO/MAJVi4DOb3QObmfhUe3Hr9t/1Zz0lOWxRZdZ7voWzejSP/jzy5cVC66s9eDCWm//ag1oVBPfOB5r9U9s8Wk8CsMZF3vWKg7cLkagHAQ4uFIOevwsI8AIOAhwcMUBhL8yAlWJACZ134YJxYsk+tXMyxwjKUfC64IV+lzu+irE9pKQ+eXXX8sMrpBtFGQLSTU5rGXx4m3rCG3BldtiOLiyvCt1rC1D1jYe0kerTCZxPNbknwpoZ0tkW5MIcKMYgYogwMGVisDIRBgBRkAiwMEVlgRGoKoQGDsHTQe64Hx+SCZrvjEIlw6r5NvvXoTbzhvKxwMd0Hr4NFwaSJI7n9wvk79v++gqPK5w45a7vgqzv2zkfv755/QAS3Qb0PI602UFSbgN3MdVLgM4Dmvt7/E3vdB3YxC692zJeFJjrSHA7WEEKosAB1cqiydTYwTWOAIcXFnjAsDNrzYEZofg5IEWkoBcJWfNh5OoFiYG4VD77iTJOCZFFkn7puBZ4Bjhcpu73PWVy+9KPf/q1Ssomnulyh1TDrxwoGs1ywCOPxyHtfb3+Ks2kQAfD9uwTkmttYZyexiBZUKgdoIrywQYV8MIMAKMACPACDACjMByI4COHa9g4QDFag5QrFbecdzVYmBluXUY18cIrAUEOLiyFnqZ28gIMAKMACPACDACNYEA5nzApJq8koUDLas1WLEa+MbxheOsZnOs1IQ25EYwAtWHAAdXqq9PmCNGgBFgBBgBRoARYAQYAUaAEWAEGAFGgBFYRQhwcGUVdRazyggwAowAI8AIMAKMACPACDACjAAjwAgwAtWHAAdXqq9PmCNGgBFgBBgBRoARYAQYAUaAEWAEGAFGgBFYRQhwcGUVdRazyggwAowAI8AIMAKMACPACDACjAAjwAgwAtWHAAdXqq9PmCNGgBFgBBgBRqAmEODkq5x0dTUkL13NPHLi1ZpQldwIRoARqBEEOLhSIx3JzWAEGAFGgBFgBKoFAT42mIMqqzlgsVp55yODq0UDMh+MACOwVhHg4Mpa7XluNyPACDACjAAjsAQIYGCFjwnm4MpqDVCsdr5x7OEY5D9GgBFgBBiB5UeAgyvLjznXyAgwAowAI8AI1CwC+PZ8tTuozD8Hh1azDOAY5D9GgBFgBBiB5UdgWYMrt3t2w/rNOeifXf6GJjXOQd/eBqg7Ppbc4qviCCxMwPldG2HDvkF4XLx0lZUowL38UWja3AB19Rvh5Bro+se3zkHLGxuhrr4BWr6aq7L+YHaWEoHH+Taoq++C0aWsJIV2VM+/mIK+w82wob4B6hpPC/6iZVPoV+qnlay7Um3IRmd55zzMsbKanVLmnYMqtSIDOBbT/p598wfY0LgbuscKacXW+G9j0Il2VJ7YUU+uwsHNG2HHmTFYc8it5rYHbJCShfu7Lqirb4O+FfVjS+aaH1hmBJYxuFKA0TMcXFnm/q1cdYUx6F6lwZVnX3fA+vqN0HRqEIav9cKVyTgso8cxAGP/27C9BQ7lJ+DZgvPcbB5anLLJs8S5DZbbCJt25aBzYMpMztIptutO6On7hK7Djvk6cQ621TfAto964fqNQei/QYwCU4gvahWBlQ2uxPT8PFzZvxHqGpvh5MAIXO+9CvcgVnY5emYl616O9tE6lje48vPLlxxcec4BiloJUKzmduBYTPt7PJDj4EoaQOK3QHBldhBa12pwZdW2PWSDFO18vwAHV3xM+I6HwDIGV7y6V+jG8hqay9vIeRi90AFNZ8tZmjEDVw7nIDdQKw75HPS3NkDd3nymFTcyuJKD8zdGYPjGCPT3noZDrW/CegxWnHLeUqigyY5jg6Islk/+TcEz3fleuSHo6+mC3DtbRCBH0y3MjJHnR6D/2G6oq094kbQJXU3f+Rw9hU5sF4y6wSCnHH+tTQRWNrgSwXRuUAQirbd/kaKVvV0JnVhZjlxqz767CLl3zy3hSqPlnfM41woHVlZzQKKWeMexyH/lIhAIrpRLkp9ffgRKtEGi8zIHV5a/71ZhjRxcWYWdFme5EkZ0rU0kE9C9Nfs2MBlccVeHFGD42FtQV98BV+YJ+ipoUtRhjJbTdNugPxDLWpyTjNH57MEk0hq+rBEEFic3S9z4iXPwen0DdH63xPV45CuhEz2iFb2x9P21vBjUknNaelsewKU9DVB39Bav3sm8ekdhVt8Ah/+63IGpW3C4vgF+3/ugtP76ayfU1f8HXJpebn5Lr6+iympNEqs1m3hNdiJAiTZIdF7m4MoaFaDSms3BldLwqvLSlTCia20ike3JmmMnHFwBkIrW2WcZDZo4YpJWTijqsNMZVe4OefurkoGMK3XsZ/lbLSCwOLlZ4panyPnS1lwJnbi0HC59fy0vBqUHJEp3GJM6qi2YUW38lI7tjaMNULenF/6WOThSeh1J/+GzHFyx8YjhuTjZWlrttRao15pNvBb6LNDGEm2Q6LzMwZUAuHzLRWBZgyu+sBKjb24Eutt3ymSHm5vh0MCM5JXeb3wTWs6MwGNnu0NCtwD3BrqgdbvcbrH+jWbI9bjlSZ0OGoUDPtvFAAAgAElEQVTJQejUPNRvgW3tXdA/6aSrMgNLJUkVSUM3wqbWizAqVjXQ+w2w4Z2j0OfSwHoX5mC4pwOaVNLRorzOT4hkkJsaMfcG8qbrk42QGOi8HMknfVP8+MZFyO1RGNdvhE3v2ryF8o0kiZviuMHsCJw/0ALbRMLYBqjbvBOaD1yEYW81BpmkZkl/N74JTYcH4ZHTr073JF8X5uE29vMuuV0Hk9S6+UuwcLg97qqUhGzyjF/m9pm3oG7rObhNi6cFTbKWu4XJsXbDpSn6gLxO5Nr/LXQnLAN2QOjZBMr4bpBy1ADr39gNrccH4Z67eljL+cwcDJ9pk+WLBWzmbDkQMq3HsWY4k9zLwpJXLa9a5kdEcjkrWKb6gcq6ri6GYWljHeDxjXOWXjH6SVekPwNjofXsWLJFDAAy1a3phT7nJ6D/eA52KN1Rh+PnwCA8UmWDbVa4NyvdKJ45nPf7PVSO0MYqJP+JDG3YnoPu75IlXXb9Krjp5iZSCcXtsqSxRdqIJYvpM0k70YU6f5GWk2jdLgaob/d0wPlbrkIrU58pudV8mU+SbN0drwJrjw817xl9iGPlnJqPEKmw7n6Ub5O5qM5OmLxPkGUMk24KXWZzFGMOZKn3F+dwLh2P1cZPqXg+h+UPrpTOY+X6bzWtXFmcbIXGqLmn53manNPVf878Yp4NXBTTyeIRUmfmeTVQF7yYEvOgtjtRN9IcduYRdy7ZvBNaPT9C6/IZSA4D0LaT/o3q/9C90u36wmQeDqnt4XpeMnyLixm49E4D1L3Ta+Z3+vuj3maxdbz/SXI3k32h+yBk3xXt/0jbAcCdr4ral7Ml2FZJE5Mrl9fgXC35NfOrtkXIPJsQBIBi87LGLsR7PsmhSGk+voVbf5W/IsZTyD+iT/D1akegOoIrH3VB5zst0D2AOSsGoXsPBkfegs5rQ9C5fScc7B2S+S9ONcvcF2cnLNy1kdyXb4NNe7qg7xrSGYK+Y6r8cZorI2xoFr7rkklA2y9Cv8idofnYCd20OjGwWqDzeA6aPsGEoZic8Q+wA4Mee/MwnG+DDe+eljSu9cLB7XgyRgdcIcoPFmagr1Umd+zMy7ZpGuv3XyWOmOIV8dm12+CAZTFhKVW4Ml/HIHQ2NUDdvosmd8c9Xa/gews0H88LnjGxq+StzZze9GwScbsIrfUNkOQRGYNHIr4Uw+20aPv6XR1wXvTfCFzPd0EzBloa26BPxchkh0kl13ysC1re0P09Av2qX9d/OpIY+VYPky8LM9C/D+WDtOXGIJzfv1vKBulr2p4Ek/ScJd7KlYV5uDdwFLbV74TO75xAW7nBFS0HkYlTy3XWU18sGWjqUnKs+w/g0Vc5EbzcYMbICPT3dEjZ3d4FozTAouQ8t78FDl2jRgXpC3r55CrkGhtgw55zqt4h6DveBptOkfw/ur2NzZAu9wB6PCa8Ir0W2LB9p5R9OjGWGFzRtDFAmW2so17R7RqEk+/iKUwb4dANWx40XToWhgcuQu5wcsKWLlO0bootvZ7JQwvqms0tBsPha3nobE1ydoTkRsg1eUbrkPWtCW8AKuHb5mRs4lhueUOe7CPYEMmSN8IOpftQX58/0Ayt5CQFu/55uIf69EJO5BdqvaDyEk3KYIxdVjU0Qxshgz6zxkNAJwbrfjEGJ3ehbt4NuR6VSwnxFXPSRmjJU4VWpj4rzMAo5nVycyspbKSRtxF27E/kVMreTjhJTve4fXan4FfPk0Lm3smR0wx83f14CHXaRthB80hlGcNUFiPXlXN8szjdi3M4l47HauMnC4Z2GQ6u2HgEZWVFtgUtTrYiw1TeFnpUBxHwVoY5IEYwg04WjyrbohPtgwzzarC6F2PQibb19pyxO/vPtAj7ZpvlH0jdR+dkbW/qXHeSvtLl+zug+dMh5wWu/M3e/h24l9m+Ufp4Xwcc3NcLt5P3EsGmPhvAuTP0Am4KLjU1ALWbM9sXqg98+y5L/wfaDouzL8uVgWxzdboN4oFebF4uJr9Dtl1oXmIcI76XsDEcv9BjhG+sZgSqI7hS32y/uS+MQSfmyah3jdl56N/X4K0gkEZyA7x+zHfO7/0ZI7tvkQCJb2iCqs97HpUlHttMAx5iYDXA+sNDViBA81DnOqk/ylwDua8TDSrLuoEHgMKtLng9xGvAsffbhWIYaJuWzrFBuOSuoJm8CDvqG6DZioCEFWeQtsJtfWveX3WiJ799gyRYJGn7QZcCXD+MDquT00TzTj4ldoFAByp38Sb2Lej+kTwAqk7qjNOfnevgapf/1QwnhwIBhliE2z22T5VLAlaY0PaoOCp5/a4uuB4gjWzJtvqraByWna9KBtxVJoqHbST4ZB5UzuzrZ0gUUcm5dc884F88/gqP/21xgmn4Jicpm1nuCyNwqLEBQnIl+9jJoVNKcGUxY92V7xdDgj9LLyjHNMSzQaCUus1D5GJhArqFQekEwkgRvAzJzehXvd4qlXsXMGEy6TOV8M3WB3YfimTJ9V0wTPpVVE++h+qXwRB/+5tXNmMbIbM+i+tEr248vej4W4GgMLYQf9vpvCUsX5/F+ktgOnsVLrl658UQHMTA+rERUQRgDE5isM18V7exP0yf2BgYA9zRBVnGsKKe+hF0Rs0WE+kgYo6Lv/X+BzmZrRNu6DLCcQ3l3yCrDKZ74ff6DWTg083dYdcVyIki6kQelAOraYZyp7h1W2Ui7VvMNhtRD+b1SOdJtE3Ql/joN7ReHhGXb4sn+1lNQ39SWpnre+7TtPvFaVcwh0kEz3oiL1pu3L4L0lMrc3T/qk/avnT5VYEXIy92G0N0RLCK1Gdj8Bz+bWg5eGi5cvuN0ML+8egZPCSvqYNVzPMkuJJhDojSy6qTtQ2dZV4NVqb09NYuGKYvhNAG7EM7hNqRc3Cl1w2WFOD6R+hf0HlM6XJcnWz0pq5c/lYsuCLnk1Ls+hzQFSe6Nu9z/irk6hvgdStoBCqHyMYkj1kp9kXMvsvU/wE8FmlfevZSyLbyAMEbpc7VADEbJEg+YkeJsqXIr8KlxfKxAODFiPBxvT6NMcP3Vx0C1RFc+X3eWfKGzjYqv6Nw3Q4CwqO+Fkd5amciFNnFQLxUTInDYBua2GOFoaORyDAqa6yPOLhqYHXecvp6qlcEKnb82dnfsSC3MSSDSEab65zgjKCmyiZKXPHq4aMVawPYfPhtc7h0vqoJxQo8BBSneMqnLXFzgxlJFXqySZK1qvpcRwCXE37dYTt6CRlypbCzAjbk54Ux6ESnnK6WWFRwhZzQM9ALJw/LbTEb9uXhHpVHpTiToIl6K39jBEZnSEFVThuq8vNNaOoZg4I3kSft8Z2/5Lf4leonJ7hy78/y5KHYZD56HN/WkxUKMTmPVFy4cVRsMfAmEVO+BLkXW6UicqXGyGK3BVVkrIu3ew1QR8al7Kt0Y6mkug1u5OK7LliPwVcreEh+V5eZ5Ub3sU4ymxLU0rXIZcg7ofNWEizWv+nPYP1uXTFeM7ZR12V/hvSZr7f0Mx6fhSE4hEYsDTLqwvipDaWvdDS0XH0miXt80Dq9a3d8q2Xj27tgONolCQaFyV6x8mnb8RHvaPniY9hjJngj3TklDqRx7tU997t2LrWzaJxQurJAPeuW1c881840dcaVQ2zq0w6u3EJmHGTl1FrOq+DBSYD6107i4JL2GZ5UfeY75T/lmjjVLk/m+/PnVpDK8Cr4JAlX3e8aF4qBwqzYyhUaqIrWJwIdFHPNJ+GJ9JEMMIR+y4qnxJji4tN05QyxDzxH+YpdKzmwktp6GAdkM0Wm0C4w/IfK6eBRiXIUHKT6ptDLJLiSYQ7Qj2b7DOhkPRe4NnRgXg3WofS0Z2tj4Zk8NGdInC51Lmm3thMDtikGsDvdF2bevRLsG/0SlNgPwXaamwUY/nSjfKlM7EWzVV3dK8m+iPVBpv738aicfakOZCiGTclzdeWDK7bvhZ2l/FZie0tcfD8WSw8f44MnjIjX4EV1BFcs516i7G3PUOD7SlEHV2gUmvaUq9wTQ1OXkjSlYWU7wPoeUcLuZKSJaMObLI+XP7n1q+/O2werXoOHz6uuzhj6Vn0p5XHoz0yIo4VPHs7BjqbdSY4UUx9S9xWnrNOnLXELKw7xjMBqI5w0O0NitLMqPvl8cFIVFSoera0OCm+rjbJFof9jcoeTdgsex9xDgmfRPncou+UW5mH0LG5Z2wIHv4l6RMEVCA7lwFeFAVHwWEi0q6kX7gWewFt6XJlAmOg7sqoh8py5vTADVz6RW7PWv9EGnflkO5Iso/ohg9yny1WgPxW+oT3LklYSHJXf9bgOfWYY6xpPEnQthm+CcahOfY/UbYBNLtJxccslbRa/LBTg0Y+DcOnUaTjUvht2NOlcNvZqkkdfqy2OmN/qeN4OEiKhFxNwXmyRwXxSHXD+2pTnpLuYi/q1MacDOYpdt2zWNuLj2fSZr7dU1f74UnJ0yFnWq8tr3ZgEb6UsJsHwpGQpb8lcDAgVgCdTMJy/CCePdUBz0+4kzw4Z34UfL8ptmPVboOnARbg+5eoUrRPaRGDl9f2R/FZFx7DFWfRLpuCK69Q7jql04KmzHXBUheMbu6+CFkEnVQdTCH3lLJtggaDtOt5ZgiRhfooFLIKYKd6Nw60cfZeWj9Vz+LfVbsmTS0eWIRhE6Lu8Fa8vEjCyeHLKOP2f1JkNT8GTK1MqGGHaHazD7WOHL4VJwo/6PUjLwVmUsQNMSEf0Hw2QiHLuCpQQX2EsPN4cnqMDFX8I2LNF54AUgpl0cqBOTTJqf+kC+Kn0tGUzO3aFpZNxa/eNPJw/1QW5Pbthh8lNRedbqcuTl7C0wpCed+/J72k8JS+ElD4OBnJoveTafemgXiQ29SbbVOU8om2J0Cdpb4p9V7z/3bYv1r4k/JCmliID2edqLeu2vUOq9S6j83IKdi7v8nuoL/Q9x07zuOAbqxWBmgquhHNTSEWQrBzxjW05iHJwfihZeTAs8q7o78RRjE0MrgNtJEIpXePcy+/bPlX7+a167HwEwa04mm6wPr9tsngBRk+h44tJbDug89RFmZfmu165xNzwhqV9xSlp+LQlbmskuKLfNhCnRk/y1kSu+4d+BvtK7W118/GQ56LKnZTxL1U/UT51MKDk4Ep48vPrTO4UZkbgklrpg3krTpo8NdnlXrfb23oiqnHHU2JsZQ+ulDnWNZ5ucKXI25aS9EwCqblKx8UU84MGJo8IJr7tgpM9cu/vaO8fxLYMD7fCDAz3ym1ruDXTysuhqnn24yCcPNCsEpDnoD+x8fz68RmhN33DRrdJ6279Pdz3uo2l6DNfb2kqui5dtx7P2Q22mK6Mt1fXTT89PtSPJkfS9hwcOnUaLomcVlfh5O8Db7xEku/TkFPJETfsowEUhcFH56Ab8wVt/wNcIf1FecHr+Bh2S4a/pzt7EQfRc7wd51L87gcCzEkz1FmlzmXEwdUrFkwwJegsO462x6Pzu6g33D43IJKOkaIbqU8GNxKn3f3u01ZBIccB1Y6gwUDhVozX4vXRAIR2IpJPtz7BbxT/bHgKniPt08dihwMwjpxR2Um7jvBLAycSp6TdGm/xSQNBEVp+P4ax8MvZchkepepuzJ7NMAfYdEvQybE6A/OqXYf6puyp1h6Zr9C21aUNbVYOzwxCK+b/wyS2h0/DyV5pd185hSvSqX2TosuDNrFbXn4v264PNhi3eE5A99ZkVaVcZWivlJXzSPm2jWAhtf/dtq/F4AqVnaTTgsGVHUdVbj/tT9LP9ByQCWW+Wm0I1FBwJSzsoLbrJDlPfGNbbkmJbCtyezQ2MQQdaHxYKqIkai2VZHBbkFuXduit4IcqFKzPb5sorcu6+/5CWyyCEwlS8Wln2xZE97/6Stk0OeJ8md/FRbZtQUkgDR9y8bcput9c5Zj8rtpPgxYaV2v1UPKEuYqVmx2Ub5IDuYLw2ZjTZegGLwJ8AkCmZZv0NKSYnAfrDNycn4DzmK+osQtGxbLV7HKfOh7VctBkPCXBlRazXSPhR2x3IkGQVNrJY/IqBQNXTm6ffcvbruiSK6lu92GzdY7mjwoUCsiNlCN/LziI7Vd+wMNQRYf9Au5hJ/u6zY/qYvYqHML8WGRcBOU2Mr7dshKjIm3U4ymTPvP1lm6CWzdkXGqczCXl6jPJiccH3lZvJr08YDADfaHgim4U9v83R+F1axk7wUDnwkrdRqSIeWOYVJJyme7sRRzEQPCEOvnCUQ0GUCL0tGMsHNckEJHwJp1q4+hncXAjwY6EJjq1YX5oW+zytiNs/Rapzw0SSCc+1EZNu7QAQjFei9enVwaRbS7YH5H2iDZH8c+GZzGesQ4XN4l1adiY/gnya/OaCSfEJUhL9x39tOkbXrSsRz5Thmpw5YpVPsscgA+UopNLmFctXvQXtdU/voJZF0SnH7fThHKzVDq4kt2+CdnSCcfxK2HDCXtKbj+hiWzxqZLsi5Q+sDgI9r8/71XSvnRtK4sf/aXkubq0Fx5YTXBexh9SsHN5l3Zhygto3R7+rDkEaii40gBNF8iWDdFVqIQwlwTNykwMTd2dTwbFCTm+IasLkM/YwNKTi+do+8692CuJUfOUt4eyxgCvmpVgfaq8tS0G4wunxUk67h5BDI6sx7c9VvBG8pssfdcVBnhJ25+pjHj79CNfKWvqsTfb5nd1YXI+mBURSQmZ7NQ53alSwZXJi9BUqW1BCcsgExPbp3/on6PKXRcIfqp+Is6uKPagV/LvJLEUv6mEtlaW/ZicB+ukyTOTAm5+pMxyr2Q7NB7vXcAE1Y7MqonWTTINOjkaCa5AJcZ66A3bVAq+GpJS6tbP0E/VHi8JHC0TMArCSWiVbqT70zEIRvZ0C7JqD7sJKLi/673DJDAXlFshT34gxyubpY0l6bOITgzghHumxd5275QzREIltLXmkvL1GVKWGLSB2ZKHN2OJBZWc0WCW12deni9Hd+u3uW7y9UDfumNYyESR/9KdvoiDKBxMJ0BgAi74TGjVCjqeEXra0Yw59K5D637Xz1ufWRzxMD9ZnH8PtwjvghYJNBV34sM8efWpthbjtXh9Or9KqD/d7S8qeBDFP8y7y2O5PJmtQ1Z/08CGcx3k15GPYBmHDtaXtVwxWY/wnjpc3Xk+yxwQIliKTnbrJPRc55T8RC71wRZ+0IQUEi8E+1vt3Gji94UpebxxRVeuAGS2bwIvKm2+I9+EDbcROr8ehFzohUcp9kWsDzL1f2Deq6B9mU0GSp2rdVDEt0EiaIfnZSwcwy5kF6oDTeK5CGO18/3VjkANBVfaoKV1i3VEqDzS2T1xyDE0VQ/qU0iSo19HAI84PX+4DXL0jXhsYAWDHUhcKiIrgKHfHtLjPvFIzt4uyL2THKmaGuGO1Cff1O+EQ3nk/xz0Y74TFQRxj63btL9DBJUs3rTib2yDbjzSOt8LV2axHWHc9MkT9Kg7cxSza7xHV8VohZVB8enj7oJHMbt9HcFf9XnoQyp2N6GtPOJv/a7T9nHFqg9CCW1xqao5BjvSV6L+whicFCfA+FnqPcczxLB3T/WTG1wxpynhccn6uPLkKGbPYY/JuVefvIG8bmpN6A4PnBN5IKyAR2a5BxDHy+KWFHIMLR63venTo4GtbLgkGU9yIUcED1yE1u3NcOiwk5A6gkNJYz00iUboXs+fto5izqxnIjiHxtvwQC8cSjmKWS4hbgD7+Oc3IbdfHo9stgWhnIp8OXq5tTqOvvEoXFenMowel3k95BHWyTH0TSSRd1BuhTz54ztUtmgbS9Jn6u1lvaMTTVDD2fMcklFzFLN7SlnAyNT9Fmmv/tn6FPvpG2Dbp3kYvjEE3V+h0laJat1jy3d1QM5auTIGnZubk2OjbwzBJZH7iJ7AF9Dd+rhroqOLj2E1zjbnoF/MCVYrzJeY0y7vB5xlFUTwHVxVFoOpdBuF40QKRzt4egw6spoGdfSlE6y3iwi+Mjq40ol3AgShhLYk+IH03WBAOkbKAQ8EV2T9dqApS2BBOvDOShIHR81TqA79G35mr4/wqdqCgXGzWojWH8U/IC9BPFWfpsiJXjlj5IzwZO5RntKuA/z6chiSvXKCK6HkzAF6Dt9mYIYu3Hk+wxwQIlOSjenWSQhmc6xl4toWPCVtcwt05vV8pU5h3D8IjxVN+TJuIzRZx+DuBjyCuLLbgjAfmToeuhy7nmDhX8qg0uvbd8L64KlG+sRM28YrybbJ1P/heS9k2/T3dMCO0MmPlZCBEN7RuboEH0MDH5yXNZ3wTglffvUpg9SWHQG02ToPNEO3k4NOV82fqx+BGgqu4PaDGbh+XJ7sgo4W5hc5f0uf7KA7K2Boqp8e37gIuXfflKs56htgw/bd0IpJHSmJmFKIOtCB4ArWNz8B/cdzSVLZxjdhxx5MEDlDjniO82qWYborZTDhZKtqw+ZmuDQpG1eYzMMh3TaRrHIIHuHSc3cVABafuQqH1N799W8chesiP2Kcl8KDIehu3w2bcLKrb4D1b6CxPwSPnGPydKApmKNE4Oo7X6pr7I+FORjtPQrN27eoozy3wLb2Lugbox2lH4m0Uf/sfErlaO+Tlu0Zgcfum13V52IlBeLo/LOcVmuZvl2pXkFEHVQsEXI87SdD31Q/BYIrguZYLxzakyQz3bA9J5LPem2LyXmoSozfTfRCzqLbAod6x3zMMsk9VlKAewNd0Kr7GPdMn8E+iPTnwhwMn0nG04Z3jkLfZCGKYVljPRJcEfiiDjE4bIRNu3LQ+fUUGdMAmeqO4Iy3n00MQicZbxu2t0CuZ8wcee7LTQHu5Y9C0xt43DmOzzbovDbj50EpTMClAy2JTtq8E5oP91r67/FQF7SahICyfd2WzorIbWR8+7zKhhdrY0n6LKITY3XDixm4fiaXJI9txFw1F+H6A3ICmGBTymLZ+gwKcLtHz1tbwOiBuRHobtdjFYNavTA6PwN9uN3OjO85uH7c5nVH+zmH17DuLnx3Whq+KmhcfAxXMLji6Mqgw41OonBiIw65cSK1E5voYJeedHyT3z1nOuAs04CCda14MvreCqRkDQYUd4p1MMDUIzCjQSJJI1Owg2Bp0YsEI9LwylqfTQMDLTIAkvSNCog4siD4M5iWgmeIHgnweBgglpK+Jw9GtiL9RAIzBs8glr5sYvkEAy3jDp/R+n16Fq3AcylTif8WPsMcEKOXWSen2Ba+cxqrDbcijcD5A83G7sS8KjtcO9CzCzrg0tg8YCCg4sEVZDWTfRPWxyktNT89G5AvRGgiW/OjushkX8T6IFP/x+e9xxWwL0uSgcxztQ6KZPQxBJaReTmGXcwuFPnQiC2LvukutNlCPpLbm/x9tSKwrMGVpQIpaiQvVYVMlxFgBFYIgUhwZYW44WoZAUbARuD5ixdgBSMshy/sLEfLi0CGH1CIlrfqijjGq6VMYOXKmmj3aumfVcAnjkX+YwQYAUaAEVheBDi4srx4c22MACNQFgIcXCkLPn6YEVhiBH5++bIywZW1HlxY6+1fBcGLag924VjkP0aAEWAEGIHlRYCDK8uLN9fGCDACZSHAwZWy4OOHGYElRuCXX38tK7git53ILTzFtjxUu3Pr8xfaupJsV9JbTES7ObiSIkdLsSqphL5ZJYEfHIv8xwgwAowAI7C8CHBwZXnx5toYAUagLAQ4uFIWfPwwI7AMCPz888/L7BgvhbPNNP3gEGOyWjDBMch/jAAjwAgwAsuPAAdXlh9zrpERYAQWjQAHVxYNHT/ICCwTAq9evYL03CvspK8WJ535XH2yimMPxyD/MQKMACPACCw/AjURXFl+2LhGRoARYAQYAUaAEYghgM4dr2BZfY45B1NWd5/hmOPASkwr8X1GgBFgBJYeAQ6uLD3GXAMjwAgwAowAI7AmEcC8D5hYk1eyrG6nnYMu1dt/OLZwjHGOlTWpYrnRjAAjUGUIcHClyjqE2WEEGAFGgBFgBBgBRoARYAQYAUaAEWAEGIHVhQAHV1ZXfzG3jAAjwAgwAowAI8AIMAKMACPACDACjAAjUGUIcHClyjqE2WEEGAFGgBFgBBgBRoARYAQYAUaAEWAEGIHVhQAHV1ZXfzG3jAAjwAgwAowAI8AIMAKMACPACDACjAAjUGUIrFhwhZPcVW9ytFIT13EytSob1cwOI8AIMAKMACPACDACVYgA2/9s/1ehWDJLjEDFEFj24Aofz1g7SjUUhOFjACs2NpkQI8AIMAKMACPACDACNYEA2/9s/9eEIHMjGIEiCCxrcAUVKx/HWNvKFQMu2MfY1/zHCDACjAAjwAgwAowAI7C2EWD7v/Ztf7b/1/YY59YnCCxrcAVXNYRWO/C92lO62Nf8xwgwAowAI8AIMAKMACOwthFg+7/27PyY78b2/9oe69x6gGULruAey9hA5Pu1qXSxz6N/33VBXX0b9M0mJW737Ib1m3PQT+49zrdBXX0XjCbF+IoisDAB53dthA37BuExvV8D19z3JXbiiynoO9wMG+oboK7x9NobM0+uwsHNG2HHmTEolAhdluIh/ZTluVots6bxCMxfNdPPs3loqW+AlvxcxZv0+NY5aHljI9Qh/a8qT3/RDC+x7lg0XzXyINv/tWnjp/luqfb/so+3Oejb2wB1x8dqZERxM6odgWULrvz88iUHV56vLQWLfR7984zTAoyeWWPBlUoYsYUx6ObgSlTM1s4P83Bl/0aoa2yGkwMjcL33KtxbO42XLZ0dhNYlC66E9dNagzhp7xrHw5u/EmRW/VUl5qUQCBPnYFt9A2z7qBeu3xiE/hvLE1wZPd4ggjkY0HH/mQBS2bpDOW9WHRth064cdIfaKeTH50fwtzefvChRfWHzLel2DkyZILJ8ERGhZ3hauZdUbP+vLdsfgy6p9n/Z4y2kYNLucXAlDR3+rfIILFtwhXOtrD3lin0e/ctonNb06oWIEfvsu4uQe/fcGll5MA+jF8TZNsIAACAASURBVDqg6az/RmF5+z7OR1SGq+mHucEle9tcTc2sPl5m4MrhHOQGKuwoPrgKh9o7rFV81df2KuFoCbGK6uKM81eVIFQaG5F5qTQifunRUxj87YLRBf+3pbwjgys5OH9jBIadf6MzlVrjppy3pi7oF3UMQV9PF+Te2QJ19Rv9VToquNJ6wedpeGzGBE1A9cWOY4OKd0q3Abadkqv0CjNjVtv6j+2Gunq3zVPwLBXopZsD2f5n+z9V9Cr2Y2w+5uBKxSBmQpkQWLbgStrysdr5bQb+sHcc1pl//xc+n157SpX2Z1QKMxqny+tgR7ldmh8iRmxNt9lDMj7pLS8OcT48lqvxxsQ5eL2+ATq/q0bmapmnMehcii0UGfVjLSObuW1LiFVUBy1hnZnbvVQFI/NSedXhyroGqKOrMsojmPlpGVxZ6lUbav5w27cwI7cjbD0HtynHQn4y6OtoXxRg+NhbYmt1fyCuG5VbyoN3vXRzILUJa/f6AVzaY68eOvxXtv89MVvSG7H5eOlke0mbw8RXLQJVFVz5f7vHYd1/3od7q3L7zD/h8/8ch3XdM7z9ifRfdGRkNE4XZyREa62uHyKGU0232euB+KS3vDjE+fBYrsYbWY31auR9VfMUM+bKbFRG/VhmLbXx+BJiFdVBS1jnindKZF4qjy+lX93gQ3lEMz29osEVAAjWn1Vfp/VFCo2o3KYitnRzYKaAyl87oa7+P+DSKn0heeNoA9Tt6YW/Efs3U7truHyquC3Jj7H5eOlke0mawURXPQIcXKmUYpu+Dzv38koVdzKJjpCAcRoyCJJ7Bbg30AWt23GZbQOsf6MZcj0j8NhaYpwo0MJkHg6JJbnk7dDCHAz3dECzolHX+CY0Hc7DPWv3UoTG5V5oqm+A189OBJpUgOFPN0Idvp2y+AkUpbdcw0l9t/dXF0vClfBLScPcCJw/0ALbNss3KQKvgRmrSPTLrP1s3ead0HzgIgy7b8hIHz6+cc7qm0MZ6pJ9a7/pwbbr1Rem7xfm4Xb+KDSpRIgbtueg+5bLDACo/tXlwjLit7oYH+IJV3bqt8C2PR1w3uOD9MeLKeg/nlN9sBE2vRsq7/Nj7mSqUxoTpcmMrOHZxCB0tu+GTY1aRnZD6/FBZzwo5yDoFIUMGX1vBpLklXbiatM+cVEqXmn09W++bGRtK2iZnpmD4TNtEhvVdiOPqgHSaXLltw36/r9ydIVsg9efLv5Zx6gNtvpGMJ8bge72nTIJ8uZmMOOW3m98E1rOuLoWwMXDVDU/QeS+ATa80wGXxuZhWOS+oCsIEj4Wp6+zYfX4Fm6zfBPWi0TPb0JTSJcZ5tVFMV2s5WQWwNN9+SQXBiW7KD4ogUCft54ds7d6BMoEdbei+/iGjU3L8SF49CCS0Lai+tXWCZUYnxQqeh0MbtAC4jqgO9L62JvflCy74xTmoX9fA9Ttv2r3k6CdzHUeO/qGayPo+/h5Cw8F2A2XpuhNeR0dm35Rcaeyc6BfiWsXBr+v6uDKLThc3wBrfaXK/9/e+b1WlWR7/OH+K3k5BM6DIQ+2Lz3SEBpB9CFBaAINhh5IEDwg3NhcpiM0OUKCD92koUVhxIZAHg4YDHQzfQ2Em3TnwRAYnAyil9soDFehQUd7Dncc1qV+rL3rx6p99s6Jx7jzFWSf/WtV1aeqVtX+pn6E+RqXBL7Sb31jO/kx2R7rDTLytoZe7umF/02/5wSNXbge922V2X36O/VqVv+EvuuN3Zd5pJ1fpdqHsE8ofsM44bubHGAxX4f22/8JceWgxJWfHtG/QVyJRu0ki7DTceFnMofEFxwntdKZoePnF2nlnpqjvEErVyd1Z3lswd0ZxDrQi7N0+eIyPQh8mHa+H0xRu7Oh5yevL3+hF9gbnnZ32knZsJ2kcHiviuvLH6nVaNL4cknxgtMXdpy6T2lnc5ui+dIPg4Tw+/roNBp8/dcfqTXSpGPnr+fzvxdm6PhX8bom/Aofu/e/ptMjTRo+O0s37pr54OudRZpUIs3IDK24SdR5OEVtZTsLa42ufaJ2gxiluc3i+exmnvgatcebNHTxVjZn/NGvJjamPHxB7YUJOv0HtQjiNm3dW6bLp9QH7aTfqVTDr6fNgq5u/uq0hB1bTqw99ooHvd6la2eV7Qlq3bRz3+91qH3ezqfvuFBsflzt0Mr0SZpc6Nh4d6ituZyh9v1iLjpapcN8SY8Ulz+2tOiYzeEvLDNET+609Af1saxObdPqzVmd90OnFmnHERx1vYk+GlQshQ6SvTZ5aZYmv9wIxM8AvD6tysuEKduX4lMtrUZcmaLWpSmau+eLNKF/evFQ1Y9bNN1oUr4mwi496fbjK9z8nKC2rYPuOgyV6qiEnCzzzxepfW6KlnQYa7Sky/PH1L63Qe1TZ+jysvGTq19ZXxsIyyEPHdTrXWqr+un6We0/ztCYrreCuLJvf92b1ZPODA03Rmn8KtfDZbqs6/Is/WD9jIioly/u5fs2/Dq+73jYyHXvL5q2yvHLW3dvUetK3nZVLRccp9OXbtl2Yo1uXJqgY6fO6CmG2WKvKg4H5V+zNUlUPTGJq+KLiuqnmI+pkSPRw4Lv6JXHXvtm65TrJ1UZ+naGhsN2U4WtbfchrnB+nFumJ1FanI8r4Z506WDbwDiE8KNbPH+fxZX/XqZPIa6U7/9LfYdK9S0uY+n2WD3rtHlnJ7K2jb8Bhs4t0yP3D6Ncv0Ymve+FMv1JFVrPvusvfvzZF/dqp8p9w3D4LWp93qLbe0XfD348cHZwBA6BuBKuU+KuWfIXOtP537zCagHjEf3nKzsFh9c2iabixDa/+MmZ+5iNMull5xX9XYfpx8mzxeJMCXHlUeevznoswhSinukz6fripzx9Ki56OtVnASsVrzDuIaee4TGzPLxsPZnQFnMIjsmiqh2p/9crqbNurjXpw6vb+SJv1uij7yZpqHGGbjzkUKwDbbRoVeg479xZjv4q/+iPauG3KUc0SNvobs7TcONjWvozh2eOL+6qD1s5TP/J4CwUV+xtiUPwpnNq4+uo0s/uqO2r3TTZx93Gw7GQ/ezuUvujJg1Pd+hJ+Cx/NF1cy/8CZzuI0fOvN2hOjYboIWqYcOP4c3w4730BjYgexyMDzLOB+ENE3Z8X6UOVZ9KAIw5IH1Px6NLOwsexsKTfUffOBHnP5edjav/sf2DRm8d0+1zTjHDywg5PqoZZobOugrLlLuKq7j3t0NRIkz78Jge2H3Gl/CiuqrzMR5BsX/hAqphW/uhx08+5I9dLIUxV7vr1FYJ/1PGoWkc58t6RmQcCpbWtF+D0BENZLIp5FJRbW66GGoK4kvCd5fw1l32/LdHJZf/qKcJE9Hpb+zl5FKIHKv8LpH85+zgu5fv6jYcVy6Ow3DhVLRcF9eLBN8qn+VsxH5h/dcUHFf+CeEi+qKh+ujjc39p/ZTvmuCPN3LIo1ONK7RvXKdd+k4bOztLKXtAOqMhZ29EINWfkpk6D5ZOLt2pB23m9nfXw2UVa9/XfLNlx3cxuFfywaXD6EubhgnpNUhsYByGKKbavqKfTiPkTTLPR4kubNl8Fa5vM/5x/I2ibwf1Gkz5d/sV5xtxX1/5n+ffODlLKNvd57VGH6eepODqlhLjih9WkoSje+egX/1mOF8f752xtFy8Nob0w7uH9V73CYxYxz7LTn+KSwFf6rW9sJzwKdvUjXD/jP26Z7wi/j9ivvzPvNynqYwl9V/aBUyXaqbJtIoc/fRfCSlhCBnV+CMQVrsBWJChac8URCzLRRQslf6Fc8FCCiRJgcrtG1HCm7Nh3lFCQvWdtZ+fq/ch2btM0FoLowIKPOjoChBFA3HjZd9309kwfh2fSomye+Y+/agHKpDG3H57/nQUpJ06u+FLM009LUUMZ3ksWZOHjQeoQmGvy0FceMTKZOSXrQD/tiH/NEeNiOzk8FSVTuCUbb3apHXx48vPDX8bijxiee5E73R2/hyRxcF/zf8cdIvNhN0qRs/ZfjM66G/M0JIhH/KCJ1wxlC+gxu5/5CT7axQslhvxIdozjz7dMeIJIRI/pthrtknUC7fmVjUiAozfbJRccTcSju0FzajqYIzZw/PSR8/AO56G1M74sboX84vtZWfhyjVYOM++s5+XYNej/fvSd2UlCEiDVkzsLapTO19luVfsSV65u+4Emz6ryMp2nIdF+3LGqmlb+6GlHZZr/GuR+kKlExWHqpPbrKwT/qOxWrqMid8s8qp9dWr+iPiTmaT34HnyyMkVDjVn6wemrRX5KTHMega2ryrbLLxWP/J3oF/scd+HmBCuT93FalE0dl/BDPwosledOfYvKiWXo2O43HoZzsXhftVyY/EzYfNqhSU9cOUD/6nBRuA+yfgrZpy8ZcSXcOUeNOnN3zxHqMZe1KI+l9o39GO8WtE3rnVvU/vdJOtYYpdNXt/M/SqhYWdvZSENnFyMeuakjb9sXX4Q5SeM3d6kb/gHEARDVTede+qdNQ9au2if30x4FgYT9QvG818gVRyzIxBJB1NicD9Ztse/loogjFmSCgxEaPMFDsO3H27EjiUPO+itGQGKRRH1H2PCcZ7JrylZ23Yah45mHp9KiBZjzv6dP1b2AnRFn3PBcO/wdY+OQDM88189aMkExcE77rW+OKe+nYFffL2hrHi/TaU/U7N/fpfuue7T0UZPc/ku/7QP7Erfvlw7fg4WTt0jgvRRXPAHklREcMnHAEVUyRxiKJOG5fkewo8UOR5SRbPO1omfF8HhkiWPfiivp9FlxxQokrmDjiynmOd8Oh5cLMCyu+M+FHMJzdszljsmyK3SIpQ4BX9sSOxLGkeYf2daBih9eamhzl578eY1uf/U1zV2YoNPjdq0Bz7EW23jwjRrF4Gwn+YsaRTGarROSTK90gz/MD1hcUUO4f/jDhJ42Nfy7GWp38iHYUjT4mmEtf4zoZ3SejdI1nl0k5CHbMh1a90OK74THRIcuG1q5SHHe23eyjrotB1IHh6+FHcYwGjxsNHzO5tFcMMw/f92EPZxNuSouP1JDmNuyvyqHmXfW3QY2smsv6LxJiD/qEVMOchFtP+JKLnimYsHXq/IyvGX75p47naFqWk3+SIIecwnLdBwmp6wvX5GoW5XrKEfGO6brXKrecplY0fPXjTFzzeHRo9zGtnvkfSl/zWU/HrliwvP/6ux/pDpx9/jkJ1Ea+ZbOH7mchOnsNx76/YL6qqJUtVwU2ozaJVPGfXYB19BvMqfsaPM689nmRmE8snTlvqiofmZBBT8M/155LdTjRB1U5mObcvrUs2b05Chd/pOjTGrb+5gW9OYl7Xyrpumd8O0FaU6W2+A5/zThF3rUaxaY8zbQt6rOsr4495elYyAQRO9EIonqgxqBIBNbJLvRM5LQ8IoiEaFXfNywioSY1L3IviDwvHLjZeNthRcjoFghybNl7ORiku2r62dcwaVXeOo9mVWUNy4L53dcEvhKv/WN7YRHwa5+pKCteQv+Ll3/Yj9hfEngT7nfqo+O7yrZJnL4cd855IXzt0XgPRRXHDHCqcReZbciRTaFxY4myUQEUeyQRAR/2lD2vhRukbii7zmiRvZ+IIIU2dDv+HHU4ood+eKJKzZ9YfrNucOvZ3jGKRvbdmqUO/IlS4d13sJ5suAKHRd2CDvOS9K1/LZxpPnw7kTnQL2QrWGhFjRcpGs3zRz8neUv9LDQ/KO0wIayY8UUXk9Eq85VF7LlBERO3dwoTjO/zMd0fLtPt+n2Fbso58gEXeux1ocJ9/CJK255MKkOGyhTDsa+tOuhOH8F3OLfPdYg4RFIuVBn+VbuWKbzQ1vU5d4fgso5mR0rh8kfmCU66/xhUPCxZspB/kGjG//go8jEVerISNeylAk/qvIqsh/f03GvkFbz8RZ/qKuIy/UyDjNLZD++QvCPeRwq1NEsMu6PNPP4o9G8x2WijLgijfpRVmLb6XiU99dc9uM80+GdnrfriZj1ozJ/oP2CO3LB5ZP/lvM8HaaUzn7jod+PRhnlcVS/TDzLl4tCm1G7ZMr4gfjXwI/oeBxQ/fSJ5Gc6DG/EVH4v/yXU40QdVO/ENm1ZDtJn7BvbXtuibZfw11FeKItq5IwaXZheNyhZbvMEC78S9XE/7VFg3eufC/1Efd8TCIQ+Za/7bNeKGaEYmAswsmAQiSssLNgP3Uis4PDUMSWgqHuRqMFpC0UQc57Hk5/jox9vb3SKyyaRfsPDHdXTKzwbrrZtP/6zETUcp+JjUAyc037rm2PK+ynY1fcTZVvdi+qYsdGPv0vXv9hPaF9Spp0q/Q3D7YEjyniMcDIIAvUTV7RgEKw/Eoop4bl2kr5wETYGZpSIERjEUTJFQoW+N3hxpVAMUmkuirNmEjhOy1aLNO50JulZey1ZiIWOi+SQzLW446zt2uF8re/5L0JpB5rZcdceVUb0ivtuJydtw6TFrD+gpwG9MUP8Ki9ky1Aip25uSBz4lfjYK76qL7ZHNz5TC9I6I25iQyWnHDhTA4Q8ZLNx55PvhMd0/NMc7DtZR9YOtZSmBYXBJc8T8Sg5JDoqg1nc/ADNEFCHoX/bnFUOkz/23HIsGTbXSg3FdxZu1nnpTBPKLIvlN9W5yd4KfoR56d+OeRXZj+9VTeuBiit2p5B9+YpE3So3/aNH+UqN0hI/Gk1+ZP6zaOTK8zWaUov7fidsX0I85cjt8CXqXCYWxGsoxf6ay37cRjz49mNxipNfworPkj4okT/KWuj7+o2Heb84T6uWi8I42XY1HwF2gP418IsHWT9TORnmh/xc7DuKfEFss8iPGdsHJ66oD8I1szaWsBadSl+y3MqJt1cT9XE/7VEQTtifFs9dgUDqU/a6r95hYSGb7qP6sKGI4IsUHJdYXMn7v/qeFVlE8eMQiiuFYpDmG3LJ08tMvCOz1RzcETDp94Ji4Jz2W98cU95Pwa6+nyjb6l7Uj+nf36XrX+wnCn2xk7asDe75DbPf+u8Ehp99E6iduOKN4GAHHYop4bl+rlhcYSfjjhbha/pYJFSI4QniRpENIY5uXPx0l0tLZXGFefaMZ+5skyVU6JxKDslca9L4H8MOu+qsh3+9STvQna/UDjbhFBNrQ5oWVDDM2SxgO0/rG4s0nFiMMZlu90bk1M1NdqLZ2ibuO9FvIc3CFCppzYTIVHdbL0QrLpxoF7QddhepFfKQbcadT74THm38vR2bzDNSeTB3hAZKTddqCB9jYXDJ81Q87Dbb0o4PvJif9xdEa6cx6Sy0bAO1C/16DMX4VA2TPzDLiStm9JWw2JqKi114dMzZGcZ8AAWLn+r1EtSC0v7ClzxEPP8wExPoXKzKK9V5UiaFe3r0SPm0Fn1QyeXRhJkaEr9vX6HrljMFj4lVraP8nne0zAUfl6q37JMKR67QU7tg8yJtObtN6aAf3tJb2YtrrkjxKO2vuewLrP583ex6k63J5UEodcLpjnxxFd/XbzzsIojR4ohuCqqWi/uq7WrG63K9eWna1aBe6yluB+FfA3Glqi8qqp8uDvd3qky7z4i+o0oes2AZpo+IXtxTC+Ef0LQgJ9K8oP+13WCBpH7Flagt3kd75MRT/fT6ytyPDI+9xJNe95U98ZlQRKgurnD8kwJMkbiSuhfFNYxn3o824fvxTo5cicSk0A6f9wqPnwuOqfSE+fnqVVAK3FOhra5U31xb7u9Ue5xu82Jxhahffyf3FVQ8bTxcP1GyfSj/DQNxxS0R7+r3oRJXjEDgTFsJK2uZj/rwGStsqNEW2UgOUewoI0jYaULS1JgwXC/uPL3IHb1iwnMXve0tdvhxTIsrr4in8mRp9uJjnWVhnAOH6rzvCznp51SDkPwnOFLJIXHndmr6RL4d7yZvGzpKU96uFmkHahZ5bdLYhXzbyaXzJ6l1yWxhW3pakEqQ7siO0tipj0layLa7+zWNNU7Q9F1e5DRBISGuqA6k6viOfdnR204v3eFFTiQ7cZoVs+PTvG31Nm3dva63Uh4uMbJD2vIz24o52KK3qKNbrkNr0qMXUG2cobmO2mr5Oq3a5ErlwbwhNFC8m9GIs12y2tZ6eZFa565ni7NKBPlaKh5qioLeXta1nW3FHK4+z3GboakP8i3/OA+i7aw58PBYKUz+wCwprhCR2fpPbdedlxPeijkS1+xfSdX2umbbXrMV+rEr83Q5+AgTP1LCtHnnVXkJnbLMnnyvUloFv8Tm5fJo4z8yQ0tqm/jOMv3gjO7o5SvYdnS0vmF4+rreyntl+Ud6Zh+qVEcjw+qCjbMkaiyo4d/u6BJjgP1wsbhCZHxfk4ZOtbKt3HW5OrtI7c9D2+l4lPfX+V8eY1a8k8ko5dsNK3+4rBcaXXIXxRU5mXol+uKCchL7vv7jIZXh9c7XwVbM8XbNSd9Nz2lVbV3vbVOttpc/SVMLi8GCtmZabeQDK/lXruedrBwzciltSV9UwJ3thcc4P8In1LngOwrCim3a9GVbTdsFbS+Ztc+OXVzzd+DTtpskLWi7temskZbqI6god3fpmtre/NR1ehD8QUX2VVK6/WsH0wb6NtUZixOFR/vRLo4MUf3PSIwQ+p7Rh78RENQfAXK7vkjBcUoKJ1nfV35Pvx+F68bNvtdwR3vYeBWOsHFtqN9++GlxxS5223Nr6H2KK2XywTKLSwJf6be+sZ3waOth1B6n2xpJXBH7fBX8Xbr+SX6wXPtQpU1Mhx/ywvnbInCoxBXlpNzpN0oQ8abglBQDfBtKrDGiRCY0lBRXWKAwa5X0WHOkRNz8eAVpU86op43y4opi2TP+PcPLd0zyGHzmikRhA+CfJwuu0HGRHEJ27c1TWl+w64c0Run4J7N04+dQvChwoNSlR515Gv+d6lA2SS/0eu9ptmp/JXGFWNkeJV57xU1n3+IKdenBTU7rCRoXh9lziHGau3vL1DqfL9Z77NQUzS3v0rOgA8YWwmP3lw1aujBBx9V2yprVJLVubtCT8K/RQh6yrbjzyXeE4+s9ujF9UgtKQx9M0m27tXaW99ErUgNlpj+tLrRo7AM7P3jkJJ0+P0s37j2NdxGKbKoPCDke+tHXT2n9mxadtuVnaESt3XOL1n8J/2ro5McvG9TmdNnnt8IiK8WDr5UOs7q4ooJ4trtMc145aenFj6Vy0n3YoblPbB6NnKSpb7bpmdod5qDEFfWhX4qXFCYDS98rndaCMp0sj09/pLlzJ2xdmad1nqVoo2X+Cib7Co65dHzy/TyN67I8SsevbHi7jZSuo5LhtyiuqOC6D9eofcH6H6fcxz7BqStRPMv6a/NiktWbl/Tg7iJNnzL5o8SE42enZH8WxUGnRvbFBeUkTqdaTL3feBA927zl+HWVjha1v3/s+bZK5eLNc9q6OZu1icdOtah99zF1Ux/0L/do//414bMt84Oon2L2CdO05OcE31Epj2367NQR1W6q/4bpHr0I215t27ZTwTt6BCYLtKm8sIlQ08GU+Bf2EZK+Sk58fvVA2sDcHP9iAaPnUX+4O1zcNT5KftQb0SG3ceW/jChRVVwJ7eg89cQQp69bKK6Y59ypRcpWHh+200vsKC+uKM69498rPBUvKwJ5ZdRdt4XjLh85/+Njv/UttphdEdvjgrYmVcf68Hfp+pfwg6Xah/JtYjr8jBJ+vGUCAxNXXr1+XU69zlRiubL2dM54/9BwVnle13/6g2m/C9nWFQrSVTgqAHgkAgWdHunx9/AafIXJNL39sbR2z3uYp4gyCIBAeQLo/x+975k69//Ll3w8eVQJDExc+e0f/zg0H/0QaAbj6FWe1/Kfnd++74VsawkFiTIE6i8WHGxO15wXfIUpLnbx7yF3zaaDLUiwBgIgcEgJoP8/mD73Yfq2qW3//5DWMUTrcBEYmLjyf//8J8SVIzaqRuV5Hf+ZRSpbtPprHVOHNPVHoOZiQX9whLfrzQu+wmS5WVdjlPJdtYSigEsgAAK1JID+/9ETV+ra/69lBUWiDpzAwMQVFfPffvsNAssREVhUXtfr3y6tfrtB68tf0OkRYZeFeiUWqdk3gXqLBfvGknyxjryOrq94dneWpq98TbfvbtPWplqgukPX7KKeY5/ni/ImiwNugAAI1JIA+v9HR2CpX/+/llUSiXqLBAYqrvzrX/8izL2sv4NVeazyul7/dumaWuBVLeZ5c89bRLBe6URq+iNQR7GgPyLFb9eR19H1Fd29NZq7MJEvKt04QWN6UenH8aKexQUDd0EABGpEAP3/+vf91bSkevb/a1QRkZSBEBiouKJSpBwsFOz6OlmVt/UTVgZSFxEICIAACIAACIAACNSSAPr/9e37K2EF/f9aVlskah8EBi6ucBzVfDy14BFGsrz/zlblocpLzLHk0o0jCIAACIAACIAACIBASAD9//e/38+L56L/H5ZunIMA0TsTVwAfBEAABEAABEAABEAABEAABEAABEAABOpAAOJKHXIRaQABEAABEAABEAABEAABEAABEAABEHhnBCCuvDP0CBgEQAAEQAAEQAAEQAAEQAAEQAAEQKAOBCCu1CEXkQYQAAEQAAEQAAEQAAEQAAEQAAEQAIF3RgDiyjtDj4BBAARAAARAAARAAARAAARAAARAAATqQADiSh1yEWkAARAAARAAARAAARAAARAAARAAARB4ZwQgrrwz9AgYBEAABEAABEAABEAABEAABEAABECgDgQgrtQhF5EGEAABEAABEAABEAABEAABEAABEACBd0bgHYgrXXrUmafxD5o01Bila7vvLO0IGARAAARAAARAAARAAARAAARAAARAAAT6JjBwceXF97M03Bil8a/WaOveMv3wsO80wAAIgAAIgAAIgAAIgAAIgAAIgAAIgAAIvDMCAxZXntPqdJOGPuvQsz6S/OL+LWp9cp12+rCBV0EABEAABEAABEAABEAABEAABEAABEDgIAgMWFzZo6WPmjS00N9coGedGRpqLEJcOYgSwZXI1gAABgJJREFUABsgAAIgAAIgAAIgAAIgAAIgAAIgAAJ9ERiwuLJL7QbElb5yDC+DAAiAAAiAAAiAAAiAAAiAAAiAAAgcKgIDE1d2FtQCtuF/M/okPRLlOa185ogxf+vQVGQjv1/ajs6C3Hb3YYfmzp3Q8Wvfz/On+3CN2hfO0DEd5gkau7BIqw+7+QP4BQIgAAIgAAIgAAIgAAIgAAIgAAIgcOQJDExcefFwm7Y2b9G0Eiou3qKtTXX+mF4QUWlRpPuUdja3afXqBA01WnRD29imrYcvdUaWtqOftuLKxVm6fHGZHhgTWYHo3l+ksUaTxi7colUdzhotnVcCzBla2sseww8QAAEQAAEQAAEQAAEQAAEQAAEQAIEjTmBg4orhLE8LqiaKpMWYanasuNJo0eqvQSno7lL7oyZ9eHWbvHEqb56akTSXftSiUPAWTkEABEAABEAABEAABEAABEAABEAABI4gAYgrn3boSZDx3Y15GmpM0O3HwQ0ierIyhcV0Yyy4AgIgAAIgAAIgAAIgAAIgAAIgAAJHlgDElavbUeabETDh+jDu+Qyt/C16DRdAAARAAARAAARAAARAAARAAARAAASOIAGIK8K20EZcadGNDbUujPR/l55484WOYMlBkkEABEAABEAABEAABEAABEAABEAABDSBQySuzNDq8yBX3uxSeyTfDYjvptZWMdfL2sl3C2K7fHzx/WxyWhA/gyMIgAAIgAAIgAAIgAAIgAAIgAAIgAAIKAKHQlwxa5yM0tyGPxxEXR9WuwsFo0tSIko1O2lxhX5d07saRQvaosyAAAiAAAiAAAiAAAiAAAiAAAiAAAiAQEDgUIgr1N2la6eaNDQyQZeXN/RUnNWbLRo7N09zn8biCt1f1KLL2Jcd2trcoKU7uyZZlewUiCtq4drOjA7j2PlFWrlnpwbd69CNKzPUusNDbJ7T6vQoDZ+9Tju+LhRgxikIgAAIgAAIgAAIgAAIgAAIgAAIgEBdCRwOcUXRfb5NSxfO0DE1UqVxgsavdOjR65QA0qUHN2fouJoypJ79ztnWp7SdlO08q59t3qLWJyfN6JlGk46dmqDphQ7tsLZCEFdyWvgFAiAAAiAAAiAAAiAAAiAAAiAAAkeTwIDFlaMJGakGARAAARAAARAAARAAARAAARAAARCoLwGIK/XNW6QMBEAABEAABEAABEAABEAABEAABEBgAAQgrgwAMoIAARAAARAAARAAARAAARAAARAAARCoLwGIK/XNW6QMBEAABEAABEAABEAABEAABEAABEBgAAQgrgwAMoIAARAAARAAARAAARAAARAAARAAARCoLwGIK/XNW6QMBEAABEAABEAABEAABEAABEAABEBgAAQgrgwAMoIAARAAARAAARAAARAAARAAARAAARCoLwGIK/XNW6QMBEAABEAABEAABEAABEAABEAABEBgAAQgrgwAMoIAARAAARAAARAAARAAARAAARAAARCoLwGIK/XNW6QMBEAABEAABEAABEAABEAABEAABEBgAAQgrgwAMoIAARAAARAAARAAARAAARAAARAAARCoLwGIK/XNW6QMBEAABEAABEAABEAABEAABEAABEBgAAQgrgwAMoIAARAAARAAARAAARAAARAAARAAARCoLwGIK/XNW6QMBEAABEAABEAABEAABEAABEAABEBgAAQgrgwAMoIAARAAARAAARAAARAAARAAARAAARCoLwGIK/XNW6QMBEAABEAABEAABEAABEAABEAABEBgAAQgrgwAMoIAARAAARAAARAAARAAARAAARAAARCoLwGIK/XNW6QMBEAABEAABEAABEAABEAABEAABEBgAAQgrgwAMoIAARAAARAAARAAARAAARAAARAAARCoLwGIK/XNW6QMBEAABEAABEAABEAABEAABEAABEBgAAQgrgwAMoIAARAAARAAARAAARAAARAAARAAARCoLwGIK/XNW6QMBEAABEAABEAABEAABEAABEAABEBgAAQgrgwAMoIAARAAARAAARAAARAAARAAARAAARCoL4H/B5cLviAtI3J9AAAAAElFTkSuQmCC;" vertex="1" parent="1">
          <mxGeometry x="100" y="830" width="851" height="260.43" as="geometry" />
        </mxCell>
        <mxCell id="GY8CTZVmxZDpq2XvXLuZ-3" value="&lt;b&gt;Legal&lt;/b&gt;&lt;br&gt;&lt;br&gt;[lawsuit, prosecuted, &lt;br&gt;class action, arrested, claim,&amp;nbsp;&lt;br&gt;lawyer, etc]&amp;nbsp;&amp;nbsp;" style="ellipse;shape=cloud;whiteSpace=wrap;html=1;" vertex="1" parent="1">
          <mxGeometry x="290" y="550" width="240" height="160" as="geometry" />
        </mxCell>
        <mxCell id="GY8CTZVmxZDpq2XvXLuZ-4" value="&lt;div&gt;&lt;font face=&quot;helvetica&quot; style=&quot;font-size: 18px ; background-color: rgb(255 , 255 , 255)&quot;&gt;Topic analysis&lt;/font&gt;&lt;/div&gt;&lt;ul style=&quot;color: rgb(0 , 0 , 0) ; font-style: normal ; font-weight: 400 ; letter-spacing: normal ; text-align: left ; text-indent: 0px ; text-transform: none ; word-spacing: 0px ; font-family: &amp;#34;helvetica&amp;#34; ; font-size: 13px&quot;&gt;&lt;li&gt;&lt;span style=&quot;background-color: rgb(255 , 255 , 255)&quot;&gt;Which&lt;span&gt;&amp;nbsp;&lt;/span&gt;&lt;b&gt;company&lt;span&gt;&amp;nbsp;&lt;/span&gt;&lt;/b&gt;is it about?&lt;/span&gt;&lt;/li&gt;&lt;li&gt;&lt;span style=&quot;background-color: rgb(255 , 255 , 255)&quot;&gt;What&#39;s the&lt;span&gt;&amp;nbsp;&lt;/span&gt;&lt;b&gt;topic&lt;span&gt;&amp;nbsp;&lt;/span&gt;&lt;/b&gt;of this article?&amp;nbsp;&lt;/span&gt;&lt;/li&gt;&lt;li&gt;&lt;span style=&quot;background-color: rgb(255 , 255 , 255)&quot;&gt;How&lt;span&gt;&amp;nbsp;&lt;/span&gt;&lt;b&gt;important&lt;span&gt;&amp;nbsp;&lt;/span&gt;&lt;/b&gt;is this&lt;span&gt;&amp;nbsp;&lt;/span&gt;&lt;b&gt;topic&lt;/b&gt;?&lt;/span&gt;&lt;/li&gt;&lt;li&gt;&lt;span style=&quot;background-color: rgb(255 , 255 , 255)&quot;&gt;How&lt;span&gt;&amp;nbsp;&lt;/span&gt;&lt;b&gt;many&lt;span&gt;&amp;nbsp;&lt;/span&gt;&lt;/b&gt;sources mention this topic?&lt;/span&gt;&lt;/li&gt;&lt;li&gt;&lt;span style=&quot;background-color: rgb(255 , 255 , 255)&quot;&gt;What&#39;s the&amp;nbsp;&lt;b&gt;quality&amp;nbsp;&lt;/b&gt;of those&amp;nbsp;&lt;b&gt;sources&lt;/b&gt;?&lt;/span&gt;&lt;/li&gt;&lt;/ul&gt;" style="text;whiteSpace=wrap;html=1;" vertex="1" parent="1">
          <mxGeometry x="100" y="440" width="290" height="100" as="geometry" />
        </mxCell>
        <mxCell id="GY8CTZVmxZDpq2XvXLuZ-5" value="&lt;b&gt;Liquidity&lt;/b&gt;&lt;br&gt;&lt;br&gt;[payment, default, bankrupt, &lt;br&gt;financial difficulty, etc]&amp;nbsp;&amp;nbsp;" style="ellipse;shape=cloud;whiteSpace=wrap;html=1;" vertex="1" parent="1">
          <mxGeometry x="420" y="440" width="240" height="160" as="geometry" />
        </mxCell>
      </root>
    </mxGraphModel>
  </diagram>
</mxfile>
